<svg id="Layer_1" data-name="Layer 1" xmlns="http://www.w3.org/2000/svg" xmlns:xlink="http://www.w3.org/1999/xlink" viewBox="0 0 1920 3395.68"><defs><style>.cls-1{fill:#f498ba;}.cls-2{fill:url(#linear-gradient);}.cls-11,.cls-3{fill:#eb0a8c;}.cls-3{opacity:0.1;}.cls-4,.cls-5{fill:#fbd0cb;}.cls-5{opacity:0.5;}.cls-10,.cls-6,.cls-9{fill:none;stroke:#eb0a8c;stroke-linecap:round;stroke-miterlimit:10;stroke-width:4px;}.cls-6{stroke-dasharray:1 20;opacity:0.58;}.cls-7{fill:#11112f;}.cls-8{opacity:0.71;}.cls-10{stroke-dasharray:1 19.96;}.cls-11{opacity:0.08;}</style><linearGradient id="linear-gradient" x1="960.11" y1="132.53" x2="960.11" y2="7506.72" gradientUnits="userSpaceOnUse"><stop offset="0" stop-color="#f498ba"/><stop offset="0.22" stop-color="#eba7c6"/><stop offset="1" stop-color="#ced7ee"/></linearGradient></defs><title>Background Image</title><rect class="cls-1" x="-1.27" y="25.52" width="1920" height="1080"/><rect class="cls-2" x="-1.27" y="132.53" width="1922.76" height="7374.19"/><circle class="cls-3" cx="456.88" cy="1214.91" r="245.97" transform="translate(-820.94 1442.78) rotate(-79.5)"/><circle class="cls-3" cx="444.79" cy="1243.09" r="161.46" transform="translate(-858.53 1453.94) rotate(-79.5)"/><circle class="cls-3" cx="698.81" cy="465.3" r="241.02"/><circle class="cls-3" cx="698.81" cy="427.35" r="158.21"/><circle class="cls-3" cx="1417.93" cy="1021.21" r="189.12" transform="translate(155.47 2229.34) rotate(-79.5)"/><circle class="cls-3" cx="1447.21" cy="1026.63" r="124.14" transform="translate(174.08 2262.57) rotate(-79.5)"/><circle class="cls-4" cx="853.95" cy="874.62" r="6.25"/><circle class="cls-4" cx="321.73" cy="776.27" r="6.25"/><circle class="cls-5" cx="446.52" cy="351.29" r="6.25"/><circle class="cls-4" cx="1161.15" cy="618.17" r="8.14" transform="translate(-112.65 289.78) rotate(-13.57)"/><circle class="cls-4" cx="938.7" cy="338.97" r="8.14" transform="matrix(0.97, -0.23, 0.23, 0.97, -53.34, 229.77)"/><circle class="cls-4" cx="544.35" cy="1046.48" r="8.14" transform="translate(-230.4 156.98) rotate(-13.57)"/><circle class="cls-4" cx="452.88" cy="667.61" r="4.07" transform="translate(-144.03 124.93) rotate(-13.57)"/><circle class="cls-4" cx="1507.69" cy="1005.66" r="4.07" transform="translate(-193.91 381.93) rotate(-13.57)"/><circle class="cls-5" cx="1294.78" cy="220.21" r="4.07" transform="translate(-15.52 310.02) rotate(-13.57)"/><circle class="cls-4" cx="1590.78" cy="671.68" r="4.07" transform="translate(-113.21 392.1) rotate(-13.57)"/><circle class="cls-4" cx="1114.64" cy="829.16" r="4.07" transform="translate(-163.47 284.75) rotate(-13.57)"/><path class="cls-6" d="M376.47,296.68a19.65,19.65,0,0,1,14.72-23.56,24.56,24.56,0,0,1,29.45,18.4,30.7,30.7,0,0,1-23,36.81,38.37,38.37,0,0,1-46-28.76s-8.15-52.29-42-72.63S249.91,209,249.91,209"/><circle class="cls-5" cx="1028.2" cy="1000.52" r="4.07" transform="translate(-206.1 269.25) rotate(-13.57)"/><circle class="cls-4" cx="1280.47" cy="544.63" r="4.07" transform="translate(-92.06 315.73) rotate(-13.57)"/><path class="cls-7" d="M-87.09-10.89V1108.35l543.47-66a152.28,152.28,0,0,0,15.17-23.15C538.14,914.7,431,907.3,409.34,899c-18.6-7.13-145.12-46.41-173.41-120.49-10.25-26.83-.88-57.11,23.18-74.23,16.47-11.72,42.3-23.28,82.61-29.13,100.08-14.51,82.83-62.84,70.32-88.09C390.84,544.28,328.4,452.27,312,424.37c-19.91-33.78-81.14-163.74-27-201s162.69,43.5,181.22,60.11c43.33,38.83,110.9,107.78,192,87.05s119-70.47,119-70.47S861,209.73,912.43,213.42s32.46,47.21,56.8,72.09,159.58-47,213.68-72.2,159.58-52.16,211-43.87,62.21,41.45,48.69,72.54-43.28,89.12,37.87,114c17.57,5.38,30.45,11.64,39.84,18.15,21.14,14.64,26.54,42.43,12.44,63.35-17.35,25.74-46.13,84.37,11.85,129.91,76.52,60.11,95,79.37,92.75,118.14-1.47,25-54.1,60.11-94.67,76.69s-124.42,70.47-110.9,105.71,108.19,95.34,108.19,95.34,75.73,45.6,54.1,80.83-63.87,56.24-72.81,64.59l488.61-.34V-10.89Z"/><g class="cls-8"><path class="cls-9" d="M674.58,868.33l.5-.05"/><path class="cls-10" d="M691.06,857.59a20.92,20.92,0,0,0,2.55-12.1,26.27,26.27,0,0,0-28.55-23.78,32.84,32.84,0,0,0-29.73,35.68,41.05,41.05,0,0,0,44.6,37.16,51.31,51.31,0,0,0,46.45-55.75,64.14,64.14,0,0,0-69.69-58.06s-57.71,4.7-133.8,74.38c0,0-95.57,104-192.68,77.74"/><path class="cls-9" d="M320.7,929.85l-.47-.17"/></g><circle class="cls-11" cx="1623.31" cy="2670.04" r="232.96" transform="translate(-1297.81 3779.7) rotate(-79.5)"/><circle class="cls-11" cx="1659.38" cy="2676.73" r="152.92" transform="translate(-1274.88 3820.63) rotate(-79.5)"/><path class="cls-7" d="M456,1042.35c-29.93,41.64-60.15,59.2-81.51,96-15.66,27-13.54,60.47-8.67,91.27s12,62.42,4.85,92.77c-2.51,10.65-6.89,21.11-14.37,29.1-8.68,9.26-20.75,14.47-32.62,19-28.35,10.72-57.67,18.76-87.29,25.18-34.86,7.56-71.16,13.25-101.49,32-19.89,12.3-36.12,29.6-51.68,47.05-13,14.53-25.89,29.55-42.47,39.74-36.86,22.66-84.09,17.43-125.42,30.27L-72,1035.15Z"/><path class="cls-7" d="M1522.15,1107.87c-26.35,25.31-19.61,56.51,2,79.69s54.2,32,81.38,48.33c52.21,31.42,83.67,94.3,77.5,154.92-3.28,32.21-14.53,70,8,93.18,9.6,9.87,23.33,14.29,36.47,18.36l257.66,79.86L1999,1072.86Z"/><circle class="cls-4" cx="188.81" cy="2015.33" r="6.25"/><circle class="cls-4" cx="427.46" cy="1694.62" r="8.14" transform="translate(-385.77 147.65) rotate(-13.57)"/><circle class="cls-5" cx="290.37" cy="1532.01" r="4.07" transform="translate(-351.44 110.94) rotate(-13.57)"/><circle class="cls-4" cx="146.37" cy="1723.16" r="4.07" transform="translate(-400.32 82.48) rotate(-13.57)"/><circle class="cls-5" cx="363.06" cy="2141.23" r="4.07" transform="translate(-492.39 145.01) rotate(-13.57)"/><circle class="cls-4" cx="128.83" cy="2868.05" r="6.25"/><circle class="cls-4" cx="1556.47" cy="1935.22" r="8.14" transform="translate(-410.71 419.34) rotate(-13.57)"/><circle class="cls-4" cx="1550.45" cy="1726.53" r="4.07" transform="translate(-361.9 412.1) rotate(-13.57)"/><circle class="cls-5" cx="1588.22" cy="2350.44" r="4.07" transform="translate(-507.27 438.39) rotate(-13.57)"/><circle class="cls-4" cx="651.34" cy="1949.23" r="6.25"/><circle class="cls-5" cx="972.06" cy="1487.16" r="6.25"/><circle class="cls-4" cx="1043.2" cy="1920.9" r="4.07" transform="translate(-421.68 298.48) rotate(-13.57)"/><circle class="cls-4" cx="1317.86" cy="2131.44" r="6.25"/><circle class="cls-4" cx="1867.75" cy="2875.1" r="8.14" transform="translate(-622.59 518.65) rotate(-13.57)"/><circle class="cls-4" cx="376.84" cy="2752.17" r="4.07" transform="translate(-635.39 165.31) rotate(-13.57)"/><circle class="cls-5" cx="1663.26" cy="3153.44" r="4.07" transform="translate(-693.63 478.43) rotate(-13.57)"/><g class="cls-8"><path class="cls-9" d="M1678,2491.82l-.5.05"/><path class="cls-10" d="M1661.55,2502.56a20.92,20.92,0,0,0-2.55,12.1,26.27,26.27,0,0,0,28.55,23.78,32.84,32.84,0,0,0,29.73-35.68,41.05,41.05,0,0,0-44.6-37.16,51.31,51.31,0,0,0-46.45,55.75,64.14,64.14,0,0,0,69.69,58.06s57.71-4.7,133.8-74.38c0,0,95.57-104,192.68-77.74"/></g></svg>