<svg id="Layer_1" data-name="Layer 1" xmlns="http://www.w3.org/2000/svg" xmlns:xlink="http://www.w3.org/1999/xlink" viewBox="0 0 1920 3395.68"><defs><style>.cls-1,.cls-12,.cls-17,.cls-18,.cls-19,.cls-30{fill:none;}.cls-2{clip-path:url(#clip-path);}.cls-3{fill:#f498ba;}.cls-4{fill:url(#linear-gradient);}.cls-20,.cls-5{fill:#eb0a8c;}.cls-5{opacity:0.1;}.cls-14,.cls-6{fill:#ced7ee;}.cls-6{opacity:0.89;}.cls-15,.cls-7{fill:#e4e873;}.cls-7{opacity:0.83;}.cls-21,.cls-27,.cls-28,.cls-29,.cls-8,.cls-9{fill:#40489e;}.cls-8{opacity:0.9;}.cls-9{opacity:0.75;}.cls-10,.cls-11{fill:#fbd0cb;}.cls-11,.cls-27{opacity:0.5;}.cls-12,.cls-17,.cls-18,.cls-19,.cls-30{stroke:#eb0a8c;stroke-linecap:round;stroke-miterlimit:10;stroke-width:4px;}.cls-12,.cls-19,.cls-30{stroke-dasharray:1 20;}.cls-12{opacity:0.58;}.cls-13{fill:#11112f;}.cls-14{opacity:0.7;}.cls-15{opacity:0.6;}.cls-16,.cls-30{opacity:0.71;}.cls-18{stroke-dasharray:1 19.96;}.cls-20{opacity:0.08;}.cls-21{opacity:0.62;}.cls-22,.cls-23,.cls-25,.cls-26{fill:#e1e775;}.cls-22{opacity:0.76;}.cls-23{opacity:0.44;}.cls-24{fill:#f1f5cf;}.cls-25{opacity:0.88;}.cls-29{opacity:0.8;}</style><clipPath id="clip-path"><rect class="cls-1" width="1920.15" height="3395.77"/></clipPath><linearGradient id="linear-gradient" x1="960.11" y1="132.53" x2="960.11" y2="7506.72" gradientUnits="userSpaceOnUse"><stop offset="0" stop-color="#f498ba"/><stop offset="0.22" stop-color="#eba7c6"/><stop offset="1" stop-color="#ced7ee"/></linearGradient></defs><title>Background Image</title><g class="cls-2"><rect class="cls-3" x="-1.27" y="25.52" width="1920" height="1080"/><rect class="cls-4" x="-1.27" y="132.53" width="1922.76" height="7374.19"/><circle class="cls-5" cx="456.88" cy="1214.91" r="245.97" transform="translate(-820.94 1442.78) rotate(-79.5)"/><circle class="cls-5" cx="444.79" cy="1243.09" r="161.46" transform="translate(-858.53 1453.94) rotate(-79.5)"/><circle class="cls-5" cx="698.81" cy="465.3" r="241.02"/><circle class="cls-5" cx="698.81" cy="427.35" r="158.21"/><circle class="cls-5" cx="1417.93" cy="1021.21" r="189.12" transform="translate(155.47 2229.34) rotate(-79.5)"/><circle class="cls-5" cx="1447.21" cy="1026.63" r="124.14" transform="translate(174.08 2262.57) rotate(-79.5)"/><path class="cls-6" d="M672.63,580.29h-1.8c-6.42-17.13-29.29-29.81-56.52-29.81a85.5,85.5,0,0,0-11.41.76c-12.36-12.84-33.72-21.33-58-21.33-38.24,0-69.24,21.06-69.24,47a27.49,27.49,0,0,0,.89,7.11C449.44,589,430,602.71,430,618.8h29.45l133.62.65c0,.15,0,.3,0,.45H752.24C752.24,598,716.6,580.29,672.63,580.29Z"/><path class="cls-7" d="M1226.45,466.2h1.41c5,13.38,22.88,23.28,44.15,23.28a66.79,66.79,0,0,0,8.91-.59c9.66,10,26.34,16.66,45.3,16.66,29.87,0,54.09-16.45,54.09-36.74a21.47,21.47,0,0,0-.7-5.56c21.18-3.89,36.4-14.57,36.4-27.13h-23l-104.38-.51c0-.12,0-.24,0-.35H1164.26C1164.26,452.35,1192.1,466.2,1226.45,466.2Z"/><path class="cls-8" d="M1268.48,702.15q0,.72,0,1.44c-13.66,5.12-23.76,23.35-23.76,45a68.14,68.14,0,0,0,.61,9.09c-10.24,9.85-17,26.87-17,46.22,0,30.48,16.78,55.19,37.48,55.19a21.91,21.91,0,0,0,5.67-.71c4,21.61,14.86,37.14,27.68,37.14V872.1l.52-106.5h.36V638.7C1282.62,638.7,1268.48,667.1,1268.48,702.15Z"/><path class="cls-9" d="M1206.76,846.82q0,1.31,0,2.61c-24.84,9.32-43.22,42.48-43.22,82a124,124,0,0,0,1.1,16.54c-18.62,17.93-30.93,48.89-30.93,84.09,0,55.45,30.53,100.41,68.19,100.41a39.86,39.86,0,0,0,10.32-1.29c7.22,39.32,27,67.56,50.36,67.56V1156l.94-193.76.66,0V731.38C1232.48,731.38,1206.76,783.06,1206.76,846.82Z"/><circle class="cls-10" cx="853.95" cy="874.62" r="6.25"/><circle class="cls-10" cx="321.73" cy="776.27" r="6.25"/><circle class="cls-11" cx="446.52" cy="351.29" r="6.25"/><circle class="cls-10" cx="1161.15" cy="618.17" r="8.14" transform="translate(-112.65 289.78) rotate(-13.57)"/><circle class="cls-10" cx="938.7" cy="338.97" r="8.14" transform="matrix(0.97, -0.23, 0.23, 0.97, -53.34, 229.77)"/><circle class="cls-10" cx="544.35" cy="1046.48" r="8.14" transform="translate(-230.4 156.98) rotate(-13.57)"/><circle class="cls-10" cx="452.88" cy="667.61" r="4.07" transform="translate(-144.03 124.93) rotate(-13.57)"/><circle class="cls-10" cx="1507.69" cy="1005.66" r="4.07" transform="translate(-193.91 381.93) rotate(-13.57)"/><circle class="cls-11" cx="1294.78" cy="220.21" r="4.07" transform="translate(-15.52 310.02) rotate(-13.57)"/><circle class="cls-10" cx="1590.78" cy="671.68" r="4.07" transform="translate(-113.21 392.1) rotate(-13.57)"/><circle class="cls-10" cx="1114.64" cy="829.16" r="4.07" transform="translate(-163.47 284.75) rotate(-13.57)"/><path class="cls-12" d="M376.47,296.68a19.65,19.65,0,0,1,14.72-23.56,24.56,24.56,0,0,1,29.45,18.4,30.7,30.7,0,0,1-23,36.81,38.37,38.37,0,0,1-46-28.76s-8.15-52.29-42-72.63S249.91,209,249.91,209"/><circle class="cls-11" cx="1028.2" cy="1000.52" r="4.07" transform="translate(-206.1 269.25) rotate(-13.57)"/><circle class="cls-10" cx="1280.47" cy="544.63" r="4.07" transform="translate(-92.06 315.73) rotate(-13.57)"/><path class="cls-13" d="M-87.09-10.89V1108.35l543.47-66a152.28,152.28,0,0,0,15.17-23.15C538.14,914.7,431,907.3,409.34,899c-18.6-7.13-145.12-46.41-173.41-120.49-10.25-26.83-.88-57.11,23.18-74.23,16.47-11.72,42.3-23.28,82.61-29.13,100.08-14.51,82.83-62.84,70.32-88.09C390.84,544.28,328.4,452.27,312,424.37c-19.91-33.78-81.14-163.74-27-201s162.69,43.5,181.22,60.11c43.33,38.83,110.9,107.78,192,87.05s119-70.47,119-70.47S861,209.73,912.43,213.42s32.46,47.21,56.8,72.09,159.58-47,213.68-72.2,159.58-52.16,211-43.87,62.21,41.45,48.69,72.54-43.28,89.12,37.87,114c17.57,5.38,30.45,11.64,39.84,18.15,21.14,14.64,26.54,42.43,12.44,63.35-17.35,25.74-46.13,84.37,11.85,129.91,76.52,60.11,95,79.37,92.75,118.14-1.47,25-54.1,60.11-94.67,76.69s-124.42,70.47-110.9,105.71,108.19,95.34,108.19,95.34,75.73,45.6,54.1,80.83-63.87,56.24-72.81,64.59l488.61-.34V-10.89Z"/><path class="cls-14" d="M544,511.15l-2.9,0c-10.34-27.58-47.15-48-91-48a137.62,137.62,0,0,0-18.36,1.22c-19.9-20.67-54.27-34.33-93.35-34.33-61.56,0-111.46,33.89-111.46,75.7a44.25,44.25,0,0,0,1.43,11.45c-43.65,8-75,30-75,55.9h47.4l215.08,1c0,.24,0,.49,0,.73H672.1C672.1,539.7,614.72,511.15,544,511.15Z"/><path class="cls-15" d="M1308.54,414.47l2.46,0c8.77,23.4,40,40.71,77.19,40.71a116.76,116.76,0,0,0,15.58-1c16.88,17.54,46,29.13,79.2,29.13,52.23,0,94.56-28.75,94.56-64.22a37.54,37.54,0,0,0-1.22-9.72c37-6.8,63.63-25.47,63.63-47.43h-40.21L1417.25,361c0-.21,0-.41,0-.62H1199.82C1199.82,390.25,1248.5,414.47,1308.54,414.47Z"/><g class="cls-16"><path class="cls-17" d="M674.58,868.33l.5-.05"/><path class="cls-18" d="M691.06,857.59a20.92,20.92,0,0,0,2.55-12.1,26.27,26.27,0,0,0-28.55-23.78,32.84,32.84,0,0,0-29.73,35.68,41.05,41.05,0,0,0,44.6,37.16,51.31,51.31,0,0,0,46.45-55.75,64.14,64.14,0,0,0-69.69-58.06s-57.71,4.7-133.8,74.38c0,0-95.57,104-192.68,77.74"/><path class="cls-17" d="M320.7,929.85l-.47-.17"/></g><path class="cls-19" d="M980.21,298.73a40,40,0,0,0-37.06-42.67,50,50,0,0,0-53.34,46.33,62.45,62.45,0,0,0,57.91,66.68,78.06,78.06,0,0,0,83.35-72.38,97.57,97.57,0,0,0-90.48-104.18,122,122,0,0,0-130.23,113.1c-5.91,84,53.15,138.76,137.15,144.67,105,7.39,191.32-67.31,190.27-157.85-1.06-91.88-51.06-153.75-118.21-176.32-59.44-20-150.26,10.18-226.32.44-70.08-9-116.66-55.39-159.1-126.29"/><circle class="cls-20" cx="1623.31" cy="2670.04" r="232.96" transform="translate(-1297.81 3779.7) rotate(-79.5)"/><circle class="cls-20" cx="1659.38" cy="2676.73" r="152.92" transform="translate(-1274.88 3820.63) rotate(-79.5)"/><path class="cls-13" d="M456,1042.35c-29.93,41.64-60.15,59.2-81.51,96-15.66,27-13.54,60.47-8.67,91.27s12,62.42,4.85,92.77c-2.51,10.65-6.89,21.11-14.37,29.1-8.68,9.26-20.75,14.47-32.62,19-28.35,10.72-57.67,18.76-87.29,25.18-34.86,7.56-71.16,13.25-101.49,32-19.89,12.3-36.12,29.6-51.68,47.05-13,14.53-25.89,29.55-42.47,39.74-36.86,22.66-84.09,17.43-125.42,30.27L-72,1035.15Z"/><path class="cls-13" d="M1522.15,1107.87c-26.35,25.31-19.61,56.51,2,79.69s54.2,32,81.38,48.33c52.21,31.42,83.67,94.3,77.5,154.92-3.28,32.21-14.53,70,8,93.18,9.6,9.87,23.33,14.29,36.47,18.36l257.66,79.86L1999,1072.86Z"/><circle class="cls-10" cx="188.81" cy="2015.33" r="6.25"/><circle class="cls-10" cx="427.46" cy="1694.62" r="8.14" transform="translate(-385.77 147.65) rotate(-13.57)"/><circle class="cls-11" cx="290.37" cy="1532.01" r="4.07" transform="translate(-351.44 110.94) rotate(-13.57)"/><circle class="cls-10" cx="146.37" cy="1723.16" r="4.07" transform="translate(-400.32 82.48) rotate(-13.57)"/><circle class="cls-11" cx="363.06" cy="2141.23" r="4.07" transform="translate(-492.39 145.01) rotate(-13.57)"/><circle class="cls-10" cx="128.83" cy="2868.05" r="6.25"/><circle class="cls-10" cx="1556.47" cy="1935.22" r="8.14" transform="translate(-410.71 419.34) rotate(-13.57)"/><circle class="cls-10" cx="1550.45" cy="1726.53" r="4.07" transform="translate(-361.9 412.1) rotate(-13.57)"/><circle class="cls-11" cx="1588.22" cy="2350.44" r="4.07" transform="translate(-507.27 438.39) rotate(-13.57)"/><circle class="cls-10" cx="651.34" cy="1949.23" r="6.25"/><circle class="cls-11" cx="972.06" cy="1487.16" r="6.25"/><circle class="cls-10" cx="1043.2" cy="1920.9" r="4.07" transform="translate(-421.68 298.48) rotate(-13.57)"/><path class="cls-21" d="M322.62,2419.67h10.8a3.7,3.7,0,0,0-.14.45,247.86,247.86,0,0,0-3.2,29.3c-.34,6.82-.44,13.66-.62,20.49a4.52,4.52,0,0,1-1.09,2.93c-2.7,3.27-5.38,6.55-8,9.89-4.74,6.1-9.26,12.35-12.52,19.4-1.81,3.91-3.12,8.06-5.09,11.88a115.32,115.32,0,0,1-27,34,40.18,40.18,0,0,1-14.57,8.56c-4.28,1.32-8.62,1.6-12.8-.17A44.31,44.31,0,0,0,237,2553c-10.15-1.34-18.34,1.8-24,10.59a5.7,5.7,0,0,1-1.31,1.36c-5.09,3.91-9.16,8.63-11.08,14.85a35.18,35.18,0,0,1-8.35,14.09,14.15,14.15,0,0,1-7.67,4.62,14.13,14.13,0,0,0-3.83,1.19c-3.31,1.69-6.2,4-7.53,7.55a12,12,0,0,1-5.92,6.62c-4.93,2.67-10.25,3.14-15.72,2.72-1.34-.1-2.68-.29-4.07-.44a125.6,125.6,0,0,0-4.13,18.54,121.32,121.32,0,0,1-3.82,19.86c-3.43,11.25-9.31,20.67-19.62,27a29.06,29.06,0,0,0-11.12,13.06c-2.55,5.53-3.48,11.42-4.1,17.41a56.37,56.37,0,0,1-1.17,7.19c-.38,1.59-1.07,1.81-2.6,1.21-.9-.35-1.44,0-1.65.78a15.73,15.73,0,0,0-.55,3.3,28.88,28.88,0,0,1-2.24,10.36,98.65,98.65,0,0,1-9.53,17.56c-3.67,5.42-9,7.65-15.47,6.87-6-.73-10.31-4.07-12.73-9.66a53.26,53.26,0,0,1-3.95-14.52A52.29,52.29,0,0,0,51.51,2721,49.72,49.72,0,0,0,35,2700.49a33.92,33.92,0,0,1-9.62-10.87,38.68,38.68,0,0,0-7.88-9.9,56.83,56.83,0,0,1-11.9-15.38,62.22,62.22,0,0,0-4.17-6.85c-3.18-4.5-6.42-9-9.82-13.32-3.08-3.95-3.45-7.93-.88-12.21.37-.61.64-1.29,1-1.92a105.16,105.16,0,0,0,6.53-15.81,22.48,22.48,0,0,0,.66-12.86c-2.06-8-6.92-14.13-13.5-18.91a16.57,16.57,0,0,0-5-2.47,11.72,11.72,0,0,1-4.3-2c-2.91-2.37-5.8-4.77-8.63-7.24-6.43-5.61-12.68-11.28-20.44-15.3-8.31-4.3-15-10.94-21-18.16a24.48,24.48,0,0,1-4.76-8,6,6,0,0,1,.88-6,15.38,15.38,0,0,0,2.09-4c1.83-5,2.05-10.16,1.88-15.37-.11-3.31-.62-6.62-.59-9.92a63,63,0,0,1,.82-10,18.54,18.54,0,0,0-5.11-16.64,79.63,79.63,0,0,0-7-6,4.62,4.62,0,0,1-1-.86c-2.53-3.83-5-7.68-7.55-11.51a2,2,0,0,0-1-.88,14,14,0,0,1-6-3.31c-5.52-4.64-10-10.23-14.25-16-.05-.07,0-.2,0-.39l39.58,6.84c.08-1.1-.53-1.34-1.29-1.55q-18.46-5.13-36.91-10.31c-.49-.14-1-.32-1.44-.48a2.28,2.28,0,0,1,1.14-.22l26.39-.2,35.27-.24,34.67-.24,36.47-.24,33.59-.24,35.39-.24,34.67-.24,35.39-.24,34.67-.24,39.47-.24,30.47-.24,38.51-.24,21.12-.09A7,7,0,0,0,322.62,2419.67Z"/><circle class="cls-10" cx="1701.02" cy="2039.13" r="3.23" transform="translate(-431.05 456.17) rotate(-13.57)"/><path class="cls-22" d="M1659.12,1808.66a17.75,17.75,0,0,0-3.81,4c-1.69,2.44-2.92,5.81-1.08,9.48,3.66,7.33,9.77,11,9.77,17.1s14,28.7,19.54,31.76,20.15,6.11,22.6,26.26,11.6,23.82,16.49,26.87,3.05,22.6,6.72,26.87,7.94,14,12.21,16.49a72.45,72.45,0,0,1,10.56,8.38,11.61,11.61,0,0,0,15.52.35c6.12-5.28,14-10.18,18.07-4.83,4.44,5.86,9.21,14.7,12.2,20.57a14.81,14.81,0,0,0,9.16,7.54c3,.86,6.2,2.05,7,3.46,1.72,2.87,8.32,30.42,13.77,33.58s4.3,14.06,7.17,14.92,4-6.31,7.46-3.44,0,56.25,1.43,60.27,12.63,40.18,13.49,49.07a75.35,75.35,0,0,0,6.89,5.45c3.73,2.58,2.3,12.05,5.17,16.64s8.32,11.77,14.92,4.88,16.36-70.6,19.8-88.68,43.62-73.47,43.91-85.52,12.05-57.4,12.05-58.83,15.78-9.76,17.79-14.92,4.59-8,8-9.18,8.9-4.88,9.76-10.33,6.31-24.11,21.81-31.85,36.73-53.38,23.82-63.71-26.12-14.73-28.41-16.45c-.37-.28-4.38,1-5.89.35-7.81-3.25-28.2,1.07-37.9-1.6C1957.92,1800.44,1659.12,1808.66,1659.12,1808.66Z"/><path class="cls-23" d="M1862.43,1827.54l-203.33-18.83a17.75,17.75,0,0,0-3.81,4c-1.69,2.44-2.92,5.81-1.08,9.48,3.66,7.33,9.77,11,9.77,17.1s14,28.7,19.54,31.76,20.15,6.11,22.6,26.26,11.6,23.82,16.49,26.87,3.05,22.6,6.72,26.87,7.94,14,12.21,16.49a72.45,72.45,0,0,1,10.56,8.38,11.61,11.61,0,0,0,15.52.35s7.34-13.86,13.87-12.85,15.14-15.71,16.42-32.82,20-20.5,21.67-28.62,4.55-19.13,11.39-26,15.82-22.24,15.82-22.24,19.8-11.41,21.09-16.54,4.33-7.71,1-9.29C1860.63,1823.94,1862.43,1827.54,1862.43,1827.54Z"/><path class="cls-24" d="M2013,1804.8s-31.42,8.3-37.64,8.3h-37.95s-99.88-5.18-70,14.3c7.89,5.15-87.13,1.19-112.51.05a119.75,119.75,0,0,1-12.08-1.16l-34.27-5c-1.61-.24-3.22-.42-4.83-.58a58.91,58.91,0,0,1-6.18-1l-17.16-3.63a88.86,88.86,0,0,1-21.27-7.42h0l316.86-8Z"/><path class="cls-25" d="M1772.53,1997.33s-15.86,0-14.19,17.53,17.53,27.55,21.71,19.2-6.68-17.53-3.34-22.54S1772.53,1997.33,1772.53,1997.33Z"/><path class="cls-26" d="M1793.32,2015.38s-3.49-4.94-6.1,0c0,0-1.74,5.81.58,5.81S1793.9,2017.42,1793.32,2015.38Z"/><path class="cls-27" d="M333.24,2420.71h0s-3.57,18.48-3.83,45.4c0,0,0,5-.15,6.19-.12,1.07-17.7,19.7-23,34.25a77.75,77.75,0,0,1-9.18,18c-10.76,15.41-30.91,39.34-48.58,32.83h0s-24-12.49-36.13,7.88h0s-9,5.81-12,15.66a30.23,30.23,0,0,1-3.34,7.53c-3,4.73-8.25,11.26-14,11h0s-8.11,2.82-10.23,9.43S155,2624.13,128.06,2610h0s-1.34-13.08-28.07-22.87-17.34-13.06-32.84-23.87-47.79-25.31-83-37.72S-76.36,2435-76.37,2435h0l-40.1-11.21h0Z"/><path class="cls-28" d="M-109.26,2434.5c-6.84-1.81-9.84-9-5.93-14.3C-104,2405-52,2380.66,139.05,2382.29c0,0,194.18,2.18,194.18,38.42,0,0-11.12,7.78-88.26,4.12-66.57-3.16-84.3-2.12-91.6,0,0,0-17,4.34,11.5,14.36,0,0,12.26,6.43-3.14,8.46C147,2449.57-37.46,2453.55-109.26,2434.5Z"/><path class="cls-29" d="M226.35,2580.22s-10.49,7.73-9.94,14.9,3.86,16,8.28,12.7,2.21-2.21,2.76-7.18,16-11,11.59-14.35S233,2578,226.35,2580.22Z"/><circle class="cls-10" cx="1317.86" cy="2131.44" r="6.25"/><circle class="cls-10" cx="1867.75" cy="2875.1" r="8.14" transform="translate(-622.59 518.65) rotate(-13.57)"/><circle class="cls-10" cx="376.84" cy="2752.17" r="4.07" transform="translate(-635.39 165.31) rotate(-13.57)"/><circle class="cls-11" cx="1663.26" cy="3153.44" r="4.07" transform="translate(-693.63 478.43) rotate(-13.57)"/><path class="cls-30" d="M178.07,1769.89c39.53,9.88,57.45-28.42,51.94-62.22a77.51,77.51,0,0,0-89-64,96.89,96.89,0,0,0-80,111.23c10.77,66,66.44,97.57,132.45,86.8,82.52-13.46,135.62-87,118.28-156.79-17.6-70.84-67.55-109.54-123.59-114.74-49.6-4.6-114.32,35.31-174.9,41.67-55.82,5.86-100.31-21.52-146.07-68.59"/><g class="cls-16"><path class="cls-17" d="M1678,2491.82l-.5.05"/><path class="cls-18" d="M1661.55,2502.56a20.92,20.92,0,0,0-2.55,12.1,26.27,26.27,0,0,0,28.55,23.78,32.84,32.84,0,0,0,29.73-35.68,41.05,41.05,0,0,0-44.6-37.16,51.31,51.31,0,0,0-46.45,55.75,64.14,64.14,0,0,0,69.69,58.06s57.71-4.7,133.8-74.38c0,0,95.57-104,192.68-77.74"/></g></g></svg>