<?xml version="1.0" encoding="utf-8"?>
<!-- Generator: Adobe Illustrator 21.1.0, SVG Export Plug-In . SVG Version: 6.00 Build 0)  -->
<svg version="1.1" id="Layer_1" xmlns="http://www.w3.org/2000/svg" xmlns:xlink="http://www.w3.org/1999/xlink" x="0px" y="0px"
	 viewBox="0 0 1920 3395.7" style="enable-background:new 0 0 1920 3395.7;" xml:space="preserve">
<style type="text/css">
	.st0{clip-path:url(#SVGID_2_);}
	.st1{fill:#F498BA;}
	.st2{fill:url(#SVGID_3_);}
	.st3{opacity:0.1;fill:#EB0A8C;enable-background:new    ;}
	.st4{opacity:0.89;fill:#CED7EE;enable-background:new    ;}
	.st5{opacity:0.83;fill:#E4E873;enable-background:new    ;}
	.st6{opacity:0.9;fill:#40489E;enable-background:new    ;}
	.st7{opacity:0.75;fill:#40489E;enable-background:new    ;}
	.st8{fill:#FBD0CB;}
	.st9{opacity:0.5;fill:#FBD0CB;enable-background:new    ;}
	.st10{opacity:0.58;fill:#EB0A8C;enable-background:new    ;}
	.st11{fill:#11112F;}
	.st12{opacity:0.7;fill:#CED7EE;enable-background:new    ;}
	.st13{opacity:0.6;fill:#E4E873;enable-background:new    ;}
	.st14{opacity:0.71;}
	.st15{fill:#EB0A8C;}
	.st16{opacity:8.000000e-02;fill:#EB0A8C;enable-background:new    ;}
	.st17{opacity:0.62;fill:#40489E;enable-background:new    ;}
	.st18{opacity:0.76;fill:#E1E775;enable-background:new    ;}
	.st19{opacity:0.44;fill:#E1E775;enable-background:new    ;}
	.st20{fill:#F1F5CF;}
	.st21{opacity:0.88;fill:#E1E775;enable-background:new    ;}
	.st22{fill:#E1E775;}
	.st23{opacity:0.5;fill:#40489E;enable-background:new    ;}
	.st24{fill:#40489E;}
	.st25{opacity:0.8;fill:#40489E;enable-background:new    ;}
	.st26{opacity:0.71;fill:#EB0A8C;enable-background:new    ;}
</style>
<title>Background Image</title>
<g>
	<defs>
		<rect id="SVGID_1_" width="1920.2" height="3395.8"/>
	</defs>
	<clipPath id="SVGID_2_">
		<use xlink:href="#SVGID_1_"  style="overflow:visible;"/>
	</clipPath>
	<g class="st0">
		<rect x="-1.3" y="25.5" class="st1" width="1920" height="1080"/>
		
			<linearGradient id="SVGID_3_" gradientUnits="userSpaceOnUse" x1="960.11" y1="3263.47" x2="960.11" y2="-4110.7197" gradientTransform="matrix(1 0 0 -1 0 3396)">
			<stop  offset="0" style="stop-color:#F498BA"/>
			<stop  offset="0.22" style="stop-color:#EBA7C6"/>
			<stop  offset="1" style="stop-color:#CED7EE"/>
		</linearGradient>
		<rect x="-1.3" y="132.5" class="st2" width="1922.8" height="7374.2"/>
		
			<ellipse transform="matrix(0.1822 -0.9833 0.9833 0.1822 -820.9807 1442.7786)" class="st3" cx="456.9" cy="1215" rx="246" ry="246"/>
		
			<ellipse transform="matrix(0.1822 -0.9833 0.9833 0.1822 -858.5745 1453.9427)" class="st3" cx="444.8" cy="1243.1" rx="161.5" ry="161.5"/>
		<circle class="st3" cx="698.8" cy="465.3" r="241"/>
		<circle class="st3" cx="698.8" cy="427.4" r="158.2"/>
		
			<ellipse transform="matrix(0.1822 -0.9833 0.9833 0.1822 155.4181 2229.3782)" class="st3" cx="1418" cy="1021.3" rx="189.1" ry="189.1"/>
		
			<ellipse transform="matrix(0.1822 -0.9833 0.9833 0.1822 174.021 2262.6021)" class="st3" cx="1447.3" cy="1026.7" rx="124.1" ry="124.1"/>
		<path class="st4" d="M672.6,580.3h-1.8c-6.4-17.1-29.3-29.8-56.5-29.8c-3.8,0-7.6,0.3-11.4,0.8c-12.4-12.8-33.7-21.3-58-21.3
			c-38.2,0-69.2,21.1-69.2,47c0,2.4,0.3,4.8,0.9,7.1c-27.1,5-46.6,18.7-46.6,34.8h29.5l133.6,0.7c0,0.2,0,0.3,0,0.5h159.2
			C752.2,598,716.6,580.3,672.6,580.3z"/>
		<path class="st5" d="M1226.4,466.2h1.4c5,13.4,22.9,23.3,44.2,23.3c3,0,6-0.2,8.9-0.6c9.7,10,26.3,16.7,45.3,16.7
			c29.9,0,54.1-16.5,54.1-36.7c0-1.9-0.2-3.7-0.7-5.6c21.2-3.9,36.4-14.6,36.4-27.1h-23l-104.4-0.5c0-0.1,0-0.2,0-0.4h-124.4
			C1164.3,452.4,1192.1,466.2,1226.4,466.2z"/>
		<path class="st6" d="M1268.5,702.2c0,0.5,0,1,0,1.4c-13.7,5.1-23.8,23.3-23.8,45c0,3,0.2,6.1,0.6,9.1c-10.2,9.8-17,26.9-17,46.2
			c0,30.5,16.8,55.2,37.5,55.2c1.9,0,3.8-0.2,5.7-0.7c4,21.6,14.9,37.1,27.7,37.1v-23.4l0.5-106.5h0.4V638.7
			C1282.6,638.7,1268.5,667.1,1268.5,702.2z"/>
		<path class="st7" d="M1206.8,846.8c0,0.9,0,1.7,0,2.6c-24.8,9.3-43.2,42.5-43.2,82c0,5.5,0.4,11.1,1.1,16.5
			c-18.6,17.9-30.9,48.9-30.9,84.1c0,55.4,30.5,100.4,68.2,100.4c3.5,0,7-0.4,10.3-1.3c7.2,39.3,27,67.6,50.4,67.6V1156l0.9-193.8
			h0.7V731.4C1232.5,731.4,1206.8,783.1,1206.8,846.8z"/>
		<circle class="st8" cx="854" cy="874.6" r="6.2"/>
		<circle class="st8" cx="321.7" cy="776.3" r="6.2"/>
		<circle class="st9" cx="446.5" cy="351.3" r="6.2"/>
		
			<ellipse transform="matrix(0.9721 -0.2346 0.2346 0.9721 -112.6476 289.6983)" class="st8" cx="1161.1" cy="618.2" rx="8.1" ry="8.1"/>
		<ellipse transform="matrix(0.973 -0.2307 0.2307 0.973 -53.8299 225.002)" class="st8" cx="935.2" cy="342.7" rx="8.1" ry="8.1"/>
		
			<ellipse transform="matrix(0.9721 -0.2346 0.2346 0.9721 -230.3547 156.9239)" class="st8" cx="544.3" cy="1046.5" rx="8.1" ry="8.1"/>
		
			<ellipse transform="matrix(0.9721 -0.2346 0.2346 0.9721 -144.0092 124.8917)" class="st8" cx="452.9" cy="667.6" rx="4.1" ry="4.1"/>
		
			<ellipse transform="matrix(0.9721 -0.2346 0.2346 0.9721 -193.8974 381.8221)" class="st8" cx="1507.7" cy="1005.8" rx="4.1" ry="4.1"/>
		
			<ellipse transform="matrix(0.9721 -0.2346 0.2346 0.9721 -15.5408 309.9486)" class="st9" cx="1294.8" cy="220.3" rx="4.1" ry="4.1"/>
		
			<ellipse transform="matrix(0.9721 -0.2346 0.2346 0.9721 -113.2141 391.9985)" class="st8" cx="1590.8" cy="671.8" rx="4.1" ry="4.1"/>
		
			<ellipse transform="matrix(0.9721 -0.2346 0.2346 0.9721 -163.45 284.6715)" class="st8" cx="1114.6" cy="829.2" rx="4.1" ry="4.1"/>
		<path class="st10" d="M389,331.3c-0.2,0-0.4,0-0.6,0c-1.1,0-2-0.9-2-2c0-1.1,0.9-2,2-2l0.6,0l0.4,0c1.1,0,2,0.9,2,2s-0.9,2-2,2
			L389,331.3z M369.4,325.9c-0.3,0-0.7-0.1-1-0.3c-0.3-0.2-0.6-0.4-0.9-0.6c-0.9-0.6-1.2-1.8-0.6-2.8c0.6-0.9,1.8-1.2,2.8-0.6
			c0.3,0.2,0.5,0.3,0.8,0.5c0.9,0.6,1.3,1.8,0.7,2.7C370.7,325.5,370,325.9,369.4,325.9z M408.2,325.6c-0.6,0-1.3-0.3-1.6-0.9
			c-0.6-0.9-0.4-2.2,0.5-2.8c0.3-0.2,0.5-0.4,0.8-0.5c0.9-0.7,2.1-0.5,2.8,0.4c0.7,0.9,0.5,2.1-0.4,2.8c-0.3,0.2-0.6,0.4-0.9,0.6
			C409,325.5,408.6,325.6,408.2,325.6z M355.1,310.9c-0.7,0-1.4-0.4-1.8-1.1c-0.2-0.3-0.3-0.6-0.5-0.9c-0.5-1-0.1-2.2,0.9-2.7
			c1-0.5,2.2-0.1,2.7,0.9c0.1,0.3,0.3,0.6,0.4,0.8c0.5,1,0.1,2.2-0.8,2.7C355.7,310.8,355.4,310.9,355.1,310.9z M420.2,308.9
			c-0.2,0-0.4,0-0.6-0.1c-1.1-0.3-1.7-1.4-1.4-2.5c0.1-0.3,0.2-0.6,0.2-0.9c0.3-1.1,1.4-1.7,2.4-1.4c1.1,0.3,1.7,1.4,1.4,2.4
			c-0.1,0.3-0.2,0.7-0.3,1C421.9,308.3,421.1,308.9,420.2,308.9z M376.5,298.7c-0.9,0-1.7-0.6-1.9-1.6c-0.1-0.4-0.2-0.7-0.2-1.1
			c-0.2-1.1,0.5-2.1,1.6-2.3c1.1-0.2,2.1,0.5,2.3,1.6c0.1,0.3,0.1,0.6,0.2,0.9c0.2,1.1-0.4,2.1-1.5,2.4
			C376.8,298.7,376.6,298.7,376.5,298.7z M349.2,290.7c-0.9,0-1.7-0.6-1.9-1.5l-0.3-1c-0.3-1.1,0.3-2.2,1.4-2.5
			c1.1-0.3,2.2,0.3,2.5,1.4l0.3,1c0.3,1.1-0.4,2.2-1.4,2.4C349.6,290.7,349.4,290.7,349.2,290.7z M418.8,288.4
			c-0.7,0-1.5-0.4-1.8-1.1c-0.1-0.3-0.3-0.6-0.4-0.8c-0.5-1-0.1-2.2,0.8-2.7c1-0.5,2.2-0.1,2.7,0.8c0.2,0.3,0.3,0.6,0.5,1
			c0.5,1,0.1,2.2-0.9,2.7C419.4,288.3,419.1,288.4,418.8,288.4z M382.5,279.6c-0.5,0-1.1-0.2-1.5-0.7c-0.7-0.8-0.7-2.1,0.2-2.8
			c0.3-0.2,0.6-0.5,0.8-0.7c0.9-0.7,2.1-0.6,2.8,0.3c0.7,0.9,0.6,2.1-0.3,2.8c-0.2,0.2-0.5,0.4-0.7,0.6
			C383.5,279.4,383,279.6,382.5,279.6z M403.2,275.4c-0.2,0-0.4,0-0.5-0.1c-0.3-0.1-0.6-0.2-0.9-0.2c-1.1-0.2-1.7-1.3-1.5-2.4
			c0.2-1.1,1.3-1.7,2.4-1.5c0.4,0.1,0.7,0.2,1.1,0.3c1.1,0.3,1.7,1.4,1.4,2.5C404.9,274.8,404.1,275.4,403.2,275.4z M342.5,270.8
			c-0.8,0-1.5-0.5-1.8-1.2l-0.4-0.9c-0.4-1,0-2.2,1.1-2.6c1-0.4,2.2,0,2.6,1.1l0.4,0.9c0.4,1-0.1,2.2-1.1,2.6
			C343,270.8,342.7,270.8,342.5,270.8z M332.8,252.2c-0.7,0-1.3-0.3-1.7-0.9l-0.5-0.8c-0.6-0.9-0.4-2.2,0.6-2.8
			c0.9-0.6,2.2-0.4,2.8,0.6l0.6,0.9c0.6,0.9,0.3,2.2-0.6,2.8C333.5,252.1,333.1,252.2,332.8,252.2z M319.3,236.2
			c-0.5,0-1-0.2-1.3-0.5c-0.2-0.2-0.5-0.4-0.7-0.6c-0.8-0.7-0.9-2-0.2-2.8c0.7-0.8,2-0.9,2.8-0.2c0.3,0.2,0.5,0.5,0.8,0.7
			c0.8,0.7,0.9,2,0.1,2.8C320.4,235.9,319.9,236.2,319.3,236.2z M301.9,224.6c-0.3,0-0.6-0.1-0.9-0.2l-0.9-0.5
			c-1-0.5-1.4-1.7-0.9-2.7c0.5-1,1.7-1.4,2.7-0.9l0.9,0.5c1,0.5,1.4,1.7,0.8,2.7C303.3,224.2,302.6,224.6,301.9,224.6z M282.6,216.4
			c-0.2,0-0.4,0-0.6-0.1l-0.9-0.3c-1.1-0.3-1.6-1.5-1.3-2.5c0.3-1.1,1.5-1.6,2.5-1.3l1,0.3c1,0.4,1.6,1.5,1.3,2.5
			C284.2,215.8,283.4,216.4,282.6,216.4z M262.2,211.6c-0.1,0-0.2,0-0.3,0c-0.3,0-0.7-0.1-1-0.1c-1.1-0.1-1.9-1.1-1.8-2.2
			c0.1-1.1,1.1-1.9,2.2-1.8c0.3,0,0.7,0.1,1,0.1c1.1,0.1,1.9,1.1,1.7,2.2C264,210.8,263.2,211.6,262.2,211.6z"/>
		
			<ellipse transform="matrix(0.9721 -0.2346 0.2346 0.9721 -206.0696 269.171)" class="st9" cx="1028.2" cy="1000.6" rx="4.1" ry="4.1"/>
		
			<ellipse transform="matrix(0.9721 -0.2346 0.2346 0.9721 -92.0632 315.6429)" class="st8" cx="1280.5" cy="544.7" rx="4.1" ry="4.1"/>
		<path class="st11" d="M-87.1-10.9v1119.2l543.5-66c5.7-7.2,10.8-15,15.2-23.2C538.1,914.7,431,907.3,409.3,899
			c-18.6-7.1-145.1-46.4-173.4-120.5c-10.2-26.8-0.9-57.1,23.2-74.2c16.5-11.7,42.3-23.3,82.6-29.1c100.1-14.5,82.8-62.8,70.3-88.1
			c-21.2-42.8-83.6-134.8-100-162.7c-19.9-33.8-81.1-163.7-27-201s162.7,43.5,181.2,60.1c43.3,38.8,110.9,107.8,192,87
			s119-70.5,119-70.5s83.8-90.3,135.2-86.6s32.5,47.2,56.8,72.1s159.6-47,213.7-72.2s159.6-52.2,211-43.9s62.2,41.4,48.7,72.5
			s-43.3,89.1,37.9,114c17.6,5.4,30.4,11.6,39.8,18.1c21.1,14.6,26.5,42.4,12.4,63.4c-17.3,25.7-46.1,84.4,11.8,129.9
			c76.5,60.1,95,79.4,92.8,118.1c-1.5,25-54.1,60.1-94.7,76.7s-124.4,70.5-110.9,105.7s108.2,95.3,108.2,95.3s75.7,45.6,54.1,80.8
			s-63.9,56.2-72.8,64.6l488.6-0.3V-10.9H-87.1z"/>
		<path class="st12" d="M544,511.1h-2.9c-10.3-27.6-47.1-48-91-48c-6.1,0-12.3,0.4-18.4,1.2c-19.9-20.7-54.3-34.3-93.4-34.3
			c-61.6,0-111.5,33.9-111.5,75.7c0,3.9,0.5,7.7,1.4,11.5c-43.6,8-75,30-75,55.9h47.4l215.1,1c0,0.2,0,0.5,0,0.7h256.3
			C672.1,539.7,614.7,511.1,544,511.1z"/>
		<path class="st13" d="M1308.5,414.5h2.5c8.8,23.4,40,40.7,77.2,40.7c5.2,0,10.4-0.3,15.6-1c16.9,17.5,46,29.1,79.2,29.1
			c52.2,0,94.6-28.8,94.6-64.2c0-3.3-0.4-6.5-1.2-9.7c37-6.8,63.6-25.5,63.6-47.4h-40.2l-182.5-0.9c0-0.2,0-0.4,0-0.6h-217.4
			C1199.8,390.2,1248.5,414.5,1308.5,414.5z"/>
		<g class="st14">
			<path class="st15" d="M674.6,870.3c-1,0-1.9-0.8-2-1.8c-0.1-1.1,0.7-2.1,1.8-2.2l0.5,0c1.1-0.1,2.1,0.7,2.2,1.8
				c0.1,1.1-0.7,2.1-1.8,2.2l-0.5,0C674.7,870.3,674.6,870.3,674.6,870.3z"/>
			<path class="st15" d="M361.8,939.1C361.8,939.1,361.8,939.1,361.8,939.1l-1,0c-1.1,0-2-0.9-2-2c0-1.1,1-2,2-2l1,0
				c1.1,0,2,0.9,2,2C363.8,938.2,362.9,939.1,361.8,939.1z M381.7,937.8c-1,0-1.8-0.7-2-1.7c-0.1-1.1,0.6-2.1,1.7-2.3l1-0.1
				c1.1-0.2,2.1,0.6,2.3,1.7c0.2,1.1-0.6,2.1-1.7,2.3l-1,0.1C381.9,937.8,381.8,937.8,381.7,937.8z M340.9,937.2c-0.1,0-0.2,0-0.3,0
				l-1-0.2c-1.1-0.2-1.8-1.2-1.6-2.3c0.2-1.1,1.2-1.8,2.3-1.6l1,0.2c1.1,0.2,1.8,1.2,1.6,2.3C342.7,936.6,341.9,937.2,340.9,937.2z
				 M402.2,933.5c-0.9,0-1.7-0.6-1.9-1.5c-0.3-1.1,0.3-2.2,1.4-2.5l1-0.3c1.1-0.3,2.2,0.3,2.5,1.4c0.3,1.1-0.3,2.2-1.4,2.5l-1,0.3
				C402.5,933.5,402.4,933.5,402.2,933.5z M422,926.9c-0.8,0-1.5-0.5-1.9-1.3c-0.4-1,0.1-2.2,1.1-2.6l0.9-0.4c1-0.4,2.2,0.1,2.6,1.1
				c0.4,1-0.1,2.2-1.1,2.6l-0.9,0.4C422.5,926.8,422.3,926.9,422,926.9z M441.1,918.3c-0.7,0-1.4-0.4-1.8-1.1
				c-0.5-1-0.1-2.2,0.9-2.7l0.9-0.4c1-0.5,2.2-0.1,2.7,0.9c0.5,1,0.1,2.2-0.9,2.7L442,918C441.8,918.2,441.4,918.3,441.1,918.3z
				 M459.4,908c-0.7,0-1.3-0.3-1.7-1c-0.6-0.9-0.3-2.2,0.7-2.8l0.9-0.5c0.9-0.6,2.2-0.3,2.8,0.7s0.3,2.2-0.7,2.8l-0.9,0.5
				C460.2,907.9,459.8,908,459.4,908z M677.7,896.7c-1.1,0-2-0.8-2-1.9c0-1.1,0.8-2,1.9-2.1c0.3,0,0.6,0,0.9,0
				c1.1-0.1,2.1,0.8,2.1,1.9c0.1,1.1-0.8,2.1-1.9,2.1C678.4,896.7,678.1,896.7,677.7,896.7C677.7,896.7,677.7,896.7,677.7,896.7z
				 M477,896.5c-0.6,0-1.2-0.3-1.6-0.8c-0.6-0.9-0.4-2.1,0.5-2.8l0.8-0.6c0.9-0.6,2.1-0.4,2.8,0.5c0.6,0.9,0.4,2.1-0.5,2.8l-0.8,0.6
				C477.8,896.3,477.4,896.5,477,896.5z M658.3,892.6c-0.3,0-0.6-0.1-0.9-0.2c-0.3-0.2-0.6-0.3-0.9-0.5c-1-0.5-1.4-1.7-0.9-2.7
				c0.5-1,1.7-1.4,2.7-0.9c0.3,0.1,0.6,0.3,0.8,0.4c1,0.5,1.4,1.7,0.9,2.7C659.8,892.2,659.1,892.6,658.3,892.6z M697.8,891.6
				c-0.7,0-1.5-0.4-1.8-1.1c-0.5-1-0.1-2.2,0.9-2.7c0.3-0.1,0.6-0.3,0.9-0.4c1-0.5,2.2-0.1,2.7,0.9c0.5,1,0.1,2.2-0.9,2.7
				c-0.3,0.2-0.6,0.3-0.9,0.5C698.4,891.5,698.1,891.6,697.8,891.6z M493.7,883.8c-0.6,0-1.2-0.3-1.6-0.7c-0.7-0.9-0.6-2.1,0.3-2.8
				l0.8-0.6c0.9-0.7,2.1-0.6,2.8,0.3c0.7,0.9,0.6,2.1-0.3,2.8l-0.8,0.6C494.6,883.6,494.1,883.8,493.7,883.8z M642.6,879.2
				c-0.6,0-1.3-0.3-1.6-0.9c-0.2-0.3-0.4-0.6-0.6-0.9c-0.6-0.9-0.4-2.2,0.6-2.8c0.9-0.6,2.2-0.4,2.8,0.6c0.2,0.3,0.4,0.5,0.5,0.8
				c0.6,0.9,0.4,2.2-0.5,2.8C643.4,879.1,643,879.2,642.6,879.2z M714.3,878.8c-0.5,0-0.9-0.2-1.3-0.5c-0.8-0.7-0.9-2-0.2-2.8
				c0.2-0.2,0.4-0.5,0.6-0.7c0.7-0.9,2-1,2.8-0.3c0.9,0.7,1,2,0.3,2.8c-0.2,0.3-0.4,0.5-0.7,0.8
				C715.4,878.6,714.8,878.8,714.3,878.8z M509.6,870.1c-0.5,0-1.1-0.2-1.5-0.6c-0.7-0.8-0.7-2.1,0.1-2.8l0.7-0.7
				c0.8-0.7,2.1-0.7,2.8,0.1s0.7,2.1-0.1,2.8l-0.7,0.7C510.6,869.9,510.1,870.1,509.6,870.1z M724.3,860.6c-0.2,0-0.4,0-0.6-0.1
				c-1.1-0.3-1.6-1.4-1.3-2.5c0.1-0.3,0.2-0.6,0.3-0.9c0.3-1.1,1.4-1.7,2.5-1.4c1.1,0.3,1.7,1.4,1.4,2.5c-0.1,0.3-0.2,0.7-0.3,1
				C726,860,725.2,860.6,724.3,860.6z M635.4,859.7c-1,0-1.9-0.8-2-1.8l0-0.4c0-0.2,0-0.5-0.1-0.7c-0.1-1.1,0.8-2.1,1.9-2.1
				c1.1-0.1,2.1,0.8,2.1,1.9c0,0.2,0,0.4,0,0.6l0,0.3c0.1,1.1-0.7,2.1-1.8,2.2C635.5,859.7,635.4,859.7,635.4,859.7z M691.1,859.6
				c-0.3,0-0.7-0.1-1-0.3c-1-0.5-1.3-1.8-0.8-2.7c0.1-0.3,0.3-0.5,0.4-0.8c0.5-1,1.7-1.4,2.7-0.9c1,0.5,1.4,1.7,0.9,2.7
				c-0.2,0.3-0.3,0.7-0.5,1C692.4,859.2,691.8,859.6,691.1,859.6z M524.7,855.5c-0.5,0-1.1-0.2-1.5-0.7c-0.7-0.8-0.7-2.1,0.1-2.8
				l0.7-0.7c0.8-0.7,2.1-0.7,2.8,0.1c0.7,0.8,0.7,2.1-0.1,2.8L526,855C525.7,855.3,525.2,855.5,524.7,855.5z M540.6,841.8
				c-0.6,0-1.2-0.2-1.5-0.7c-0.7-0.9-0.6-2.1,0.3-2.8l0.8-0.6c0.9-0.7,2.1-0.6,2.8,0.3c0.7,0.9,0.6,2.1-0.3,2.8l-0.8,0.6
				C541.5,841.6,541,841.8,540.6,841.8z M726.3,839.9c-1,0-1.9-0.8-2-1.8c0-0.3-0.1-0.6-0.1-1c-0.1-1.1,0.6-2.1,1.7-2.2
				c1.1-0.1,2.1,0.6,2.2,1.7c0,0.3,0.1,0.7,0.1,1c0.1,1.1-0.7,2.1-1.8,2.2C726.4,839.9,726.4,839.9,726.3,839.9z M639.8,839.6
				c-0.3,0-0.7-0.1-1-0.3c-0.9-0.6-1.3-1.8-0.7-2.7c0.2-0.3,0.4-0.6,0.6-0.9c0.6-0.9,1.8-1.2,2.8-0.6c0.9,0.6,1.2,1.8,0.6,2.8
				c-0.2,0.3-0.3,0.5-0.5,0.8C641.1,839.3,640.5,839.6,639.8,839.6z M691.5,839.4c-0.8,0-1.5-0.4-1.8-1.2c-0.1-0.3-0.3-0.6-0.4-0.8
				c-0.5-1-0.1-2.2,0.9-2.7c1-0.5,2.2-0.1,2.7,0.9c0.2,0.3,0.3,0.7,0.5,1c0.4,1,0,2.2-1,2.6C692.1,839.3,691.8,839.4,691.5,839.4z
				 M557.1,828.9c-0.6,0-1.2-0.3-1.6-0.8c-0.7-0.9-0.5-2.1,0.4-2.8l0.8-0.6c0.9-0.6,2.1-0.5,2.8,0.4c0.6,0.9,0.5,2.1-0.4,2.8
				l-0.8,0.6C557.9,828.8,557.5,828.9,557.1,828.9z M655.4,826.1c-0.8,0-1.5-0.5-1.8-1.2c-0.4-1,0.1-2.2,1.1-2.6
				c0.3-0.1,0.7-0.3,1-0.4c1-0.4,2.2,0.1,2.6,1.2c0.4,1-0.1,2.2-1.2,2.6c-0.3,0.1-0.6,0.2-0.9,0.3
				C655.9,826.1,655.6,826.1,655.4,826.1z M676.8,825.3c-0.2,0-0.5,0-0.7-0.1c-0.3-0.1-0.6-0.2-0.9-0.3c-1-0.4-1.6-1.5-1.3-2.5
				c0.4-1,1.5-1.6,2.5-1.3c0.3,0.1,0.7,0.2,1,0.4c1,0.4,1.6,1.5,1.2,2.6C678.3,824.8,677.6,825.3,676.8,825.3z M720.8,819.7
				c-0.8,0-1.5-0.4-1.8-1.2c-0.1-0.3-0.3-0.6-0.4-0.9c-0.5-1-0.1-2.2,0.9-2.7c1-0.5,2.2-0.1,2.7,0.9c0.1,0.3,0.3,0.6,0.4,0.9
				c0.5,1,0,2.2-1,2.7C721.3,819.7,721,819.7,720.8,819.7z M574.4,817.1c-0.7,0-1.3-0.3-1.7-0.9c-0.6-0.9-0.3-2.2,0.6-2.8l0.8-0.5
				c0.9-0.6,2.2-0.3,2.8,0.6c0.6,0.9,0.3,2.2-0.6,2.8l-0.8,0.5C575.1,817,574.8,817.1,574.4,817.1z M592.4,806.3
				c-0.7,0-1.4-0.4-1.8-1c-0.5-1-0.2-2.2,0.8-2.7l0.9-0.5c1-0.5,2.2-0.2,2.7,0.8s0.2,2.2-0.8,2.7l-0.9,0.5
				C593,806.2,592.7,806.3,592.4,806.3z M709,802.5c-0.5,0-1.1-0.2-1.5-0.6c-0.2-0.2-0.4-0.5-0.7-0.7c-0.8-0.8-0.8-2.1,0-2.8
				c0.8-0.8,2.1-0.8,2.8,0c0.2,0.2,0.5,0.5,0.7,0.7c0.8,0.8,0.7,2.1-0.1,2.8C710,802.3,709.5,802.5,709,802.5z M611.1,796.9
				c-0.8,0-1.5-0.4-1.8-1.2c-0.5-1,0-2.2,1-2.6l0.9-0.4c1-0.4,2.2,0,2.6,1c0.5,1,0,2.2-1,2.6l-0.9,0.4
				C611.7,796.9,611.4,796.9,611.1,796.9z M692.4,789.9c-0.3,0-0.6-0.1-0.9-0.2c-0.3-0.1-0.6-0.3-0.9-0.4c-1-0.5-1.4-1.7-0.9-2.7
				c0.5-1,1.7-1.4,2.7-0.9c0.3,0.2,0.6,0.3,0.9,0.5c1,0.5,1.4,1.7,0.8,2.7C693.8,789.5,693.1,789.9,692.4,789.9z M630.6,789.2
				c-0.8,0-1.6-0.5-1.9-1.4c-0.4-1,0.2-2.2,1.2-2.5l1-0.3c1-0.4,2.2,0.2,2.5,1.3c0.4,1-0.2,2.2-1.3,2.5l-0.9,0.3
				C631,789.1,630.8,789.2,630.6,789.2z M650.8,783.6c-0.9,0-1.8-0.7-2-1.6c-0.2-1.1,0.5-2.1,1.6-2.3c0.3-0.1,0.7-0.1,1-0.2
				c1.1-0.2,2.1,0.5,2.3,1.6c0.2,1.1-0.5,2.1-1.6,2.3l-1,0.2C651,783.6,650.9,783.6,650.8,783.6z M672.6,783.3c-0.1,0-0.2,0-0.3,0
				c-0.3-0.1-0.6-0.1-1-0.1c-1.1-0.2-1.9-1.2-1.7-2.3c0.2-1.1,1.2-1.9,2.3-1.7c0.3,0,0.7,0.1,1,0.2c1.1,0.2,1.8,1.2,1.7,2.3
				C674.4,782.6,673.6,783.3,672.6,783.3z"/>
			<path class="st15" d="M320.7,931.9c-0.2,0-0.5,0-0.7-0.1l-0.5-0.2c-1-0.4-1.6-1.5-1.2-2.6c0.4-1,1.5-1.6,2.6-1.2l0.5,0.2
				c1,0.4,1.6,1.5,1.2,2.6C322.3,931.3,321.5,931.9,320.7,931.9z"/>
		</g>
		<path class="st15" d="M962.1,452.8l-1,0c-1.1,0-2-0.9-2-2c0-1.1,0.9-2,2-2c0,0,0,0,0,0l1,0c1.1,0,2,0.9,2,2
			S963.2,452.8,962.1,452.8z M982.1,451.8c-1,0-1.9-0.8-2-1.8c-0.1-1.1,0.7-2.1,1.8-2.2l1-0.1c1.1-0.1,2.1,0.7,2.2,1.8
			c0.1,1.1-0.7,2.1-1.8,2.2l-1,0.1C982.2,451.8,982.2,451.8,982.1,451.8z M941.2,451.7c-0.1,0-0.1,0-0.2,0l-1-0.1
			c-1.1-0.1-1.9-1.1-1.8-2.2c0.1-1.1,1.1-1.9,2.2-1.8l1,0.1c1.1,0.1,1.9,1.1,1.8,2.2C943,451,942.2,451.7,941.2,451.7z M920.4,448.5
			c-0.1,0-0.3,0-0.4,0l-1-0.2c-1.1-0.2-1.8-1.3-1.5-2.4c0.2-1.1,1.3-1.8,2.4-1.5l1,0.2c1.1,0.2,1.8,1.3,1.5,2.4
			C922.2,447.9,921.4,448.5,920.4,448.5z M1002.8,448.5c-0.9,0-1.8-0.6-2-1.6c-0.2-1.1,0.5-2.1,1.5-2.4l1-0.2
			c1.1-0.2,2.1,0.4,2.4,1.5c0.2,1.1-0.4,2.1-1.5,2.4l-1,0.2C1003.1,448.5,1003,448.5,1002.8,448.5z M1023.1,443
			c-0.8,0-1.6-0.5-1.9-1.4c-0.3-1,0.2-2.2,1.3-2.5l0.9-0.3c1-0.4,2.2,0.2,2.5,1.3c0.4,1-0.2,2.2-1.3,2.5l-1,0.3
			C1023.5,443,1023.3,443,1023.1,443z M900.2,443c-0.2,0-0.4,0-0.6-0.1l-1-0.3c-1-0.4-1.6-1.5-1.2-2.5c0.4-1,1.5-1.6,2.5-1.2
			l0.9,0.3c1,0.4,1.6,1.5,1.2,2.5C901.8,442.4,901,443,900.2,443z M1042.6,435.3c-0.8,0-1.5-0.4-1.8-1.2c-0.5-1,0-2.2,1-2.7l0.9-0.4
			c1-0.5,2.2,0,2.7,1c0.5,1,0,2.2-1,2.7l-0.9,0.4C1043.2,435.2,1042.9,435.3,1042.6,435.3z M880.8,434.9c-0.3,0-0.6-0.1-0.9-0.2
			l-0.9-0.5c-1-0.5-1.4-1.7-0.9-2.7c0.5-1,1.7-1.4,2.7-0.9l0.9,0.4c1,0.5,1.4,1.7,0.9,2.7C882.3,434.5,881.6,434.9,880.8,434.9z
			 M1061.1,425.4c-0.7,0-1.3-0.3-1.7-1c-0.6-0.9-0.3-2.2,0.7-2.7l0.8-0.5c0.9-0.6,2.2-0.3,2.8,0.6c0.6,0.9,0.3,2.2-0.6,2.8l-0.9,0.5
			C1061.8,425.3,1061.5,425.4,1061.1,425.4z M862.8,424.1c-0.4,0-0.8-0.1-1.1-0.4l-0.8-0.6c-0.9-0.6-1.1-1.9-0.5-2.8
			c0.6-0.9,1.9-1.1,2.8-0.5l0.8,0.6c0.9,0.6,1.1,1.9,0.5,2.8C864.1,423.8,863.4,424.1,862.8,424.1z M1078.3,413.4
			c-0.6,0-1.2-0.3-1.6-0.8c-0.7-0.9-0.5-2.1,0.3-2.8l0.8-0.6c0.9-0.7,2.1-0.5,2.8,0.3c0.7,0.9,0.5,2.1-0.3,2.8l-0.8,0.6
			C1079.2,413.3,1078.8,413.4,1078.3,413.4z M846.7,410.7c-0.5,0-1-0.2-1.4-0.6l-0.7-0.7c-0.8-0.8-0.8-2,0-2.8c0.8-0.8,2-0.8,2.8,0
			l0.7,0.7c0.8,0.8,0.8,2,0,2.8C847.7,410.5,847.2,410.7,846.7,410.7z M1094,399.4c-0.5,0-1-0.2-1.4-0.6c-0.8-0.8-0.8-2,0-2.8
			l0.7-0.7c0.8-0.8,2-0.8,2.8,0c0.8,0.8,0.8,2,0,2.8l-0.7,0.7C1095,399.2,1094.5,399.4,1094,399.4z M833.1,394.8
			c-0.6,0-1.2-0.3-1.6-0.8l-0.6-0.8c-0.6-0.9-0.4-2.2,0.5-2.8c0.9-0.6,2.2-0.4,2.8,0.5l0.6,0.8c0.6,0.9,0.4,2.1-0.5,2.8
			C833.9,394.7,833.5,394.8,833.1,394.8z M1107.7,383.5c-0.4,0-0.8-0.1-1.2-0.4c-0.9-0.7-1.1-1.9-0.4-2.8l0.6-0.8
			c0.7-0.9,1.9-1.1,2.8-0.4c0.9,0.7,1.1,1.9,0.4,2.8l-0.6,0.8C1108.9,383.3,1108.3,383.5,1107.7,383.5z M822.4,376.7
			c-0.7,0-1.5-0.4-1.8-1.1l-0.4-0.9c-0.5-1,0-2.2,1-2.7c1-0.5,2.2,0,2.7,1l0.4,0.9c0.5,1,0.1,2.2-0.9,2.7
			C823,376.7,822.7,376.7,822.4,376.7z M960.3,370.9c-1,0-1.9-0.8-2-1.8c-0.1-1.1,0.7-2.1,1.8-2.2c0.3,0,0.6-0.1,1-0.1
			c1.1-0.1,2.1,0.7,2.2,1.8c0.1,1.1-0.7,2.1-1.8,2.2c-0.3,0-0.7,0.1-1,0.1C960.4,370.9,960.4,370.9,960.3,370.9z M940.4,370.1
			c-0.1,0-0.2,0-0.4,0c-0.3-0.1-0.7-0.1-1-0.2c-1.1-0.2-1.8-1.3-1.6-2.4c0.2-1.1,1.3-1.8,2.4-1.6c0.3,0.1,0.6,0.1,1,0.2
			c1.1,0.2,1.8,1.3,1.6,2.3C942.2,369.5,941.3,370.1,940.4,370.1z M980.7,366.3c-0.8,0-1.6-0.5-1.9-1.3c-0.4-1,0.1-2.2,1.2-2.6
			c0.3-0.1,0.6-0.2,0.9-0.4c1-0.4,2.2,0.1,2.6,1.1c0.4,1-0.1,2.2-1.1,2.6c-0.3,0.1-0.6,0.2-1,0.4C981.2,366.2,981,366.3,980.7,366.3
			z M1119.2,366c-0.3,0-0.7-0.1-1-0.3c-1-0.5-1.3-1.8-0.8-2.7l0.5-0.9c0.5-1,1.8-1.3,2.7-0.8c1,0.5,1.3,1.8,0.8,2.7l-0.5,0.9
			C1120.6,365.6,1119.9,366,1119.2,366z M920.8,362.8c-0.3,0-0.7-0.1-1-0.3c-0.3-0.2-0.6-0.3-0.9-0.5c-0.9-0.6-1.3-1.8-0.7-2.7
			c0.6-0.9,1.8-1.3,2.7-0.7c0.3,0.2,0.6,0.3,0.8,0.5c1,0.6,1.3,1.8,0.7,2.7C922.2,362.5,921.5,362.8,920.8,362.8z M815,357.1
			c-0.9,0-1.7-0.6-1.9-1.5l-0.3-1c-0.3-1.1,0.3-2.2,1.4-2.5c1.1-0.3,2.2,0.3,2.5,1.4l0.3,1c0.3,1.1-0.3,2.2-1.4,2.5
			C815.4,357.1,815.2,357.1,815,357.1z M999.1,356.3c-0.6,0-1.2-0.3-1.6-0.8c-0.6-0.9-0.5-2.1,0.4-2.8c0.3-0.2,0.5-0.4,0.8-0.6
			c0.9-0.7,2.1-0.5,2.8,0.4c0.7,0.9,0.5,2.1-0.4,2.8c-0.3,0.2-0.5,0.4-0.8,0.6C1000,356.2,999.5,356.3,999.1,356.3z M904.7,349.5
			c-0.6,0-1.1-0.2-1.5-0.7c-0.2-0.3-0.4-0.5-0.7-0.8c-0.7-0.8-0.6-2.1,0.3-2.8c0.8-0.7,2.1-0.6,2.8,0.3c0.2,0.2,0.4,0.5,0.6,0.7
			c0.7,0.8,0.6,2.1-0.2,2.8C905.7,349.3,905.2,349.5,904.7,349.5z M1128.2,347c-0.2,0-0.5,0-0.7-0.1c-1-0.4-1.5-1.6-1.1-2.6l0.4-0.9
			c0.4-1,1.6-1.5,2.6-1.2c1,0.4,1.5,1.6,1.2,2.6l-0.4,0.9C1129.8,346.6,1129,347,1128.2,347z M1014.3,341.8c-0.4,0-0.9-0.1-1.2-0.4
			c-0.9-0.7-1-1.9-0.3-2.8c0.2-0.3,0.4-0.5,0.6-0.8c0.7-0.9,1.9-1,2.8-0.4c0.9,0.7,1,1.9,0.4,2.8c-0.2,0.3-0.4,0.5-0.6,0.8
			C1015.4,341.6,1014.9,341.8,1014.3,341.8z M811,336.6c-1,0-1.9-0.7-2-1.8l-0.1-1c-0.1-1.1,0.7-2.1,1.8-2.2
			c1.1-0.1,2.1,0.7,2.2,1.8l0.1,1c0.1,1.1-0.7,2.1-1.8,2.2C811.1,336.6,811,336.6,811,336.6z M894,331.6c-0.8,0-1.6-0.5-1.9-1.3
			c-0.1-0.3-0.3-0.6-0.4-1c-0.4-1,0.1-2.2,1.2-2.6c1-0.4,2.2,0.1,2.6,1.2c0.1,0.3,0.2,0.6,0.3,0.9c0.4,1-0.1,2.2-1.1,2.6
			C894.4,331.5,894.2,331.6,894,331.6z M1134.3,327c-0.1,0-0.3,0-0.4,0c-1.1-0.2-1.8-1.3-1.5-2.4l0.2-1c0.2-1.1,1.3-1.8,2.4-1.5
			c1.1,0.2,1.8,1.3,1.5,2.4l-0.2,1C1136.1,326.4,1135.2,327,1134.3,327z M1025,323.9c-0.3,0-0.5-0.1-0.8-0.2c-1-0.4-1.5-1.6-1.1-2.6
			c0.1-0.3,0.3-0.6,0.4-0.9c0.4-1,1.6-1.5,2.6-1.1c1,0.4,1.5,1.6,1.1,2.6c-0.1,0.3-0.3,0.6-0.4,0.9
			C1026.5,323.4,1025.8,323.9,1025,323.9z M810,315.6C810,315.6,810,315.6,810,315.6c-1.1,0-2-0.9-2-2l0-1c0-1.1,0.9-2,2.1-1.9
			c1.1,0,2,1,1.9,2.1l0,1C812,314.7,811.1,315.6,810,315.6z M889.7,311.1c-1.1,0-2-0.8-2-1.9c0-0.3,0-0.7,0-1c0-1.1,0.9-2,2-2
			c1.1,0,2,0.9,2,2c0,0.3,0,0.6,0,1C891.7,310.2,890.9,311.1,889.7,311.1C889.7,311.1,889.7,311.1,889.7,311.1z M1137.4,306.3
			c0,0-0.1,0-0.1,0c-1.1-0.1-1.9-1-1.8-2.1c0-0.3,0-0.6,0.1-1c0.1-1.1,1-1.9,2.1-1.9c1.1,0.1,1.9,1,1.9,2.1c0,0.3,0,0.7-0.1,1
			C1139.3,305.5,1138.5,306.3,1137.4,306.3z M1030.6,303.7c-0.1,0-0.2,0-0.3,0c-1.1-0.1-1.9-1.2-1.7-2.3c0-0.3,0.1-0.6,0.1-1
			c0.1-1.1,1.1-1.9,2.2-1.7c1.1,0.1,1.9,1.1,1.7,2.2c0,0.3-0.1,0.7-0.1,1C1032.4,303,1031.5,303.7,1030.6,303.7z M980.2,300.7
			c0,0-0.1,0-0.1,0c-1.1-0.1-1.9-1-1.9-2.1c0-0.3,0-0.6,0.1-0.9c0-1.1,1-2,2.1-1.9c1.1,0,2,1,1.9,2.1c0,0.3,0,0.7-0.1,1.1
			C982.1,299.9,981.3,300.7,980.2,300.7z M812,294.7c-0.1,0-0.2,0-0.4,0c-1.1-0.2-1.8-1.2-1.6-2.3l0.2-1c0.2-1.1,1.2-1.8,2.3-1.6
			c1.1,0.2,1.8,1.2,1.6,2.3l-0.2,1C813.8,294,812.9,294.7,812,294.7z M892.8,290.5c-0.2,0-0.5,0-0.7-0.1c-1-0.4-1.6-1.5-1.2-2.6
			c0.1-0.3,0.2-0.6,0.4-1c0.4-1,1.6-1.5,2.6-1.1c1,0.4,1.5,1.6,1.1,2.6c-0.1,0.3-0.2,0.6-0.3,0.9C894.4,290,893.6,290.5,892.8,290.5
			z M1137.5,285.3c-1.1,0-1.9-0.8-2-1.9l0-1c-0.1-1.1,0.8-2,1.9-2.1c1.1-0.1,2,0.8,2.1,1.9l0.1,1
			C1139.6,284.3,1138.7,285.2,1137.5,285.3C1137.6,285.3,1137.5,285.3,1137.5,285.3z M1030.9,282.8c-1,0-1.9-0.8-2-1.8
			c0-0.3-0.1-0.6-0.1-1c-0.1-1.1,0.7-2.1,1.8-2.2c1.1-0.1,2.1,0.7,2.2,1.8c0,0.3,0.1,0.7,0.1,1c0.1,1.1-0.7,2.1-1.8,2.2
			C1031,282.8,1031,282.8,1030.9,282.8z M976.2,280.4c-0.7,0-1.4-0.4-1.8-1.1c-0.1-0.3-0.3-0.6-0.4-0.9c-0.5-1-0.1-2.2,0.8-2.7
			c1-0.5,2.2-0.1,2.7,0.8c0.2,0.3,0.3,0.6,0.5,0.9c0.5,1,0.1,2.2-0.9,2.7C976.8,280.3,976.5,280.4,976.2,280.4z M817.4,274.5
			c-0.2,0-0.5,0-0.7-0.1c-1-0.4-1.6-1.5-1.2-2.6l0.4-1c0.4-1,1.5-1.6,2.6-1.2c1,0.4,1.6,1.5,1.2,2.6l-0.3,0.9
			C819,274,818.2,274.5,817.4,274.5z M904,272.9c-0.5,0-1-0.2-1.4-0.6c-0.8-0.8-0.8-2,0-2.8c0.2-0.2,0.5-0.5,0.7-0.7
			c0.8-0.8,2.1-0.8,2.8,0c0.8,0.8,0.8,2.1,0,2.8c-0.2,0.2-0.5,0.4-0.7,0.7C905,272.7,904.5,272.9,904,272.9z M962.6,264.7
			c-0.4,0-0.8-0.1-1.1-0.3c-0.3-0.2-0.5-0.3-0.8-0.5c-0.9-0.6-1.2-1.8-0.6-2.8c0.6-0.9,1.8-1.2,2.8-0.6c0.3,0.2,0.6,0.4,0.9,0.6
			c0.9,0.6,1.2,1.9,0.5,2.8C963.9,264.4,963.2,264.7,962.6,264.7z M1135.6,264.4c-1,0-1.8-0.7-2-1.7l-0.1-1
			c-0.2-1.1,0.6-2.1,1.7-2.3c1.1-0.2,2.1,0.6,2.3,1.7l0.1,1c0.2,1.1-0.6,2.1-1.7,2.3C1135.8,264.4,1135.7,264.4,1135.6,264.4z
			 M1026.7,262.2c-0.8,0-1.6-0.5-1.9-1.4l-0.3-0.9c-0.3-1,0.2-2.2,1.3-2.5c1-0.3,2.2,0.2,2.5,1.3l0.3,1c0.3,1.1-0.2,2.2-1.3,2.5
			C1027.1,262.2,1026.9,262.2,1026.7,262.2z M921.4,261.4c-0.8,0-1.6-0.5-1.9-1.3c-0.4-1,0.1-2.2,1.1-2.6c0.3-0.1,0.6-0.3,1-0.4
			c1-0.4,2.2,0.1,2.6,1.2c0.4,1-0.1,2.2-1.2,2.6c-0.3,0.1-0.6,0.2-0.9,0.3C921.9,261.4,921.6,261.4,921.4,261.4z M942.9,258
			c0,0-0.1,0-0.1,0c-0.3,0-0.6,0-1-0.1c-1.1-0.1-2-1-1.9-2.1s1-2,2.1-1.9c0.3,0,0.7,0,1,0.1c1.1,0.1,1.9,1,1.9,2.1
			C944.9,257.2,944,258,942.9,258z M826.2,255.5c-0.3,0-0.7-0.1-1-0.3c-1-0.5-1.3-1.8-0.7-2.7c0.2-0.3,0.3-0.6,0.5-0.9
			c0.6-1,1.8-1.3,2.7-0.7c1,0.6,1.3,1.8,0.7,2.7l-0.5,0.8C827.6,255.1,826.9,255.5,826.2,255.5z M1131.7,243.8
			c-0.9,0-1.7-0.6-1.9-1.5l-0.2-1c-0.3-1.1,0.4-2.2,1.5-2.4c1.1-0.3,2.2,0.4,2.4,1.5l0.2,1c0.3,1.1-0.4,2.2-1.5,2.4
			C1132,243.7,1131.9,243.8,1131.7,243.8z M1018.2,243.1c-0.7,0-1.4-0.4-1.7-1l-0.5-0.8c-0.6-1-0.2-2.2,0.7-2.7
			c1-0.6,2.2-0.2,2.7,0.7l0.5,0.9c0.6,1,0.2,2.2-0.7,2.7C1018.9,243,1018.6,243.1,1018.2,243.1z M838.2,238.3
			c-0.5,0-0.9-0.2-1.3-0.5c-0.8-0.7-1-2-0.3-2.8l0.7-0.8c0.7-0.8,2-0.9,2.8-0.2c0.8,0.7,0.9,2,0.2,2.8l-0.6,0.8
			C839.3,238,838.8,238.3,838.2,238.3z M1005.9,226.1c-0.5,0-1.1-0.2-1.5-0.7l-0.7-0.7c-0.8-0.8-0.7-2.1,0.1-2.8
			c0.8-0.8,2.1-0.7,2.8,0.1l0.7,0.7c0.7,0.8,0.7,2.1-0.1,2.8C1006.8,226,1006.4,226.1,1005.9,226.1z M1125.8,223.6
			c-0.8,0-1.6-0.5-1.9-1.3l-0.3-0.9c-0.4-1,0.2-2.2,1.2-2.6c1-0.4,2.2,0.2,2.6,1.2l0.3,1c0.4,1-0.2,2.2-1.2,2.6
			C1126.2,223.6,1126,223.6,1125.8,223.6z M852.9,223.3c-0.6,0-1.1-0.2-1.5-0.7c-0.7-0.8-0.6-2.1,0.2-2.8l0.8-0.7
			c0.8-0.7,2.1-0.6,2.8,0.2s0.6,2.1-0.2,2.8l-0.8,0.6C853.9,223.2,853.4,223.3,852.9,223.3z M990.2,212.2c-0.4,0-0.8-0.1-1.2-0.4
			l-0.8-0.6c-0.9-0.6-1.1-1.9-0.5-2.8c0.6-0.9,1.9-1.1,2.8-0.5l0.8,0.6c0.9,0.6,1.1,1.9,0.5,2.8
			C991.4,211.9,990.8,212.2,990.2,212.2z M870,211.2c-0.7,0-1.3-0.4-1.7-1c-0.6-1-0.2-2.2,0.7-2.7l0.9-0.5c1-0.6,2.2-0.2,2.7,0.7
			c0.6,1,0.2,2.2-0.7,2.7l-0.8,0.5C870.7,211.1,870.4,211.2,870,211.2z M1117.7,204.3c-0.7,0-1.5-0.4-1.8-1.1l-0.4-0.9
			c-0.5-1-0.1-2.2,0.9-2.7c1-0.5,2.2-0.1,2.7,0.9l0.4,0.9c0.5,1,0.1,2.2-0.9,2.7C1118.2,204.2,1117.9,204.3,1117.7,204.3z
			 M888.9,202.1c-0.8,0-1.6-0.5-1.9-1.3c-0.4-1,0.1-2.2,1.2-2.6l1-0.4c1-0.4,2.2,0.1,2.6,1.2c0.4,1-0.1,2.2-1.2,2.6l-0.9,0.3
			C889.4,202,889.1,202.1,888.9,202.1z M971.9,202c-0.3,0-0.5-0.1-0.8-0.2c-0.3-0.1-0.6-0.3-0.9-0.4c-1-0.4-1.5-1.6-1.1-2.6
			c0.4-1,1.6-1.5,2.6-1.1c0.3,0.1,0.6,0.3,0.9,0.4c1,0.4,1.5,1.6,1.1,2.6C973.4,201.6,972.7,202,971.9,202z M909.1,196.4
			c-0.9,0-1.8-0.7-2-1.6c-0.2-1.1,0.5-2.1,1.6-2.3l1-0.2c1.1-0.2,2.1,0.5,2.3,1.6c0.2,1.1-0.5,2.1-1.6,2.3l-1,0.2
			C909.3,196.3,909.2,196.4,909.1,196.4z M951.8,196c-0.1,0-0.2,0-0.4,0c-0.3-0.1-0.6-0.1-1-0.2c-1.1-0.2-1.8-1.2-1.6-2.3
			s1.2-1.8,2.3-1.6c0.3,0.1,0.7,0.1,1,0.2c1.1,0.2,1.8,1.2,1.6,2.3C953.6,195.3,952.8,196,951.8,196z M930,194.2c-1.1,0-2-0.9-2-2
			c0-1.1,0.9-2,2-2l1,0c0,0,0,0,0,0c1.1,0,2,0.9,2,2c0,1.1-0.9,2-2,2L930,194.2C930,194.2,930,194.2,930,194.2z M1107.3,186
			c-0.7,0-1.3-0.3-1.7-0.9l-0.5-0.8c-0.6-0.9-0.3-2.2,0.6-2.8c0.9-0.6,2.2-0.3,2.8,0.6l0.6,0.8c0.6,0.9,0.3,2.2-0.6,2.8
			C1108.1,185.9,1107.7,186,1107.3,186z M1094.9,169.1c-0.6,0-1.1-0.2-1.5-0.7l-0.6-0.8c-0.7-0.8-0.6-2.1,0.2-2.8
			c0.8-0.7,2.1-0.6,2.8,0.2l0.7,0.8c0.7,0.8,0.6,2.1-0.2,2.8C1095.8,169,1095.3,169.1,1094.9,169.1z M1080.4,153.9
			c-0.5,0-1-0.2-1.4-0.5l-0.7-0.7c-0.8-0.7-0.9-2-0.1-2.8c0.7-0.8,2-0.9,2.8-0.1l0.7,0.7c0.8,0.8,0.9,2,0.1,2.8
			C1081.5,153.7,1080.9,153.9,1080.4,153.9z M1064.1,140.7c-0.4,0-0.8-0.1-1.2-0.4l-0.8-0.6c-0.9-0.6-1.1-1.9-0.5-2.8
			c0.6-0.9,1.9-1.1,2.8-0.5l0.8,0.6c0.9,0.6,1.1,1.9,0.5,2.8C1065.3,140.4,1064.7,140.7,1064.1,140.7z M1046.3,129.7
			c-0.3,0-0.6-0.1-0.9-0.2l-0.9-0.5c-1-0.5-1.3-1.7-0.8-2.7c0.5-1,1.7-1.3,2.7-0.8l0.9,0.5c1,0.5,1.3,1.7,0.8,2.7
			C1047.7,129.3,1047,129.7,1046.3,129.7z M1027.2,120.9c-0.2,0-0.5,0-0.7-0.1l-0.9-0.4c-1-0.4-1.5-1.6-1.2-2.6
			c0.4-1,1.5-1.5,2.6-1.2l0.9,0.4c1,0.4,1.5,1.6,1.1,2.6C1028.8,120.4,1028,120.9,1027.2,120.9z M818.8,120.4
			C818.8,120.4,818.7,120.4,818.8,120.4l-1.1,0c-1.1,0-2-1-1.9-2.1c0-1.1,0.9-2,2.1-1.9l1,0c1.1,0,2,0.9,1.9,2.1
			C820.7,119.6,819.9,120.4,818.8,120.4z M838.8,120.4c-1.1,0-2-0.9-2-1.9c0-1.1,0.8-2,1.9-2.1l1,0c1.1,0,2,0.8,2.1,1.9
			c0,1.1-0.8,2-1.9,2.1L838.8,120.4C838.8,120.4,838.8,120.4,838.8,120.4z M859.8,119.3c-1,0-1.9-0.8-2-1.9
			c-0.1-1.1,0.8-2.1,1.9-2.1l1-0.1c1.1-0.1,2.1,0.8,2.1,1.9c0.1,1.1-0.8,2.1-1.9,2.1l-1,0.1C859.8,119.3,859.8,119.3,859.8,119.3z
			 M797.8,119.1c-0.1,0-0.1,0-0.2,0l-1-0.1c-1.1-0.1-1.9-1.1-1.8-2.2c0.1-1.1,1.1-1.9,2.2-1.8l1,0.1c1.1,0.1,1.9,1.1,1.8,2.2
			C799.7,118.3,798.8,119.1,797.8,119.1z M880.7,117.6c-1,0-1.9-0.8-2-1.8c-0.1-1.1,0.7-2.1,1.8-2.2l1-0.1c1.1-0.1,2.1,0.7,2.2,1.8
			c0.1,1.1-0.7,2.1-1.8,2.2l-1,0.1C880.8,117.6,880.8,117.6,880.7,117.6z M777.1,115.7c-0.1,0-0.3,0-0.4,0l-1-0.2
			c-1.1-0.2-1.8-1.3-1.5-2.4c0.2-1.1,1.3-1.7,2.4-1.5l1,0.2c1.1,0.2,1.8,1.3,1.5,2.4C778.9,115.1,778,115.7,777.1,115.7z
			 M901.6,115.6c-1,0-1.9-0.8-2-1.8c-0.1-1.1,0.7-2.1,1.8-2.2l1-0.1c1.1-0.1,2.1,0.7,2.2,1.8c0.1,1.1-0.7,2.1-1.8,2.2l-1,0.1
			C901.7,115.6,901.7,115.6,901.6,115.6z M1007.2,114.7c-0.1,0-0.3,0-0.4,0l-1-0.2c-1.1-0.2-1.8-1.3-1.6-2.4
			c0.2-1.1,1.3-1.8,2.4-1.6l1,0.2c1.1,0.2,1.8,1.3,1.5,2.4C1008.9,114.1,1008.1,114.7,1007.2,114.7z M922.5,113.6
			c-1,0-1.9-0.8-2-1.8c-0.1-1.1,0.7-2.1,1.8-2.2l1-0.1c1.1-0.1,2.1,0.7,2.2,1.8c0.1,1.1-0.7,2.1-1.8,2.2l-1,0.1
			C922.6,113.6,922.6,113.6,922.5,113.6z M943.4,111.9c-1,0-1.9-0.8-2-1.9c-0.1-1.1,0.8-2.1,1.9-2.1l1-0.1c1.1-0.1,2.1,0.8,2.1,1.9
			s-0.8,2.1-1.9,2.1l-1,0.1C943.5,111.9,943.5,111.9,943.4,111.9z M986.4,111.8c-0.1,0-0.1,0-0.2,0l-1-0.1c-1.1-0.1-1.9-1-1.8-2.1
			c0.1-1.1,1-1.9,2.1-1.8l1,0.1c1.1,0.1,1.9,1,1.8,2.1C988.3,111,987.4,111.8,986.4,111.8z M964.4,111.1c-1.1,0-2-0.9-2-2
			c0-1.1,0.9-2,2-2l1,0c1.1,0,2,0.9,2,2s-0.9,2-2,2L964.4,111.1C964.4,111.1,964.4,111.1,964.4,111.1z M757,109.9
			c-0.2,0-0.5,0-0.7-0.1l-1-0.3c-1-0.4-1.6-1.5-1.2-2.6c0.4-1,1.5-1.6,2.6-1.2l0.9,0.3c1,0.4,1.6,1.5,1.2,2.6
			C758.6,109.4,757.8,109.9,757,109.9z M737.7,101.6c-0.3,0-0.6-0.1-0.9-0.2l-0.9-0.5c-1-0.5-1.4-1.7-0.9-2.7c0.5-1,1.7-1.4,2.7-0.9
			l0.9,0.5c1,0.5,1.4,1.7,0.9,2.7C739.1,101.2,738.4,101.6,737.7,101.6z M719.6,90.9c-0.4,0-0.8-0.1-1.1-0.3l-0.8-0.6
			c-0.9-0.6-1.1-1.9-0.5-2.8c0.6-0.9,1.9-1.2,2.8-0.5l0.8,0.6c0.9,0.6,1.2,1.9,0.5,2.8C720.9,90.6,720.3,90.9,719.6,90.9z
			 M702.9,78.3c-0.5,0-0.9-0.2-1.3-0.5l-0.8-0.7c-0.8-0.7-0.9-2-0.2-2.8c0.7-0.8,2-0.9,2.8-0.2l0.8,0.6c0.8,0.7,1,2,0.2,2.8
			C704.1,78,703.5,78.3,702.9,78.3z M687.5,64c-0.5,0-1-0.2-1.4-0.6l-0.7-0.7c-0.8-0.8-0.8-2.1,0-2.8c0.8-0.8,2.1-0.8,2.8,0l0.7,0.7
			c0.8,0.8,0.8,2.1,0,2.8C688.6,63.8,688.1,64,687.5,64z M673.4,48.5c-0.6,0-1.1-0.2-1.5-0.7l-0.6-0.8c-0.7-0.8-0.6-2.1,0.2-2.8
			c0.8-0.7,2.1-0.6,2.8,0.2l0.6,0.8c0.7,0.8,0.6,2.1-0.2,2.8C674.3,48.3,673.9,48.5,673.4,48.5z M660.4,32c-0.6,0-1.2-0.3-1.6-0.8
			l-0.6-0.8c-0.7-0.9-0.5-2.1,0.4-2.8c0.9-0.7,2.1-0.5,2.8,0.4l0.6,0.8c0.7,0.9,0.5,2.1-0.4,2.8C661.3,31.8,660.8,32,660.4,32z
			 M648.4,14.8c-0.6,0-1.3-0.3-1.7-0.9l-0.6-0.8c-0.6-0.9-0.4-2.2,0.6-2.8c0.9-0.6,2.2-0.4,2.8,0.6l0.6,0.8c0.6,0.9,0.4,2.2-0.6,2.8
			C649.1,14.7,648.7,14.8,648.4,14.8z M637.1-2.9c-0.7,0-1.3-0.3-1.7-1l-0.5-0.9c-0.6-0.9-0.3-2.2,0.7-2.7c0.9-0.6,2.2-0.3,2.7,0.7
			l0.5,0.9c0.6,0.9,0.3,2.2-0.7,2.7C637.8-3,637.4-2.9,637.1-2.9z"/>
		
			<ellipse transform="matrix(0.1822 -0.9833 0.9833 0.1822 -1297.923 3779.7141)" class="st16" cx="1623.3" cy="2670.1" rx="233" ry="233"/>
		
			<ellipse transform="matrix(0.1822 -0.9833 0.9833 0.1822 -1274.9883 3820.6565)" class="st16" cx="1659.4" cy="2676.8" rx="152.9" ry="152.9"/>
		<path class="st11" d="M456,1042.3c-29.9,41.6-60.1,59.2-81.5,96c-15.7,27-13.5,60.5-8.7,91.3s12,62.4,4.9,92.8
			c-2.5,10.7-6.9,21.1-14.4,29.1c-8.7,9.3-20.8,14.5-32.6,19c-28.4,10.7-57.7,18.8-87.3,25.2c-34.9,7.6-71.2,13.2-101.5,32
			c-19.9,12.3-36.1,29.6-51.7,47.1c-13,14.5-25.9,29.6-42.5,39.7c-36.9,22.7-84.1,17.4-125.4,30.3l12.7-509.6L456,1042.3z"/>
		<path class="st11" d="M1522.2,1107.9c-26.3,25.3-19.6,56.5,2,79.7s54.2,32,81.4,48.3c52.2,31.4,83.7,94.3,77.5,154.9
			c-3.3,32.2-14.5,70,8,93.2c9.6,9.9,23.3,14.3,36.5,18.4l257.7,79.9l13.8-509.4L1522.2,1107.9z"/>
		<circle class="st8" cx="188.8" cy="2015.3" r="6.2"/>
		
			<ellipse transform="matrix(0.9721 -0.2346 0.2346 0.9721 -385.6945 147.5838)" class="st8" cx="427.4" cy="1694.7" rx="8.1" ry="8.1"/>
		
			<ellipse transform="matrix(0.9721 -0.2346 0.2346 0.9721 -351.3666 110.8791)" class="st9" cx="290.3" cy="1532.1" rx="4.1" ry="4.1"/>
		
			<ellipse transform="matrix(0.9721 -0.2346 0.2346 0.9721 -400.2348 82.4255)" class="st8" cx="146.3" cy="1723.2" rx="4.1" ry="4.1"/>
		
			<ellipse transform="matrix(0.9721 -0.2346 0.2346 0.9721 -492.2834 144.9334)" class="st9" cx="362.9" cy="2141.3" rx="4.1" ry="4.1"/>
		<circle class="st8" cx="128.8" cy="2868.1" r="6.2"/>
		
			<ellipse transform="matrix(0.9721 -0.2346 0.2346 0.9721 -410.6464 419.2044)" class="st8" cx="1556.4" cy="1935.3" rx="8.1" ry="8.1"/>
		
			<ellipse transform="matrix(0.9721 -0.2346 0.2346 0.9721 -361.8481 411.969)" class="st8" cx="1550.4" cy="1726.6" rx="4.1" ry="4.1"/>
		
			<ellipse transform="matrix(0.9721 -0.2346 0.2346 0.9721 -507.1872 438.2404)" class="st9" cx="1588.1" cy="2350.6" rx="4.1" ry="4.1"/>
		<circle class="st8" cx="651.3" cy="1949.2" r="6.2"/>
		<circle class="st9" cx="972.1" cy="1487.2" r="6.2"/>
		
			<ellipse transform="matrix(0.9721 -0.2346 0.2346 0.9721 -421.6079 298.3733)" class="st8" cx="1043.1" cy="1921" rx="4.1" ry="4.1"/>
		<path class="st17" d="M322.6,2419.7h10.8c-0.1,0.1-0.1,0.3-0.1,0.4c-1.6,9.7-2.7,19.5-3.2,29.3c-0.3,6.8-0.4,13.7-0.6,20.5
			c0,1.1-0.4,2.1-1.1,2.9c-2.7,3.3-5.4,6.6-8,9.9c-4.7,6.1-9.3,12.4-12.5,19.4c-1.8,3.9-3.1,8.1-5.1,11.9c-6.8,12.9-15.9,24.5-27,34
			c-4.2,3.9-9.2,6.8-14.6,8.6c-4.3,1.3-8.6,1.6-12.8-0.2c-3.6-1.6-7.5-2.8-11.4-3.4c-10.1-1.3-18.3,1.8-24,10.6
			c-0.4,0.5-0.8,1-1.3,1.4c-5.1,3.9-9.2,8.6-11.1,14.9c-1.6,5.3-4.5,10.1-8.4,14.1c-2,2.3-4.7,4-7.7,4.6c-1.3,0.2-2.6,0.6-3.8,1.2
			c-3.3,1.7-6.2,4-7.5,7.6c-1.1,2.9-3.2,5.3-5.9,6.6c-4.9,2.7-10.2,3.1-15.7,2.7c-1.3-0.1-2.7-0.3-4.1-0.4
			c-1.8,6.1-3.2,12.3-4.1,18.5c-0.7,6.7-2,13.4-3.8,19.9c-3.4,11.2-9.3,20.7-19.6,27c-4.9,3.1-8.8,7.7-11.1,13.1
			c-2.6,5.5-3.5,11.4-4.1,17.4c-0.2,2.4-0.6,4.8-1.2,7.2c-0.4,1.6-1.1,1.8-2.6,1.2c-0.9-0.4-1.4,0-1.7,0.8c-0.3,1.1-0.5,2.2-0.6,3.3
			c-0.1,3.6-0.9,7.1-2.2,10.4c-2.6,6.2-5.8,12-9.5,17.6c-3.7,5.4-9,7.6-15.5,6.9c-6-0.7-10.3-4.1-12.7-9.7c-2-4.6-3.3-9.5-4-14.5
			c-0.4-4.8-1.6-9.6-3.3-14.1c-3.6-8.2-9.3-15.3-16.5-20.5c-4-2.9-7.2-6.6-9.6-10.9c-2.1-3.7-4.7-7.1-7.9-9.9
			c-4.8-4.4-8.8-9.6-11.9-15.4c-1.2-2.4-2.6-4.7-4.2-6.9c-3.2-4.5-6.4-9-9.8-13.3c-3.1-3.9-3.4-7.9-0.9-12.2c0.4-0.6,0.6-1.3,1-1.9
			c2.6-5.1,4.8-10.4,6.5-15.8c1.5-4.1,1.7-8.6,0.7-12.9c-2.1-8-6.9-14.1-13.5-18.9c-1.5-1.1-3.2-1.9-5-2.5c-1.6-0.4-3-1-4.3-2
			c-2.9-2.4-5.8-4.8-8.6-7.2c-6.4-5.6-12.7-11.3-20.4-15.3c-8.3-4.3-15-10.9-21-18.2c-2.1-2.3-3.7-5.1-4.8-8c-0.8-2-0.5-4.3,0.9-6
			c0.9-1.2,1.6-2.6,2.1-4c1.8-5,2.1-10.2,1.9-15.4c-0.1-3.3-0.6-6.6-0.6-9.9c0-3.3,0.3-6.7,0.8-10c1.2-6.1-0.7-12.3-5.1-16.6
			c-2.2-2.1-4.6-4.1-7-6c-0.4-0.2-0.7-0.5-1-0.9c-2.5-3.8-5-7.7-7.6-11.5c-0.2-0.4-0.6-0.7-1-0.9c-2.2-0.6-4.3-1.7-6-3.3
			c-5.5-4.6-10-10.2-14.2-16c-0.1-0.1,0-0.2,0-0.4l39.6,6.8c0.1-1.1-0.5-1.3-1.3-1.6c-12.3-3.4-24.6-6.9-36.9-10.3
			c-0.5-0.1-1-0.3-1.4-0.5c0.4-0.2,0.7-0.2,1.1-0.2l26.4-0.2l35.3-0.2l34.7-0.2l36.5-0.2l33.6-0.2l35.4-0.2l34.7-0.2l35.4-0.2
			l34.7-0.2l39.5-0.2l30.5-0.2l38.5-0.2l21.1-0.1C322,2419.8,322.3,2419.7,322.6,2419.7z"/>
		
			<ellipse transform="matrix(0.9721 -0.2346 0.2346 0.9721 -430.9948 456.023)" class="st8" cx="1700.9" cy="2039.3" rx="3.2" ry="3.2"/>
		<path class="st18" d="M1659.1,1808.7c-1.5,1.1-2.8,2.5-3.8,4c-1.7,2.4-2.9,5.8-1.1,9.5c3.7,7.3,9.8,11,9.8,17.1s14,28.7,19.5,31.8
			s20.2,6.1,22.6,26.3s11.6,23.8,16.5,26.9s3.1,22.6,6.7,26.9s7.9,14,12.2,16.5c3.8,2.5,7.3,5.3,10.6,8.4c4.3,4.1,11,4.2,15.5,0.3
			c6.1-5.3,14-10.2,18.1-4.8c4.4,5.9,9.2,14.7,12.2,20.6c1.9,3.7,5.2,6.4,9.2,7.5c3,0.9,6.2,2.1,7,3.5c1.7,2.9,8.3,30.4,13.8,33.6
			s4.3,14.1,7.2,14.9s4-6.3,7.5-3.4s0,56.2,1.4,60.3s12.6,40.2,13.5,49.1c2.2,1.9,4.5,3.8,6.9,5.4c3.7,2.6,2.3,12.1,5.2,16.6
			s8.3,11.8,14.9,4.9s16.4-70.6,19.8-88.7s43.6-73.5,43.9-85.5s12.1-57.4,12.1-58.8s15.8-9.8,17.8-14.9s4.6-8,8-9.2
			s8.9-4.9,9.8-10.3s6.3-24.1,21.8-31.8s36.7-53.4,23.8-63.7s-26.1-14.7-28.4-16.4c-0.4-0.3-4.4,1-5.9,0.3
			c-7.8-3.2-28.2,1.1-37.9-1.6C1957.9,1800.4,1659.1,1808.7,1659.1,1808.7z"/>
		<path class="st19" d="M1862.4,1827.5l-203.3-18.8c-1.5,1.1-2.8,2.5-3.8,4c-1.7,2.4-2.9,5.8-1.1,9.5c3.7,7.3,9.8,11,9.8,17.1
			s14,28.7,19.5,31.8s20.2,6.1,22.6,26.3s11.6,23.8,16.5,26.9s3.1,22.6,6.7,26.9s7.9,14,12.2,16.5c3.8,2.5,7.3,5.3,10.6,8.4
			c4.3,4.1,11,4.2,15.5,0.3c0,0,7.3-13.9,13.9-12.8s15.1-15.7,16.4-32.8s20-20.5,21.7-28.6s4.6-19.1,11.4-26s15.8-22.2,15.8-22.2
			s19.8-11.4,21.1-16.5s4.3-7.7,1-9.3C1860.6,1823.9,1862.4,1827.5,1862.4,1827.5z"/>
		<path class="st20" d="M2013,1804.8c0,0-31.4,8.3-37.6,8.3h-37.9c0,0-99.9-5.2-70,14.3c7.9,5.2-87.1,1.2-112.5,0.1
			c-4-0.2-8.1-0.6-12.1-1.2l-34.3-5c-1.6-0.2-3.2-0.4-4.8-0.6c-2.1-0.2-4.1-0.6-6.2-1l-17.2-3.6c-7.4-1.6-14.5-4.1-21.3-7.4l0,0
			l316.9-8L2013,1804.8z"/>
		<path class="st21" d="M1772.5,1997.3c0,0-15.9,0-14.2,17.5s17.5,27.6,21.7,19.2s-6.7-17.5-3.3-22.5S1772.5,1997.3,1772.5,1997.3z"
			/>
		<path class="st22" d="M1793.3,2015.4c0,0-3.5-4.9-6.1,0c0,0-1.7,5.8,0.6,5.8S1793.9,2017.4,1793.3,2015.4z"/>
		<path class="st23" d="M333.2,2420.7L333.2,2420.7c0,0-3.6,18.5-3.8,45.4c0,0,0,5-0.1,6.2c-0.1,1.1-17.7,19.7-23,34.2
			c-2.3,6.4-5.4,12.4-9.2,18c-10.8,15.4-30.9,39.3-48.6,32.8l0,0c0,0-24-12.5-36.1,7.9l0,0c0,0-9,5.8-12,15.7
			c-0.8,2.7-1.9,5.2-3.3,7.5c-3,4.7-8.2,11.3-14,11l0,0c0,0-8.1,2.8-10.2,9.4s-17.8,15.3-44.7,1.1l0,0c0,0-1.3-13.1-28.1-22.9
			s-17.3-13.1-32.8-23.9s-47.8-25.3-83-37.7s-60.5-90.5-60.5-90.5l0,0l-40.1-11.2l0,0L333.2,2420.7z"/>
		<path class="st24" d="M-109.3,2434.5c-6.8-1.8-9.8-9-5.9-14.3c11.2-15.2,63.2-39.5,254.2-37.9c0,0,194.2,2.2,194.2,38.4
			c0,0-11.1,7.8-88.3,4.1c-66.6-3.2-84.3-2.1-91.6,0c0,0-17,4.3,11.5,14.4c0,0,12.3,6.4-3.1,8.5
			C147,2449.6-37.5,2453.6-109.3,2434.5z"/>
		<path class="st25" d="M226.4,2580.2c0,0-10.5,7.7-9.9,14.9s3.9,16,8.3,12.7s2.2-2.2,2.8-7.2s16-11,11.6-14.4
			S233,2578,226.4,2580.2z"/>
		<circle class="st8" cx="1317.9" cy="2131.4" r="6.2"/>
		
			<ellipse transform="matrix(0.9721 -0.2346 0.2346 0.9721 -622.4933 518.4697)" class="st8" cx="1867.6" cy="2875.3" rx="8.1" ry="8.1"/>
		
			<ellipse transform="matrix(0.9721 -0.2346 0.2346 0.9721 -635.2493 165.213)" class="st8" cx="376.7" cy="2752.2" rx="4.1" ry="4.1"/>
		
			<ellipse transform="matrix(0.9721 -0.2346 0.2346 0.9721 -693.5079 478.2539)" class="st9" cx="1663.1" cy="3153.6" rx="4.1" ry="4.1"/>
		<path class="st26" d="M168.6,1845.8h-0.3c-1.1,0-2-0.9-2-2s0.9-2,2-2l1,0c0,0,0,0,0,0c1.1,0,2,0.9,2,2c0,1.1-0.9,2-2,2
			L168.6,1845.8z M189.2,1844.3c-1,0-1.8-0.7-2-1.7c-0.1-1.1,0.6-2.1,1.7-2.3l1-0.1c1.1-0.2,2.1,0.6,2.3,1.7
			c0.2,1.1-0.6,2.1-1.7,2.3l-1,0.1C189.4,1844.3,189.3,1844.3,189.2,1844.3z M148.3,1844.3c-0.1,0-0.2,0-0.3,0l-1-0.2
			c-1.1-0.2-1.8-1.2-1.7-2.3c0.2-1.1,1.2-1.8,2.3-1.7l1,0.2c1.1,0.2,1.8,1.2,1.7,2.3C150.2,1843.6,149.3,1844.3,148.3,1844.3z
			 M209.8,1840.2c-0.9,0-1.7-0.6-1.9-1.5c-0.3-1.1,0.3-2.2,1.4-2.5l1-0.3c1.1-0.3,2.2,0.3,2.5,1.4c0.3,1.1-0.3,2.2-1.4,2.5l-1,0.3
			C210.1,1840.1,209.9,1840.2,209.8,1840.2z M128,1839.3c-0.2,0-0.4,0-0.6-0.1l-1-0.3c-1-0.4-1.6-1.5-1.2-2.6c0.4-1,1.5-1.6,2.6-1.2
			l0.9,0.3c1,0.4,1.6,1.5,1.2,2.5C129.6,1838.8,128.8,1839.3,128,1839.3z M229.6,1833.3c-0.8,0-1.5-0.5-1.8-1.2
			c-0.4-1,0-2.2,1.1-2.6l0.9-0.4c1-0.4,2.2,0,2.6,1c0.4,1,0,2.2-1,2.6l-0.9,0.4C230.1,1833.3,229.9,1833.3,229.6,1833.3z
			 M108.9,1830.6c-0.3,0-0.7-0.1-1-0.3l-0.9-0.5c-0.9-0.6-1.2-1.8-0.7-2.7c0.6-0.9,1.8-1.2,2.7-0.7l0.8,0.5c1,0.6,1.3,1.8,0.7,2.7
			C110.3,1830.2,109.6,1830.6,108.9,1830.6z M248.3,1823.9c-0.7,0-1.3-0.3-1.7-1c-0.6-0.9-0.3-2.2,0.7-2.7l0.8-0.5
			c0.9-0.6,2.2-0.3,2.7,0.7c0.6,0.9,0.3,2.2-0.7,2.7l-0.9,0.5C249,1823.8,248.7,1823.9,248.3,1823.9z M92.1,1818
			c-0.5,0-1-0.2-1.4-0.5l-0.7-0.7c-0.8-0.8-0.8-2-0.1-2.8c0.8-0.8,2-0.8,2.8-0.1l0.7,0.7c0.8,0.8,0.8,2,0.1,2.8
			C93.2,1817.8,92.7,1818,92.1,1818z M265.5,1811.9c-0.6,0-1.2-0.3-1.6-0.7c-0.7-0.9-0.6-2.1,0.3-2.8l0.8-0.6
			c0.9-0.7,2.1-0.6,2.8,0.3c0.7,0.9,0.6,2.1-0.3,2.8l-0.8,0.6C266.4,1811.7,266,1811.9,265.5,1811.9z M78.5,1802.1
			c-0.6,0-1.3-0.3-1.7-0.9c-0.2-0.3-0.4-0.6-0.6-0.8c-0.6-0.9-0.4-2.2,0.5-2.8c0.9-0.6,2.2-0.4,2.8,0.5c0.2,0.3,0.4,0.5,0.5,0.8
			c0.6,0.9,0.4,2.2-0.5,2.8C79.3,1802,78.9,1802.1,78.5,1802.1z M280.8,1797.5c-0.5,0-1-0.2-1.4-0.5c-0.8-0.7-0.9-2-0.1-2.8l0.7-0.7
			c0.7-0.8,2-0.9,2.8-0.1c0.8,0.7,0.9,2,0.1,2.8l-0.7,0.8C281.9,1797.3,281.4,1797.5,280.8,1797.5z M68.5,1783.7
			c-0.8,0-1.5-0.5-1.8-1.2c-0.1-0.3-0.3-0.6-0.4-0.9c-0.4-1,0.1-2.2,1.1-2.6c1-0.4,2.2,0.1,2.6,1.1l0.4,0.9c0.4,1-0.1,2.2-1.1,2.6
			C69.1,1783.6,68.8,1783.7,68.5,1783.7z M293.8,1781.1c-0.4,0-0.8-0.1-1.1-0.3c-0.9-0.6-1.2-1.9-0.5-2.8l0.5-0.8
			c0.6-0.9,1.9-1.2,2.8-0.6c0.9,0.6,1.2,1.8,0.6,2.8l-0.6,0.8C295.1,1780.8,294.5,1781.1,293.8,1781.1z M198.9,1772.5
			c-0.9,0-1.7-0.6-1.9-1.6c-0.2-1.1,0.4-2.1,1.5-2.4c0.3-0.1,0.6-0.1,0.9-0.2c1.1-0.3,2.2,0.4,2.4,1.4c0.3,1.1-0.4,2.2-1.4,2.4
			c-0.3,0.1-0.7,0.2-1,0.2C199.2,1772.5,199,1772.5,198.9,1772.5z M179,1772.1c-0.2,0-0.3,0-0.5-0.1c-0.3-0.1-0.7-0.2-1-0.2
			c-1.1-0.3-1.7-1.4-1.5-2.4c0.3-1.1,1.4-1.7,2.4-1.5c0.3,0.1,0.6,0.2,0.9,0.2c1.1,0.3,1.7,1.3,1.5,2.4
			C180.8,1771.5,180,1772.1,179,1772.1z M62.3,1763.7c-0.9,0-1.7-0.6-2-1.6l-0.2-1c-0.2-1.1,0.5-2.1,1.5-2.4
			c1.1-0.2,2.1,0.5,2.4,1.5l0.2,1c0.2,1.1-0.4,2.1-1.5,2.4C62.6,1763.7,62.4,1763.7,62.3,1763.7z M304.1,1762.8
			c-0.3,0-0.6-0.1-0.8-0.2c-1-0.5-1.4-1.6-1-2.7l0.4-0.9c0.5-1,1.6-1.5,2.6-1c1,0.5,1.5,1.6,1,2.6l-0.4,0.9
			C305.6,1762.3,304.9,1762.8,304.1,1762.8z M216.8,1762.2c-0.5,0-1-0.2-1.4-0.6c-0.8-0.8-0.8-2-0.1-2.8c0.2-0.2,0.4-0.5,0.6-0.7
			c0.7-0.8,2-0.9,2.8-0.1c0.8,0.7,0.9,2,0.1,2.8c-0.2,0.3-0.5,0.5-0.7,0.8C217.8,1762,217.3,1762.2,216.8,1762.2z M227.4,1744.3
			c-0.2,0-0.4,0-0.7-0.1c-1-0.4-1.6-1.5-1.2-2.5c0.1-0.3,0.2-0.6,0.3-0.9c0.3-1,1.5-1.6,2.5-1.3c1,0.3,1.6,1.5,1.3,2.5
			c-0.1,0.3-0.2,0.7-0.3,1C229,1743.8,228.2,1744.3,227.4,1744.3z M311.2,1743c-0.2,0-0.3,0-0.5-0.1c-1.1-0.3-1.7-1.4-1.4-2.4l0.2-1
			c0.3-1.1,1.4-1.7,2.4-1.4c1.1,0.3,1.7,1.4,1.4,2.4l-0.3,1C312.9,1742.4,312.1,1743,311.2,1743z M59.7,1742.9c-1.1,0-2-0.9-2-2
			c0-0.3,0-0.7,0-1c0-1.1,0.9-2,2-2c0,0,0,0,0,0c1.1,0,2,0.9,2,2c0,0.3,0,0.7,0,1C61.8,1742,60.9,1742.9,59.7,1742.9
			C59.8,1742.9,59.8,1742.9,59.7,1742.9z M231,1723.7C230.9,1723.7,230.9,1723.7,231,1723.7c-1.2,0-2-0.9-2-2.1c0-0.3,0-0.6,0-1
			c0-1.1,0.9-2,2-2c0,0,0,0,0,0c1.1,0,2,0.9,2,2c0,0.3,0,0.7,0,1C232.9,1722.8,232,1723.7,231,1723.7z M314.7,1722.3
			c-0.1,0-0.1,0-0.2,0c-1.1-0.1-1.9-1-1.8-2.1l0.1-1c0.1-1.1,1-1.9,2.1-1.9c1.1,0.1,1.9,1,1.9,2.1l-0.1,1
			C316.6,1721.5,315.7,1722.3,314.7,1722.3z M61.7,1722c-0.1,0-0.3,0-0.4,0c-1.1-0.2-1.8-1.3-1.6-2.4c0.1-0.3,0.1-0.7,0.2-1
			c0.2-1.1,1.3-1.8,2.4-1.5c1.1,0.2,1.8,1.3,1.5,2.4c-0.1,0.3-0.1,0.6-0.2,1C63.4,1721.4,62.6,1722,61.7,1722z M228.6,1702.9
			c-0.9,0-1.7-0.6-1.9-1.5c-0.1-0.3-0.2-0.6-0.2-0.9c-0.3-1.1,0.3-2.2,1.4-2.5c1.1-0.3,2.2,0.3,2.5,1.4c0.1,0.3,0.2,0.7,0.3,1
			c0.3,1.1-0.4,2.2-1.4,2.4C228.9,1702.9,228.8,1702.9,228.6,1702.9z M68,1702.1c-0.3,0-0.5-0.1-0.8-0.2c-1-0.4-1.5-1.6-1-2.6
			c0.1-0.3,0.3-0.6,0.4-0.9c0.5-1,1.6-1.4,2.6-1c1,0.5,1.4,1.6,1,2.6c-0.1,0.3-0.3,0.6-0.4,0.9C69.5,1701.6,68.8,1702.1,68,1702.1z
			 M314.3,1701.4c-1,0-1.9-0.8-2-1.8l-0.1-1c-0.1-1.1,0.7-2.1,1.7-2.2c1.1-0.1,2.1,0.7,2.2,1.7l0.1,1c0.1,1.1-0.7,2.1-1.8,2.2
			C314.5,1701.4,314.4,1701.4,314.3,1701.4z M78.5,1683.9c-0.4,0-0.8-0.1-1.2-0.4c-0.9-0.7-1.1-1.9-0.4-2.8c0.2-0.3,0.4-0.5,0.6-0.8
			c0.7-0.9,1.9-1.1,2.8-0.4c0.9,0.7,1.1,1.9,0.4,2.8c-0.2,0.3-0.4,0.5-0.6,0.8C79.8,1683.7,79.2,1683.9,78.5,1683.9z M220.7,1683.5
			c-0.7,0-1.4-0.4-1.7-1c-0.2-0.3-0.3-0.6-0.5-0.8c-0.6-1-0.3-2.2,0.7-2.7c1-0.6,2.2-0.3,2.7,0.7c0.2,0.3,0.3,0.6,0.5,0.9
			c0.6,1,0.2,2.2-0.7,2.7C221.4,1683.4,221.1,1683.5,220.7,1683.5z M310.1,1680.8c-0.9,0-1.7-0.6-1.9-1.5l-0.3-1
			c-0.3-1.1,0.3-2.2,1.4-2.5c1.1-0.3,2.2,0.3,2.5,1.4l0.3,1c0.3,1.1-0.3,2.2-1.4,2.5C310.5,1680.8,310.3,1680.8,310.1,1680.8z
			 M92.7,1668.5c-0.6,0-1.1-0.2-1.5-0.7c-0.7-0.8-0.7-2.1,0.2-2.8c0.3-0.2,0.5-0.5,0.8-0.7c0.8-0.7,2.1-0.6,2.8,0.2
			c0.7,0.8,0.6,2.1-0.2,2.8c-0.2,0.2-0.5,0.4-0.7,0.6C93.6,1668.3,93.2,1668.5,92.7,1668.5z M207.9,1666.9c-0.5,0-1-0.2-1.4-0.6
			c-0.2-0.2-0.5-0.5-0.7-0.7c-0.8-0.8-0.8-2-0.1-2.8c0.8-0.8,2-0.8,2.8-0.1c0.2,0.2,0.5,0.5,0.7,0.7c0.8,0.8,0.8,2,0,2.8
			C208.9,1666.7,208.4,1666.9,207.9,1666.9z M303.3,1661c-0.8,0-1.5-0.5-1.9-1.2l-0.4-0.9c-0.4-1,0.1-2.2,1.1-2.6
			c1-0.4,2.2,0.1,2.6,1.1l0.4,0.9c0.4,1-0.1,2.2-1.1,2.6C303.8,1660.9,303.6,1661,303.3,1661z M109.8,1656.4c-0.7,0-1.4-0.4-1.8-1
			c-0.5-1-0.2-2.2,0.8-2.7c0.3-0.2,0.6-0.3,0.9-0.5c1-0.5,2.2-0.2,2.7,0.8s0.2,2.2-0.8,2.7l-0.9,0.5
			C110.5,1656.3,110.2,1656.4,109.8,1656.4z M191.1,1654.4c-0.3,0-0.7-0.1-1-0.3c-0.3-0.2-0.6-0.3-0.9-0.5c-1-0.5-1.3-1.7-0.8-2.7
			c0.5-1,1.7-1.3,2.7-0.8c0.3,0.2,0.6,0.3,0.9,0.5c1,0.5,1.3,1.8,0.8,2.7C192.5,1654,191.8,1654.4,191.1,1654.4z M129.2,1648.4
			c-0.9,0-1.7-0.6-1.9-1.4c-0.3-1.1,0.3-2.2,1.4-2.5c0.3-0.1,0.7-0.2,1-0.3c1.1-0.3,2.2,0.3,2.5,1.4c0.3,1.1-0.3,2.2-1.4,2.5
			c-0.3,0.1-0.6,0.2-0.9,0.3C129.6,1648.3,129.4,1648.4,129.2,1648.4z M171.6,1646.8c-0.2,0-0.3,0-0.5-0.1c-0.3-0.1-0.6-0.1-0.9-0.2
			c-1.1-0.2-1.8-1.3-1.5-2.4c0.2-1.1,1.3-1.8,2.4-1.5c0.3,0.1,0.7,0.2,1,0.2c1.1,0.3,1.7,1.3,1.5,2.4
			C173.4,1646.2,172.5,1646.8,171.6,1646.8z M149.8,1644.7c-1.1,0-1.9-0.8-2-1.9c-0.1-1.1,0.8-2,1.9-2.1c0.3,0,0.7,0,1,0
			c1.1,0,2,0.8,2.1,1.9c0,1.1-0.8,2-1.9,2.1C150.6,1644.7,150.2,1644.7,149.8,1644.7C149.9,1644.7,149.8,1644.7,149.8,1644.7z
			 M294.2,1642.1c-0.7,0-1.4-0.4-1.7-1l-0.5-0.9c-0.5-1-0.2-2.2,0.7-2.7c1-0.5,2.2-0.2,2.7,0.7l0.5,0.9c0.5,1,0.2,2.2-0.8,2.7
			C294.9,1642,294.5,1642.1,294.2,1642.1z M282.6,1624.6c-0.6,0-1.2-0.3-1.6-0.8l-0.6-0.8c-0.7-0.9-0.5-2.1,0.4-2.8s2.1-0.5,2.8,0.4
			l0.6,0.8c0.7,0.9,0.5,2.1-0.4,2.8C283.5,1624.5,283.1,1624.6,282.6,1624.6z M-9.8,1614.4c0,0-0.1,0-0.1,0l-1-0.1
			c-1.1-0.1-1.9-1-1.9-2.1s1-1.9,2.1-1.9l1,0.1c1.1,0.1,1.9,1,1.9,2.1C-7.8,1613.6-8.7,1614.4-9.8,1614.4z M10.2,1614.1
			c-1,0-1.9-0.8-2-1.8c-0.1-1.1,0.7-2.1,1.8-2.2l1-0.1c1.1-0.1,2.1,0.7,2.2,1.8c0.1,1.1-0.7,2.1-1.8,2.2l-1,0.1
			C10.3,1614.1,10.3,1614.1,10.2,1614.1z M-30.5,1611.4c-0.1,0-0.3,0-0.4,0l-1-0.2c-1.1-0.3-1.7-1.3-1.5-2.4
			c0.3-1.1,1.3-1.7,2.4-1.5l1,0.2c1.1,0.2,1.8,1.3,1.5,2.4C-28.8,1610.8-29.6,1611.4-30.5,1611.4z M31,1611.1c-0.9,0-1.8-0.7-2-1.6
			c-0.2-1.1,0.5-2.1,1.6-2.4l1-0.2c1.1-0.2,2.1,0.5,2.4,1.6c0.2,1.1-0.5,2.1-1.6,2.4l-1,0.2C31.3,1611.1,31.1,1611.1,31,1611.1z
			 M268.7,1608.9c-0.5,0-1-0.2-1.4-0.6l-0.7-0.7c-0.8-0.8-0.8-2-0.1-2.8c0.8-0.8,2-0.8,2.8-0.1l0.7,0.7c0.8,0.8,0.8,2,0.1,2.8
			C269.7,1608.7,269.2,1608.9,268.7,1608.9z M51.4,1606.2c-0.9,0-1.7-0.6-1.9-1.5c-0.3-1.1,0.3-2.2,1.4-2.5l1-0.3
			c1.1-0.3,2.2,0.3,2.5,1.4c0.3,1.1-0.3,2.2-1.4,2.5l-1,0.3C51.8,1606.2,51.6,1606.2,51.4,1606.2z M-50.6,1605.2
			c-0.2,0-0.5,0-0.7-0.1l-0.9-0.4c-1-0.4-1.5-1.6-1.1-2.6c0.4-1,1.6-1.5,2.6-1.1l0.9,0.4c1,0.4,1.5,1.6,1.1,2.6
			C-49,1604.7-49.8,1605.2-50.6,1605.2z M71.5,1600.2c-0.8,0-1.6-0.5-1.9-1.4c-0.3-1.1,0.2-2.2,1.3-2.5l0.9-0.3
			c1.1-0.3,2.2,0.2,2.5,1.3c0.3,1.1-0.2,2.2-1.3,2.5l-1,0.3C71.9,1600.1,71.7,1600.2,71.5,1600.2z M-69.5,1596.2
			c-0.3,0-0.7-0.1-1-0.3l-0.9-0.5c-1-0.5-1.3-1.8-0.8-2.7c0.5-1,1.8-1.3,2.7-0.8l0.9,0.5c1,0.5,1.3,1.8,0.8,2.7
			C-68.1,1595.9-68.8,1596.2-69.5,1596.2z M252.5,1595.6c-0.4,0-0.8-0.1-1.1-0.4l-0.8-0.6c-0.9-0.6-1.1-1.9-0.5-2.8
			c0.6-0.9,1.9-1.1,2.8-0.5l0.8,0.6c0.9,0.6,1.1,1.9,0.5,2.8C253.8,1595.3,253.1,1595.6,252.5,1595.6z M91.5,1593.5
			c-0.8,0-1.6-0.5-1.9-1.4c-0.4-1,0.2-2.2,1.2-2.5l0.9-0.3c1-0.4,2.2,0.2,2.5,1.2s-0.2,2.2-1.2,2.5l-0.9,0.3
			C91.9,1593.4,91.7,1593.5,91.5,1593.5z M111.3,1586.7c-0.8,0-1.6-0.5-1.9-1.4c-0.4-1,0.2-2.2,1.3-2.5l1-0.3c1-0.4,2.2,0.2,2.5,1.3
			c0.4,1-0.2,2.2-1.3,2.5l-0.9,0.3C111.8,1586.7,111.5,1586.7,111.3,1586.7z M-87.3,1585.1c-0.4,0-0.8-0.1-1.1-0.4l-0.8-0.6
			c-0.9-0.6-1.1-1.9-0.5-2.8c0.6-0.9,1.9-1.1,2.8-0.5l0.8,0.6c0.9,0.6,1.1,1.9,0.5,2.8C-86,1584.8-86.6,1585.1-87.3,1585.1z
			 M234.4,1585c-0.3,0-0.6-0.1-0.9-0.2l-0.9-0.4c-1-0.5-1.4-1.7-1-2.7s1.7-1.4,2.7-1l0.9,0.4c1,0.5,1.4,1.7,0.9,2.7
			C235.9,1584.6,235.2,1585,234.4,1585z M131.4,1580.3c-0.9,0-1.7-0.6-1.9-1.4c-0.3-1.1,0.3-2.2,1.4-2.5l1-0.3
			c1.1-0.3,2.2,0.3,2.5,1.4s-0.3,2.2-1.4,2.5l-1,0.3C131.7,1580.3,131.5,1580.3,131.4,1580.3z M214.9,1577.4c-0.2,0-0.4,0-0.6-0.1
			l-0.9-0.3c-1.1-0.3-1.7-1.4-1.4-2.5s1.4-1.7,2.5-1.4l1,0.3c1.1,0.3,1.7,1.4,1.3,2.5C216.5,1576.8,215.7,1577.4,214.9,1577.4z
			 M151.7,1575.1c-0.9,0-1.8-0.6-2-1.6c-0.2-1.1,0.5-2.1,1.5-2.4l1-0.2c1.1-0.2,2.1,0.5,2.4,1.6s-0.5,2.1-1.6,2.4l-1,0.2
			C152,1575.1,151.8,1575.1,151.7,1575.1z M194.4,1572.9c-0.1,0-0.2,0-0.3,0l-1-0.1c-1.1-0.1-1.9-1.1-1.7-2.2s1.1-1.9,2.2-1.7l1,0.1
			c1.1,0.2,1.9,1.2,1.7,2.3C196.2,1572.2,195.4,1572.9,194.4,1572.9z M-103.9,1572.3c-0.5,0-0.9-0.2-1.3-0.5l-0.8-0.6
			c-0.8-0.7-1-2-0.2-2.8c0.7-0.8,2-1,2.8-0.2l0.8,0.6c0.8,0.7,1,2,0.3,2.8C-102.8,1572-103.3,1572.3-103.9,1572.3z M172.5,1572.1
			c-1,0-1.9-0.8-2-1.9c-0.1-1.1,0.8-2.1,1.9-2.1l1-0.1c1.1-0.1,2.1,0.8,2.1,1.9c0.1,1.1-0.8,2.1-1.9,2.1l-1,0.1
			C172.5,1572.1,172.5,1572.1,172.5,1572.1z M-119.6,1558.3c-0.5,0-1-0.2-1.4-0.5l-0.7-0.7c-0.8-0.8-0.8-2-0.1-2.8
			c0.8-0.8,2-0.8,2.8-0.1l0.7,0.7c0.8,0.8,0.8,2,0.1,2.8C-118.5,1558.1-119.1,1558.3-119.6,1558.3z"/>
		<g class="st14">
			<path class="st15" d="M1677.5,2493.9c-1,0-1.9-0.8-2-1.8c-0.1-1.1,0.7-2.1,1.8-2.2l0.5,0c1.1-0.1,2.1,0.7,2.2,1.8
				s-0.7,2.1-1.8,2.2l-0.5,0C1677.6,2493.9,1677.6,2493.9,1677.5,2493.9z"/>
			<path class="st15" d="M1681,2581c-0.1,0-0.2,0-0.3,0c-0.3,0-0.7-0.1-1-0.2c-1.1-0.2-1.8-1.2-1.7-2.3c0.2-1.1,1.2-1.8,2.3-1.7
				c0.3,0.1,0.6,0.1,1,0.1c1.1,0.2,1.9,1.2,1.7,2.3C1682.8,2580.3,1682,2581,1681,2581z M1700.8,2580.7c-0.9,0-1.8-0.7-2-1.6
				c-0.2-1.1,0.5-2.1,1.6-2.3c0.3-0.1,0.6-0.1,1-0.2c1.1-0.2,2.1,0.5,2.3,1.6c0.2,1.1-0.5,2.1-1.6,2.3c-0.3,0.1-0.7,0.1-1,0.2
				C1701.1,2580.7,1701,2580.7,1700.8,2580.7z M1721.1,2575.3c-0.8,0-1.6-0.5-1.9-1.4c-0.4-1,0.2-2.2,1.3-2.5l0.9-0.3
				c1-0.4,2.2,0.2,2.5,1.3c0.4,1-0.2,2.2-1.3,2.5l-0.9,0.3C1721.5,2575.3,1721.3,2575.3,1721.1,2575.3z M1661.1,2574.7
				c-0.3,0-0.6-0.1-0.9-0.2c-0.3-0.2-0.6-0.3-0.9-0.5c-1-0.5-1.3-1.7-0.8-2.7c0.5-1,1.7-1.4,2.7-0.8c0.3,0.2,0.6,0.3,0.9,0.4
				c1,0.5,1.4,1.7,0.9,2.7C1662.5,2574.3,1661.8,2574.7,1661.1,2574.7z M1740.6,2567.6c-0.8,0-1.5-0.4-1.8-1.2c-0.5-1,0-2.2,1-2.6
				l0.9-0.4c1-0.5,2.2,0,2.6,1c0.5,1,0,2.2-1,2.6l-0.9,0.4C1741.1,2567.6,1740.9,2567.6,1740.6,2567.6z M1644.3,2562.4
				c-0.5,0-1-0.2-1.4-0.6c-0.2-0.2-0.5-0.5-0.7-0.7c-0.8-0.8-0.7-2.1,0.1-2.8c0.8-0.8,2.1-0.7,2.8,0.1c0.2,0.2,0.4,0.5,0.7,0.7
				c0.8,0.8,0.8,2.1,0,2.8C1645.3,2562.2,1644.8,2562.4,1644.3,2562.4z M1759.4,2558.3c-0.7,0-1.4-0.4-1.8-1c-0.5-1-0.2-2.2,0.8-2.7
				l0.9-0.5c1-0.5,2.2-0.2,2.7,0.8c0.5,1,0.2,2.2-0.8,2.7l-0.9,0.5C1760,2558.2,1759.7,2558.3,1759.4,2558.3z M1777.4,2547.6
				c-0.7,0-1.3-0.3-1.7-0.9c-0.6-0.9-0.3-2.2,0.6-2.8l0.8-0.5c0.9-0.6,2.2-0.3,2.8,0.6c0.6,0.9,0.3,2.2-0.6,2.8l-0.9,0.5
				C1778.1,2547.5,1777.8,2547.6,1777.4,2547.6z M1632.3,2545.3c-0.7,0-1.5-0.4-1.8-1.1c-0.1-0.3-0.3-0.6-0.4-0.9
				c-0.5-1,0-2.2,1-2.7c1-0.5,2.2,0,2.7,1c0.1,0.3,0.3,0.6,0.4,0.9c0.5,1,0.1,2.2-0.9,2.7
				C1632.9,2545.3,1632.6,2545.3,1632.3,2545.3z M1676.8,2539.2c-0.2,0-0.4,0-0.6-0.1c-0.3-0.1-0.7-0.2-1-0.4
				c-1-0.4-1.6-1.5-1.2-2.6c0.4-1,1.6-1.5,2.6-1.2c0.3,0.1,0.6,0.2,0.9,0.3c1,0.3,1.6,1.5,1.3,2.5
				C1678.4,2538.7,1677.6,2539.2,1676.8,2539.2z M1696.3,2538.4c-0.8,0-1.6-0.5-1.9-1.3c-0.4-1,0.1-2.2,1.2-2.6
				c0.3-0.1,0.6-0.2,0.9-0.3c1-0.4,2.2,0.1,2.6,1.1c0.4,1-0.1,2.2-1.1,2.6c-0.3,0.1-0.7,0.3-1,0.4
				C1696.8,2538.4,1696.6,2538.4,1696.3,2538.4z M1794.7,2535.8c-0.6,0-1.2-0.3-1.6-0.8c-0.7-0.9-0.5-2.1,0.4-2.8l0.8-0.6
				c0.9-0.7,2.1-0.5,2.8,0.4c0.7,0.9,0.5,2.1-0.4,2.8l-0.8,0.6C1795.5,2535.7,1795.1,2535.8,1794.7,2535.8z M1661.5,2525.7
				c-0.7,0-1.5-0.4-1.8-1.1c-0.2-0.3-0.3-0.6-0.4-1c-0.4-1,0-2.2,1-2.6c1-0.4,2.2,0,2.6,1c0.1,0.3,0.3,0.6,0.4,0.8
				c0.5,1,0.1,2.2-0.9,2.7C1662.1,2525.6,1661.8,2525.7,1661.5,2525.7z M1712.3,2525.4c-0.4,0-0.7-0.1-1.1-0.3
				c-0.9-0.6-1.2-1.8-0.6-2.8c0.2-0.3,0.3-0.5,0.5-0.8c0.6-0.9,1.8-1.3,2.7-0.7c0.9,0.6,1.3,1.8,0.7,2.7c-0.2,0.3-0.4,0.6-0.6,0.9
				C1713.6,2525,1712.9,2525.4,1712.3,2525.4z M1626.4,2525.3c-1,0-1.9-0.7-2-1.8c0-0.3-0.1-0.7-0.1-1c-0.1-1.1,0.7-2.1,1.8-2.2
				c1.1-0.1,2.1,0.7,2.2,1.8c0,0.3,0.1,0.6,0.1,1c0.1,1.1-0.6,2.1-1.7,2.2C1626.6,2525.3,1626.5,2525.3,1626.4,2525.3z M1811.3,2523
				c-0.6,0-1.2-0.3-1.6-0.7c-0.7-0.9-0.6-2.1,0.3-2.8l0.8-0.6c0.9-0.7,2.1-0.6,2.8,0.3c0.7,0.9,0.6,2.1-0.3,2.8l-0.8,0.6
				C1812.2,2522.9,1811.7,2523,1811.3,2523z M1827.2,2509.4c-0.5,0-1.1-0.2-1.5-0.7c-0.7-0.8-0.7-2.1,0.1-2.8l0.7-0.7
				c0.8-0.7,2.1-0.7,2.8,0.1c0.7,0.8,0.7,2.1-0.1,2.8l-0.7,0.7C1828.1,2509.2,1827.6,2509.4,1827.2,2509.4z M1661.1,2505.4
				c-0.3,0-0.6-0.1-0.9-0.2c-1-0.5-1.4-1.7-0.9-2.7c0.2-0.3,0.3-0.6,0.5-1c0.5-1,1.8-1.3,2.7-0.8c1,0.5,1.3,1.8,0.8,2.7
				c-0.1,0.3-0.3,0.5-0.4,0.8C1662.5,2505,1661.8,2505.4,1661.1,2505.4z M1717.3,2505.4c-1,0-1.9-0.8-2-1.9l-0.1-0.9
				c-0.1-1.1,0.7-2.1,1.8-2.2c1.1-0.1,2.1,0.7,2.2,1.8l0.1,1c0.1,1.1-0.7,2.1-1.8,2.1C1717.4,2505.4,1717.4,2505.4,1717.3,2505.4z
				 M1628,2504.5c-0.2,0-0.4,0-0.6-0.1c-1.1-0.3-1.7-1.4-1.4-2.5c0.1-0.3,0.2-0.7,0.3-1c0.3-1.1,1.4-1.7,2.5-1.3
				c1.1,0.3,1.6,1.4,1.3,2.5c-0.1,0.3-0.2,0.6-0.3,0.9C1629.7,2504,1628.9,2504.5,1628,2504.5z M1842.3,2494.7
				c-0.5,0-1.1-0.2-1.5-0.6c-0.7-0.8-0.7-2.1,0.1-2.8l0.7-0.7c0.8-0.7,2.1-0.7,2.8,0.1c0.7,0.8,0.7,2.1-0.1,2.8l-0.7,0.7
				C1843.2,2494.5,1842.8,2494.7,1842.3,2494.7z M1637.7,2486.1c-0.4,0-0.9-0.1-1.3-0.5c-0.9-0.7-1-2-0.3-2.8
				c0.2-0.3,0.4-0.5,0.7-0.8c0.7-0.8,2-0.9,2.8-0.2c0.8,0.7,0.9,2,0.2,2.8c-0.2,0.2-0.4,0.5-0.6,0.7
				C1638.8,2485.9,1638.3,2486.1,1637.7,2486.1z M1710.6,2485.8c-0.6,0-1.3-0.3-1.7-0.9c-0.2-0.3-0.4-0.5-0.5-0.8
				c-0.6-0.9-0.4-2.2,0.5-2.8c0.9-0.6,2.2-0.4,2.8,0.5c0.2,0.3,0.4,0.6,0.6,0.9c0.6,0.9,0.4,2.2-0.6,2.8
				C1711.4,2485.7,1711,2485.8,1710.6,2485.8z M1858.2,2481c-0.6,0-1.2-0.3-1.6-0.7c-0.7-0.9-0.6-2.1,0.3-2.8l0.8-0.6
				c0.9-0.7,2.1-0.6,2.8,0.3c0.7,0.9,0.6,2.1-0.3,2.8l-0.8,0.6C1859,2480.8,1858.6,2481,1858.2,2481z M1653.9,2473
				c-0.7,0-1.4-0.4-1.8-1.1c-0.5-1-0.1-2.2,0.9-2.7c0.3-0.2,0.6-0.3,0.9-0.5c1-0.5,2.2-0.1,2.7,0.9c0.5,1,0.1,2.2-0.9,2.7
				c-0.3,0.1-0.6,0.3-0.9,0.4C1654.5,2473,1654.2,2473,1653.9,2473z M1695.2,2472c-0.3,0-0.6-0.1-0.9-0.2c-0.3-0.1-0.6-0.3-0.9-0.4
				c-1-0.5-1.4-1.7-0.9-2.7c0.5-1,1.7-1.4,2.7-0.9c0.3,0.2,0.6,0.3,0.9,0.5c1,0.5,1.4,1.7,0.9,2.7
				C1696.6,2471.6,1695.9,2472,1695.2,2472z M1874.8,2468.3c-0.6,0-1.2-0.3-1.6-0.8c-0.6-0.9-0.4-2.1,0.5-2.8l0.8-0.6
				c0.9-0.6,2.1-0.4,2.8,0.5c0.6,0.9,0.4,2.1-0.5,2.8l-0.8,0.6C1875.7,2468.1,1875.2,2468.3,1874.8,2468.3z M1673.9,2467.5
				c-1.1,0-1.9-0.8-2-1.9c-0.1-1.1,0.8-2,1.9-2.1c0.3,0,0.7,0,1,0c1.1,0,2,0.8,2.1,1.9s-0.8,2-1.9,2.1c-0.3,0-0.6,0-1,0
				C1674,2467.5,1674,2467.5,1673.9,2467.5z M1892.3,2456.6c-0.7,0-1.3-0.3-1.7-0.9c-0.6-0.9-0.3-2.2,0.7-2.8l0.9-0.5
				c0.9-0.6,2.2-0.3,2.7,0.7c0.6,0.9,0.3,2.2-0.7,2.7l-0.8,0.5C1893,2456.6,1892.7,2456.6,1892.3,2456.6z M1910.6,2446.3
				c-0.7,0-1.4-0.4-1.8-1.1c-0.5-1-0.1-2.2,0.9-2.7l0.9-0.5c1-0.5,2.2-0.1,2.7,0.9c0.5,1,0.1,2.2-0.9,2.7l-0.9,0.5
				C1911.2,2446.3,1910.9,2446.3,1910.6,2446.3z M1929.6,2437.6c-0.8,0-1.5-0.5-1.9-1.3c-0.4-1,0.1-2.2,1.1-2.6l0.9-0.4
				c1-0.4,2.2,0.1,2.6,1.1c0.4,1-0.1,2.2-1.1,2.6l-0.9,0.4C1930.1,2437.6,1929.9,2437.6,1929.6,2437.6z M1949.5,2430.9
				c-0.9,0-1.7-0.6-1.9-1.5c-0.3-1.1,0.3-2.2,1.4-2.5l1-0.3c1.1-0.3,2.2,0.3,2.5,1.4c0.3,1.1-0.3,2.2-1.4,2.5l-0.9,0.3
				C1949.8,2430.8,1949.6,2430.9,1949.5,2430.9z M2012.7,2427.1c-0.1,0-0.2,0-0.4,0l-1-0.2c-1.1-0.2-1.8-1.2-1.6-2.3
				c0.2-1.1,1.2-1.8,2.3-1.6l1,0.2c1.1,0.2,1.8,1.2,1.6,2.3C2014.4,2426.4,2013.6,2427.1,2012.7,2427.1z M1969.9,2426.5
				c-1,0-1.8-0.7-2-1.7c-0.2-1.1,0.6-2.1,1.7-2.3l1-0.1c1.1-0.2,2.1,0.6,2.3,1.7c0.2,1.1-0.6,2.1-1.7,2.3l-1,0.1
				C1970.1,2426.5,1970,2426.5,1969.9,2426.5z M1991.8,2425.1C1991.8,2425.1,1991.8,2425.1,1991.8,2425.1l-1,0c-1.1,0-2-0.9-2-2
				c0-1.1,0.9-2,2-2c0,0,0,0,0,0l1,0c1.1,0,2,0.9,2,2C1993.8,2424.2,1992.9,2425.1,1991.8,2425.1z"/>
		</g>
	</g>
</g>
</svg>
