<svg id="Layer_1" data-name="Layer 1" xmlns="http://www.w3.org/2000/svg" viewBox="0 0 5926.66 7865.97"><defs><style>.cls-1{fill:#f2f5fb;}</style></defs><title>SponsorBlob_Background</title><path class="cls-1" d="M5823.5,5268c-111.68-308.13-611-471.54-684.43-501.18-85.41-34.48-544.46-94.83-245.54-500,70.39-95.42,117.45-160.35,148.25-203.86,111.79-99.07,306.7-245.19,370.34-354.41,85.41-146.56-213.51-336.22-213.51-336.22s-373.64-250-427-396.58S5049.15,2605,5209.29,2536s367.83-215.14,373.64-319c9-161.28-64.05-241.4-366.08-491.41-228.83-189.43-115.25-433.3-46.76-540.37,55.66-87,34.35-202.63-49.1-263.51-37.08-27.05-87.9-53.09-157.24-75.48-320.26-103.46-202.83-344.85-149.46-474.17S4825,104.81,4622.13,70.33,4003,147.92,3789.44,252.82s-747.28,403.75-843.36,300.29-21.35-284.49-224.19-299.83-533.77,360.18-533.77,360.18-149.46,206.91-469.73,293.12S1131.45,706,960.43,544.49c-73.15-69.08-501.75-405.19-715.26-250s56.77,763.83,106.76,836.26c75.17,108.91,395,676.76,395,676.76s117.43,306.05-277.56,366.4c-159.1,24.31-261,72.39-326.06,121.15-95,71.24-132,197.15-91.49,308.77,111.68,308.12,611,471.53,684.43,501.17,85.41,34.48,561.17,107.71,245.54,500-17.28,21.49-32.23,41.92-45,61.37-72,71-389.38,352.47-473.54,496.9-85.41,146.56,213.51,336.23,213.51,336.23s373.64,250,427,396.57S826.16,5266.8,666,5335.77s-367.83,215.14-373.64,319c-9,161.27,64.05,241.39,366.08,491.4,228.83,189.43,115.25,433.3,46.76,540.37-55.66,87-34.35,202.64,49.1,263.51,37.08,27.05,87.9,53.09,157.24,75.49C1231.83,7129,1114.39,7370.37,1061,7499.69s-10.68,267.26,192.16,301.74,619.18-77.59,832.69-182.49,747.28-403.75,843.36-300.29,21.35,284.5,224.19,299.83,533.77-360.18,533.77-360.18,104.53-126.92,388-299.05c102.08-62,200.52-215.11,504.23-127.82,96.7,27.79,616.65,414.25,830.16,259.07s-185-765.32-221.66-845.31c-55.42-120.85-59.57-180.93-59.57-180.93S5011,5758.21,5406,5697.86c159.1-24.3,261-72.39,326.06-121.15C5827,5505.48,5864,5379.56,5823.5,5268Z"/></svg>