<svg id="Layer_1" data-name="Layer 1" xmlns="http://www.w3.org/2000/svg" viewBox="0 0 646.59 472.97"><defs><style>.cls-1,.cls-3,.cls-4,.cls-5{fill:#40489e;}.cls-1{opacity:0.62;}.cls-2{fill:#cccf68;}.cls-3{opacity:0.5;}.cls-5{opacity:0.8;}</style></defs><title>Artboard 4</title><path class="cls-1" d="M514.92,101.79h10.8a3.7,3.7,0,0,0-.14.45,247.86,247.86,0,0,0-3.2,29.3c-.34,6.82-.44,13.66-.62,20.49a4.52,4.52,0,0,1-1.09,2.93c-2.7,3.27-5.38,6.55-8,9.89-4.74,6.1-9.26,12.35-12.52,19.4-1.81,3.91-3.12,8.06-5.09,11.88a115.32,115.32,0,0,1-27,34,40.18,40.18,0,0,1-14.57,8.56c-4.28,1.32-8.62,1.6-12.8-.17a44.31,44.31,0,0,0-11.44-3.38c-10.15-1.34-18.34,1.8-24,10.59a5.7,5.7,0,0,1-1.31,1.36c-5.09,3.91-9.16,8.63-11.08,14.85A35.18,35.18,0,0,1,384.5,276a14.15,14.15,0,0,1-7.67,4.62,14.13,14.13,0,0,0-3.83,1.19c-3.31,1.69-6.2,4-7.53,7.55a12,12,0,0,1-5.92,6.62c-4.93,2.67-10.25,3.14-15.72,2.72-1.34-.1-2.68-.29-4.07-.44a125.6,125.6,0,0,0-4.13,18.54,121.32,121.32,0,0,1-3.82,19.86c-3.43,11.25-9.31,20.67-19.62,27a29.06,29.06,0,0,0-11.12,13.06c-2.55,5.53-3.48,11.42-4.1,17.41a56.37,56.37,0,0,1-1.17,7.19c-.38,1.59-1.07,1.81-2.6,1.21-.9-.35-1.44,0-1.65.78a15.73,15.73,0,0,0-.55,3.3,28.88,28.88,0,0,1-2.24,10.36,98.65,98.65,0,0,1-9.53,17.56c-3.67,5.42-9,7.65-15.47,6.87-6-.73-10.31-4.07-12.73-9.66a53.26,53.26,0,0,1-3.95-14.52,52.29,52.29,0,0,0-3.28-14.06,49.72,49.72,0,0,0-16.48-20.5,33.92,33.92,0,0,1-9.62-10.87,38.68,38.68,0,0,0-7.88-9.9,56.83,56.83,0,0,1-11.9-15.38,62.22,62.22,0,0,0-4.17-6.85c-3.18-4.5-6.42-9-9.82-13.32-3.08-3.95-3.45-7.93-.88-12.21.37-.61.64-1.29,1-1.92a105.16,105.16,0,0,0,6.53-15.81,22.48,22.48,0,0,0,.66-12.86c-2.06-8-6.92-14.13-13.5-18.91a16.57,16.57,0,0,0-5-2.47,11.72,11.72,0,0,1-4.3-2c-2.91-2.37-5.8-4.77-8.63-7.24-6.43-5.61-12.68-11.28-20.44-15.3-8.31-4.3-15-10.94-21-18.16a24.48,24.48,0,0,1-4.76-8,6,6,0,0,1,.88-6,15.38,15.38,0,0,0,2.09-4c1.83-5,2.05-10.16,1.88-15.37-.11-3.31-.62-6.62-.59-9.92a63,63,0,0,1,.82-10,18.54,18.54,0,0,0-5.11-16.64,79.63,79.63,0,0,0-7-6,4.62,4.62,0,0,1-1-.86c-2.53-3.83-5-7.68-7.55-11.51a2,2,0,0,0-1-.88A14,14,0,0,1,91,127c-5.52-4.64-10-10.23-14.25-16-.05-.07,0-.2,0-.39l39.58,6.84c.08-1.1-.53-1.34-1.29-1.55Q96.49,110.79,78,105.61c-.49-.14-1-.32-1.44-.48a2.28,2.28,0,0,1,1.14-.22l26.39-.2,35.27-.24,34.67-.24,36.47-.24,33.59-.24,35.39-.24,34.67-.24,35.39-.24,34.67-.24,39.47-.24,30.47-.24,38.51-.24,21.12-.09A7,7,0,0,0,514.92,101.79Z"/><path class="cls-2" d="M119.77,276.51s-6.12-21.23,10.76-8,16.35,32.89,8.51,33.85C132.59,303.13,129.78,300,119.77,276.51Z"/><path class="cls-3" d="M525.54,102.83h0s-3.57,18.48-3.83,45.4c0,0,0,5-.15,6.19-.12,1.07-17.7,19.7-23,34.25a77.75,77.75,0,0,1-9.18,18c-10.76,15.41-30.91,39.34-48.58,32.83h0s-24-12.49-36.13,7.88h0s-9,5.81-12,15.66a30.23,30.23,0,0,1-3.34,7.53c-3,4.73-8.25,11.26-14,11h0S367.16,284.41,365,291s-17.72,15.22-44.67,1.12h0S319,279.07,292.3,269.28,275,256.22,259.46,245.41s-47.79-25.31-83-37.72-60.55-90.56-60.55-90.57h0l-40.1-11.21h0Z"/><path class="cls-4" d="M83,116.63c-6.84-1.81-9.84-9-5.93-14.3,11.15-15.18,63.17-39.54,254.24-37.91,0,0,194.18,2.18,194.18,38.42,0,0-11.12,7.78-88.26,4.12-66.57-3.16-84.3-2.12-91.6,0,0,0-17,4.34,11.5,14.36,0,0,12.26,6.43-3.14,8.46C339.28,131.69,154.85,135.68,83,116.63Z"/><path class="cls-5" d="M418.66,262.35s-10.49,7.73-9.94,14.9,3.86,16,8.28,12.7,2.21-2.21,2.76-7.18,16-11,11.59-14.35S425.29,260.14,418.66,262.35Z"/></svg>