<svg id="Layer_1" data-name="Layer 1" xmlns="http://www.w3.org/2000/svg" viewBox="0 0 850.15 455.01"><defs><style>.cls-1,.cls-2{fill:#ced7ee;}.cls-1{opacity:0.89;}.cls-2{opacity:0.7;}</style></defs><title>Artboard 6</title><path class="cls-1" d="M603.65,245.91h-1.8c-6.42-17.13-29.29-29.81-56.52-29.81a85.5,85.5,0,0,0-11.41.76c-12.36-12.84-33.72-21.33-58-21.33-38.24,0-69.24,21.06-69.24,47a27.49,27.49,0,0,0,.89,7.11c-27.12,5-46.59,18.65-46.59,34.73h29.45l133.62.65c0,.15,0,.3,0,.45H683.26C683.26,263.64,647.62,245.91,603.65,245.91Z"/><path class="cls-2" d="M475,176.77l-2.9,0c-10.34-27.58-47.15-48-91-48A137.62,137.62,0,0,0,362.73,130c-19.9-20.67-54.27-34.33-93.35-34.33-61.56,0-111.46,33.89-111.46,75.7a44.25,44.25,0,0,0,1.43,11.45c-43.65,8-75,30-75,55.9h47.4l215.08,1c0,.24,0,.49,0,.73h256.3C603.12,205.32,545.75,176.77,475,176.77Z"/></svg>