<svg id="Layer_1" data-name="Layer 1" xmlns="http://www.w3.org/2000/svg" xmlns:xlink="http://www.w3.org/1999/xlink" viewBox="0 0 1440 1201.5"><defs><style>.cls-1{opacity:0.49;}.cls-2{fill:#221d5b;}.cls-3{fill:#2b2a63;}.cls-4,.cls-5{fill:#ced7ee;}.cls-4{opacity:0.9;}.cls-5{opacity:0.75;}.cls-6{fill:#3c3a6e;}.cls-7{fill:#fbd0ca;}.cls-8{fill:#fbd0cb;}.cls-9{fill:#eb0a8c;}</style></defs><title>BottomBackground</title><image class="cls-1" width="2888" height="2403" transform="translate(-2) scale(0.5)" xlink:href="../Web/NEW SITE/Still pngs for Simon Nov. 9/Bottom Image.png"/><path class="cls-2" d="M496.89,1042.78a350.34,350.34,0,0,1-37.76,158.72H1440v-66.71c-26.13-3.87-48.46-14.64-62.63-29.37a123.41,123.41,0,0,1-44.22-2c-10.11,7.65-24.78,12.47-41.12,12.47-19.36,0-36.39-6.77-46.24-17a67.62,67.62,0,0,1-9.1.61c-21.71,0-40-10.11-45.07-23.77h-1.44c-35.06,0-63.48-14.14-63.48-31.59h63.36c-18.25-10.16-29.34-23.56-29.34-38.26h231c0,.22,0,.44,0,.66l48.31.23V67.11a193.36,193.36,0,0,1-166.8,95.42c-96.32,0-176.18-70.39-191-162.53H0V722.11a350.63,350.63,0,0,1,145-31.19C339.36,690.92,496.89,848.45,496.89,1042.78Zm934.49-326.44a3.55,3.55,0,1,1-3.54,3.54A3.54,3.54,0,0,1,1431.38,716.34ZM1301.2,356.28a3.18,3.18,0,1,1-3.18,3.18A3.18,3.18,0,0,1,1301.2,356.28ZM1155.66,921a6.26,6.26,0,1,1-6.25,6.26A6.25,6.25,0,0,1,1155.66,921Zm-959-373.84a2,2,0,0,1-1.19.39,2,2,0,0,1-1.61-.81l-.61-.84a2,2,0,0,1,3.27-2.31l.56.78A2,2,0,0,1,196.62,547.15Zm16.18,13.17a2,2,0,0,1-1.74,1,2,2,0,0,1-1-.26l-.9-.51a2,2,0,0,1,2-3.45l.83.48A2,2,0,0,1,212.8,560.32ZM289.89,718.9l-1,.29a2.1,2.1,0,0,1-.56.08,2,2,0,0,1-.56-3.92l.95-.28a2,2,0,1,1,1.15,3.83Zm27.85-169.36c-.06.33-.13.67-.19,1a2,2,0,0,1-2,1.63,1.64,1.64,0,0,1-.38,0,2,2,0,0,1-1.59-2.33l.18-1a2,2,0,0,1,3.94.7Zm101.84,17.28a2,2,0,0,1-2,1.85h-.15a2,2,0,0,1-1.85-2.14l.07-1a2,2,0,0,1,4,.27Zm.06-22.27.06,1a2,2,0,0,1-1.87,2.12h-.12a2,2,0,0,1-2-1.88l-.06-1a2,2,0,1,1,4-.27Zm-5.19-22.63a2,2,0,0,1,2.36,1.57l.19,1a2,2,0,0,1-1.58,2.35l-.38,0a2,2,0,0,1-2-1.62l-.19-1A2,2,0,0,1,414.45,521.92ZM412.59,587l.21-1a2,2,0,0,1,3.92.84l-.22,1a2,2,0,0,1-1.95,1.57,2.1,2.1,0,0,1-.43,0A2,2,0,0,1,412.59,587Zm-3.78-85.31a2,2,0,0,1,2.53,1.27l.31,1a2,2,0,0,1-1.28,2.53,2.17,2.17,0,0,1-.62.1,2,2,0,0,1-1.9-1.38l-.31-.94A2,2,0,0,1,408.81,501.69Zm-2.14,105.12.35-.92a2,2,0,1,1,3.74,1.4l-.35,1a2,2,0,0,1-1.87,1.29,2.28,2.28,0,0,1-.72-.13A2,2,0,0,1,406.67,606.81ZM400.75,482.3a2,2,0,0,1,2.66.95l.43.92a2,2,0,1,1-3.62,1.69l-.42-.9A2,2,0,0,1,400.75,482.3Zm-2.89,143.22.49-.86a2,2,0,1,1,3.49,2l-.49.88a2,2,0,0,1-1.75,1,2,2,0,0,1-1-.26A2,2,0,0,1,397.86,625.52ZM390.48,464a2,2,0,0,1,2.75.64l.54.86a2,2,0,0,1-3.41,2.1l-.52-.85A2,2,0,0,1,390.48,464Zm-4,178.87.59-.8a2,2,0,1,1,3.23,2.36l-.59.81a2,2,0,0,1-3.23-2.37ZM378.2,447a2,2,0,0,1,2.81.33l.62.79a2,2,0,0,1-3.14,2.47l-.62-.78A2,2,0,0,1,378.2,447Zm-4.76,212.12.65-.74a2,2,0,0,1,3,2.63l-.66.76a2,2,0,0,1-1.5.67,2,2,0,0,1-1.5-3.32ZM364.1,431.41a2,2,0,0,1,2.83,0l.71.72a2,2,0,0,1-2.86,2.8l-.69-.7A2,2,0,0,1,364.1,431.41ZM359,674l.72-.67a2,2,0,1,1,2.74,2.91l-.73.69A2,2,0,0,1,359,674ZM348.39,417.49a2,2,0,0,1,2.82-.3l.78.65a2,2,0,0,1-2.54,3.09l-.76-.63A2,2,0,0,1,348.39,417.49Zm-5.34,269.86.78-.59a2,2,0,1,1,2.42,3.18l-.81.62a2,2,0,0,1-1.19.39,2,2,0,0,1-1.2-3.6Zm-11.75-282a2,2,0,0,1,2.76-.59l.85.56a2,2,0,0,1-1.1,3.67,2,2,0,0,1-1.1-.33l-.82-.54A2,2,0,0,1,331.3,405.31Zm-5.53,293.56.85-.51a2,2,0,1,1,2,3.44l-.86.52a2.08,2.08,0,0,1-1,.27,2,2,0,0,1-1-3.72Zm-7.16-170.79.09,1a2,2,0,0,1-1.83,2.16h-.17a2,2,0,0,1-2-1.84c0-.33,0-.65-.08-1a2,2,0,1,1,4-.38ZM313,395a2,2,0,0,1,2.7-.87l.89.47a2,2,0,0,1-.92,3.77,2,2,0,0,1-.92-.22l-.88-.46A2,2,0,0,1,313,395Zm-1.85,111a2,2,0,0,1,2.58,1.16c.12.32.24.64.35,1a2,2,0,0,1-1.19,2.56,1.87,1.87,0,0,1-.69.13,2,2,0,0,1-1.88-1.32l-.33-.91A2,2,0,0,1,311.18,506Zm-4.05,63.12.42-.87a2,2,0,1,1,3.61,1.72c-.14.31-.29.61-.44.92a2,2,0,0,1-1.8,1.11,2,2,0,0,1-.88-.2A2,2,0,0,1,307.13,569.13Zm.15,139.14.91-.39a2,2,0,1,1,1.61,3.65l-.92.41a2.05,2.05,0,0,1-.8.17,2,2,0,0,1-.8-3.84Zm-6.53-220.42a2,2,0,0,1,2.79.43l.6.84a2,2,0,0,1-3.26,2.31l-.57-.79A2,2,0,0,1,300.75,487.85Zm-1,100.23-.64.79a2,2,0,0,1-1.55.74,2,2,0,0,1-1.55-3.26l.61-.76a2,2,0,1,1,3.13,2.49ZM297.31,385.8a2,2,0,0,1-.72,3.87,1.81,1.81,0,0,1-.72-.14l-.93-.35a2,2,0,0,1,1.43-3.74ZM293.1,42.3A3.11,3.11,0,1,1,290,45.41,3.11,3.11,0,0,1,293.1,42.3Zm-7.26,430.83a2,2,0,0,1,2.81-.32l.8.63a2,2,0,0,1,.3,2.82,2,2,0,0,1-1.56.74,2,2,0,0,1-1.26-.45l-.76-.61A2,2,0,0,1,285.84,473.13ZM289.56,605a6.5,6.5,0,1,1-6.5-6.5A6.5,6.5,0,0,1,289.56,605ZM273.7,380.51a2,2,0,0,1,2.42-1.46l1,.25a2,2,0,0,1-.49,3.94,2.05,2.05,0,0,1-.49-.06l-1-.25A2,2,0,0,1,273.7,380.51Zm-6.19,82.54a2,2,0,0,1,2.59-1.13l.95.39a2,2,0,0,1-.76,3.85,2.06,2.06,0,0,1-.76-.15l-.9-.36A2,2,0,0,1,267.51,463.05Zm-4.11,80.82.48-.83a2,2,0,1,1,3.49,2l-.53.91a2,2,0,0,1-2.74.7A2,2,0,0,1,263.4,543.87Zm.67,67.9.87-.43a2,2,0,1,1,1.8,3.57l-.91.46a2.16,2.16,0,0,1-.88.2,2,2,0,0,1-.88-3.8ZM253,377.06a2,2,0,0,1,2.2-1.77l1,.12a2,2,0,0,1-.23,4h-.24l-1-.11A2,2,0,0,1,253,377.06Zm-.14,180.82a2,2,0,0,1-.7,2.74l-.91.52a1.91,1.91,0,0,1-1,.26,2,2,0,0,1-1-3.75l.82-.47A2,2,0,0,1,252.87,557.88ZM249,457.49l1,.05a2,2,0,0,1-.11,4h-.1l-1,0a2,2,0,0,1,.15-4ZM244.77,618.8l1-.24a2,2,0,0,1,1,3.88l-1,.25a2.12,2.12,0,0,1-.49.06,2,2,0,0,1-.48-4ZM234,374.54l1,0a2,2,0,0,1,.12,4l-1,0H234a2,2,0,0,1-.08-4Zm-.79,189.94a2,2,0,0,1-2,2h-1.06a2,2,0,0,1-2-2,2,2,0,0,1,2-2h1A2,2,0,0,1,233.16,564.48Zm-5.55-104.19,1-.29a2,2,0,1,1,1.12,3.84l-.93.27a2.06,2.06,0,0,1-.59.09,2,2,0,0,1-.58-3.91Zm-3.18,161.28,1,0a2,2,0,0,1,2.08,1.92,2,2,0,0,1-1.92,2.08l-1,0h-.06a2,2,0,0,1-.06-4ZM212.81,377.13l1-.21a2,2,0,0,1,.77,3.93l-1,.19a1.81,1.81,0,0,1-.4,0,2,2,0,0,1-.41-3.95ZM208.33,470l.83-.6a2,2,0,1,1,2.32,3.26l-.79.57a2,2,0,1,1-2.36-3.23Zm-6.69,151.56a2,2,0,0,1,2.34-1.59l1,.18a2,2,0,0,1-.35,4,2.19,2.19,0,0,1-.36,0l-1-.19A2,2,0,0,1,201.64,621.52Zm-4.45-134.59-.56.8a2,2,0,0,1-1.65.87,1.93,1.93,0,0,1-1.12-.35,2,2,0,0,1-.53-2.78l.59-.84a2,2,0,0,1,3.27,2.3Zm-4.8-103.7,1-.37a2,2,0,1,1,1.44,3.73l-.91.36a1.91,1.91,0,0,1-.74.14,2,2,0,0,1-.74-3.86ZM184.7,505.32c.07-.34.14-.68.22-1a2,2,0,0,1,3.9.89l-.21.94a2,2,0,0,1-2,1.59,1.9,1.9,0,0,1-.41,0A2,2,0,0,1,184.7,505.32Zm1.51,18.31a2,2,0,0,1,2.35,1.56c.07.32.13.63.2.94a2,2,0,0,1-1.52,2.39,2.18,2.18,0,0,1-.43.05,2,2,0,0,1-1.95-1.57c-.08-.34-.15-.68-.22-1A2,2,0,0,1,186.21,523.63ZM181.72,615a2,2,0,0,1,2.63-1l.9.38a2,2,0,0,1-.77,3.84,2.07,2.07,0,0,1-.77-.15l-.93-.4A2,2,0,0,1,181.72,615Zm-8.38-222.18.87-.53a2,2,0,1,1,2.08,3.42l-.85.52a2,2,0,0,1-1,.29,2,2,0,0,1-1.06-3.7ZM163.56,604.5a2,2,0,0,1,2.78-.53l.81.55a2,2,0,0,1-1.11,3.66,1.94,1.94,0,0,1-1.1-.33l-.85-.57A2,2,0,0,1,163.56,604.5Zm-7.32-199,.77-.67a2,2,0,0,1,2.62,3l-.74.65a2,2,0,0,1-1.32.5,2,2,0,0,1-1.5-.68A2,2,0,0,1,156.24,405.53ZM147.48,591a2,2,0,0,1,2.83,0l.71.68a2,2,0,0,1,.08,2.83,2,2,0,0,1-1.45.62,2,2,0,0,1-1.38-.55l-.74-.71A2,2,0,0,1,147.48,591ZM112.81,477.33l.23-1a2,2,0,1,1,3.89.91l-.22,1a2,2,0,0,1-1.95,1.56,2.12,2.12,0,0,1-.44,0A2,2,0,0,1,112.81,477.33ZM15.1,597a2,2,0,0,1-1.78,1.09,2,2,0,0,1-.91-.22l-.88-.45a2,2,0,1,1,1.8-3.57l.9.46A2,2,0,0,1,15.1,597Zm18.2,10.47a2,2,0,0,1-1.7.95,2,2,0,0,1-1.05-.3l-.84-.52a2,2,0,1,1,2.08-3.41l.86.53A2,2,0,0,1,33.3,607.44ZM50.77,619.1a2,2,0,0,1-1.64.85,2,2,0,0,1-1.15-.36l-.81-.57a2,2,0,0,1,2.28-3.28l.83.57A2,2,0,0,1,50.77,619.1Zm16.91,12.46a2,2,0,0,1-1.59.79,2,2,0,0,1-1.21-.4l-.79-.61a2,2,0,1,1,2.41-3.19l.8.61A2,2,0,0,1,67.68,631.56Zm16.55,13a2,2,0,0,1-2.81.32l-.78-.62a2,2,0,1,1,2.49-3.13l.78.62A2,2,0,0,1,84.23,644.51Zm16.38,13.16a2,2,0,0,1-2.82.3l-.78-.63a2,2,0,0,1,2.52-3.11l.77.63A2,2,0,0,1,100.61,657.67ZM98.8,141.08a5,5,0,1,1,5-5A5,5,0,0,1,98.8,141.08Zm11.11,357.37,0-1a2,2,0,0,1,4,.23l-.06,1a2,2,0,0,1-2,1.9h-.1A2,2,0,0,1,109.91,498.45Zm.77,21.31-.12-1a2,2,0,0,1,4-.46l.11,1a2,2,0,0,1-1.74,2.23h-.24A2,2,0,0,1,110.68,519.76Zm6.33,151a2,2,0,0,1-2.81.33l-.79-.62a2,2,0,0,1,2.49-3.14l.78.62A2,2,0,0,1,117,670.77Zm.57-128.83a2,2,0,0,1-.58.09,2,2,0,0,1-1.92-1.42l-.29-1a2,2,0,1,1,3.84-1.13l.28.94A2,2,0,0,1,117.58,541.94Zm2.8-82.29a2,2,0,0,1-1.07-2.62l.39-.93a2,2,0,0,1,3.68,1.57l-.38.91a2,2,0,0,1-1.85,1.23A1.9,1.9,0,0,1,120.38,459.65Zm5.28,101.65a1.91,1.91,0,0,1-.89.21,2,2,0,0,1-1.79-1.1l-.46-.91a2,2,0,1,1,3.59-1.76l.44.88A2,2,0,0,1,125.66,561.3Zm3.45-123.16.53-.86a2,2,0,0,1,3.4,2.12l-.52.84a2,2,0,0,1-1.71.95,1.87,1.87,0,0,1-1-.3A2,2,0,0,1,129.11,438.14Zm4.58,245.4a2,2,0,0,1-1.61.8,2,2,0,0,1-1.19-.39l-.8-.6a2,2,0,1,1,2.39-3.21l.8.6A2,2,0,0,1,133.69,683.54ZM136.94,579a2,2,0,0,1-1.19.39,2,2,0,0,1-1.61-.81l-.6-.81a2,2,0,1,1,3.23-2.36l.59.79A2,2,0,0,1,136.94,579ZM143,424.12a2,2,0,0,1-1.54-3.28l.65-.77a2,2,0,1,1,3.06,2.56l-.63.76A2,2,0,0,1,143,424.12Z"/><path class="cls-3" d="M341.61,1088.06a226,226,0,0,1-30.33,113.44H459.13a350.34,350.34,0,0,0,37.76-158.72c0-194.33-157.53-351.86-351.86-351.86A350.63,350.63,0,0,0,0,722.11v169.8A226,226,0,0,1,114.51,861C239.93,861,341.61,962.63,341.61,1088.06ZM267.56,719.92l1-.16a2,2,0,1,1,.66,4l-1,.16-.33,0a2,2,0,0,1-.32-4Zm-20.63,2,1,0a2,2,0,0,1,.15,4l-1,0H247a2,2,0,0,1-.06-4Zm-20.73-.64,1,.09a2,2,0,0,1-.17,4h-.18l-1-.09a2,2,0,0,1,.36-4Zm-22.87-1.67a2,2,0,0,1,2.38-1.53l1,.21a2,2,0,1,1-.84,3.91l-1-.21A2,2,0,0,1,203.33,719.59Zm-20-6.33a2,2,0,0,1,2.6-1.12l.91.36a2,2,0,0,1-.72,3.86,2,2,0,0,1-.72-.13l-.95-.37A2,2,0,0,1,183.34,713.26ZM164.53,704a2,2,0,0,1,2.72-.78l.86.48a2,2,0,0,1-1,3.75,1.94,1.94,0,0,1-1-.25l-.89-.48A2,2,0,0,1,164.53,704Zm-17.8-11.16a2,2,0,0,1,2.78-.55l.83.56a2,2,0,0,1-1.11,3.66,2.05,2.05,0,0,1-1.11-.33l-.84-.56A2,2,0,0,1,146.73,692.81Z"/><path class="cls-2" d="M1278.83,1063.29h-2.62c-34.24,0-65-7.42-86.15-19.2H1126.7c0,17.45,28.42,31.59,63.48,31.59h1.44c5.12,13.66,23.36,23.77,45.07,23.77a67.62,67.62,0,0,0,9.1-.61c9.85,10.24,26.88,17,46.24,17,16.34,0,31-4.82,41.12-12.47C1306.48,1097.11,1285.86,1082,1278.83,1063.29Z"/><path class="cls-4" d="M1278.83,1063.29h-2.62c-34.24,0-65-7.42-86.15-19.2H1126.7c0,17.45,28.42,31.59,63.48,31.59h1.44c5.12,13.66,23.36,23.77,45.07,23.77a67.62,67.62,0,0,0,9.1-.61c9.85,10.24,26.88,17,46.24,17,16.34,0,31-4.82,41.12-12.47C1306.48,1097.11,1285.86,1082,1278.83,1063.29Z"/><path class="cls-2" d="M1391.71,1005.84h-231c0,14.7,11.09,28.1,29.34,38.26h63.61c0,.12,0,.25,0,.37l106.55.51h23.48c0,12.83-15.53,23.72-37.15,27.7a22.06,22.06,0,0,1,.71,5.67c0,9.62-5.34,18.39-14.1,25a123.41,123.41,0,0,0,44.22,2c14.17,14.73,36.5,25.5,62.63,29.37V1006.73l-48.31-.23C1391.69,1006.28,1391.71,1006.06,1391.71,1005.84Z"/><path class="cls-5" d="M1391.71,1005.84h-231c0,14.7,11.09,28.1,29.34,38.26h63.61c0,.12,0,.25,0,.37l106.55.51h23.48c0,12.83-15.53,23.72-37.15,27.7a22.06,22.06,0,0,1,.71,5.67c0,9.62-5.34,18.39-14.1,25a123.41,123.41,0,0,0,44.22,2c14.17,14.73,36.5,25.5,62.63,29.37V1006.73l-48.31-.23C1391.69,1006.28,1391.71,1006.06,1391.71,1005.84Z"/><path class="cls-2" d="M1347.25,1078.35a22.06,22.06,0,0,0-.71-5.67c21.62-4,37.15-14.87,37.15-27.7h-23.48l-106.55-.51c0-.12,0-.25,0-.37h-63.61c21.15,11.78,51.91,19.2,86.15,19.2h2.62c7,18.75,27.65,33.82,54.32,40.09C1341.91,1096.74,1347.25,1088,1347.25,1078.35Z"/><path class="cls-4" d="M1347.25,1078.35a22.06,22.06,0,0,0-.71-5.67c21.62-4,37.15-14.87,37.15-27.7h-23.48l-106.55-.51c0-.12,0-.25,0-.37h-63.61c21.15,11.78,51.91,19.2,86.15,19.2h2.62c7,18.75,27.65,33.82,54.32,40.09C1341.91,1096.74,1347.25,1088,1347.25,1078.35Z"/><path class="cls-5" d="M1347.25,1078.35a22.06,22.06,0,0,0-.71-5.67c21.62-4,37.15-14.87,37.15-27.7h-23.48l-106.55-.51c0-.12,0-.25,0-.37h-63.61c21.15,11.78,51.91,19.2,86.15,19.2h2.62c7,18.75,27.65,33.82,54.32,40.09C1341.91,1096.74,1347.25,1088,1347.25,1078.35Z"/><path class="cls-6" d="M341.61,1088.06c0-125.43-101.68-227.1-227.1-227.1A226,226,0,0,0,0,891.91V1201.5H311.28A226,226,0,0,0,341.61,1088.06ZM225.16,975.67a3.44,3.44,0,1,1,3.44-3.44A3.45,3.45,0,0,1,225.16,975.67Z"/><path class="cls-3" d="M1298.51,104.33A124.9,124.9,0,0,1,1175.33,0h-93.11c14.8,92.14,94.66,162.53,191,162.53A193.36,193.36,0,0,0,1440,67.11V0h-18.32A124.89,124.89,0,0,1,1298.51,104.33Z"/><path class="cls-6" d="M1298.51,104.33A124.89,124.89,0,0,0,1421.68,0H1175.33A124.9,124.9,0,0,0,1298.51,104.33Z"/><path class="cls-7" d="M276.56,605a6.5,6.5,0,1,0,6.5-6.5A6.5,6.5,0,0,0,276.56,605Zm4.85-4.19.77-.62a2,2,0,0,1,2.52,3.11l-.79.64a2,2,0,0,1-1.25.43,2,2,0,0,1-1.56-.75A2,2,0,0,1,281.41,600.8Z"/><circle class="cls-7" cx="98.8" cy="136.11" r="4.98"/><path class="cls-7" d="M293.1,48.52A3.11,3.11,0,1,0,290,45.41,3.11,3.11,0,0,0,293.1,48.52Z"/><circle class="cls-7" cx="1301.2" cy="359.46" r="3.18"/><path class="cls-7" d="M1155.66,933.5a6.26,6.26,0,1,0-6.25-6.25A6.25,6.25,0,0,0,1155.66,933.5Z"/><path class="cls-7" d="M1431.38,723.43a3.55,3.55,0,1,0-3.54-3.55A3.54,3.54,0,0,0,1431.38,723.43Z"/><circle class="cls-8" cx="225.16" cy="972.23" r="3.44"/><path class="cls-9" d="M209.51,473.57a2,2,0,0,0,1.18-.38l.79-.57a2,2,0,1,0-2.32-3.26l-.83.6a2,2,0,0,0,1.18,3.61Z"/><path class="cls-9" d="M203.23,623.86l1,.19a2.19,2.19,0,0,0,.36,0,2,2,0,0,0,.35-4l-1-.18a2,2,0,1,0-.75,3.93Z"/><path class="cls-9" d="M224.49,625.57h.06l1,0a2,2,0,0,0,1.92-2.08,2,2,0,0,0-2.08-1.92l-1,0a2,2,0,0,0,.06,4Z"/><path class="cls-9" d="M228.19,464.2a2.06,2.06,0,0,0,.59-.09l.93-.27a2,2,0,1,0-1.12-3.84l-1,.29a2,2,0,0,0,.58,3.91Z"/><path class="cls-9" d="M213.22,381.08a1.81,1.81,0,0,0,.4,0l1-.19a2,2,0,0,0-.77-3.93l-1,.21a2,2,0,0,0,.41,3.95Z"/><path class="cls-9" d="M184.86,527a2,2,0,0,0,1.95,1.57,2.18,2.18,0,0,0,.43-.05,2,2,0,0,0,1.52-2.39c-.07-.31-.13-.62-.2-.94a2,2,0,0,0-3.92.79C184.71,526.32,184.78,526.66,184.86,527Z"/><path class="cls-9" d="M186.25,507.68a1.9,1.9,0,0,0,.41,0,2,2,0,0,0,2-1.59l.21-.94a2,2,0,0,0-3.9-.89c-.08.34-.15.68-.22,1A2,2,0,0,0,186.25,507.68Z"/><path class="cls-9" d="M193.13,387.09a1.91,1.91,0,0,0,.74-.14l.91-.36a2,2,0,1,0-1.44-3.73l-1,.37a2,2,0,0,0,.74,3.86Z"/><path class="cls-9" d="M193.92,484.63l-.59.84a2,2,0,0,0,.53,2.78,1.93,1.93,0,0,0,1.12.35,2,2,0,0,0,1.65-.87l.56-.8a2,2,0,0,0-3.27-2.3Z"/><path class="cls-9" d="M230.69,562.51h-.49a2,2,0,0,0-2,2,2,2,0,0,0,2,2h1.06a2,2,0,0,0,0-4h-.47Z"/><path class="cls-9" d="M264.1,546.61a2,2,0,0,0,2.74-.7l.53-.91a2,2,0,1,0-3.49-2l-.48.83A2,2,0,0,0,264.1,546.61Z"/><path class="cls-9" d="M265,615.57a2.16,2.16,0,0,0,.88-.2l.91-.46a2,2,0,1,0-1.8-3.57l-.87.43a2,2,0,0,0,.88,3.8Z"/><path class="cls-9" d="M268.63,465.65l.9.36a2.06,2.06,0,0,0,.76.15,2,2,0,0,0,.76-3.85l-.95-.39a2,2,0,0,0-1.47,3.73Z"/><path class="cls-9" d="M254.78,379.27l1,.11H256a2,2,0,0,0,.23-4l-1-.12a2,2,0,0,0-.43,4Z"/><path class="cls-9" d="M182.78,617.61l.93.4a2.07,2.07,0,0,0,.77.15,2,2,0,0,0,.77-3.84l-.9-.38a2,2,0,1,0-1.57,3.67Z"/><path class="cls-9" d="M250.13,557.18l-.82.47a2,2,0,0,0,1,3.75,1.91,1.91,0,0,0,1-.26l.91-.52a2,2,0,1,0-2-3.44Z"/><path class="cls-9" d="M234,378.54h.09l1,0a2,2,0,0,0-.12-4l-1,0a2,2,0,0,0,.08,4Z"/><path class="cls-9" d="M245.25,622.75a2.12,2.12,0,0,0,.49-.06l1-.25a2,2,0,0,0-1-3.88l-1,.24a2,2,0,0,0,.48,4Z"/><path class="cls-9" d="M248.84,461.49l1,0h.1a2,2,0,0,0,.11-4l-1-.05a2,2,0,0,0-.15,4Z"/><path class="cls-9" d="M129.77,440.89a1.87,1.87,0,0,0,1,.3,2,2,0,0,0,1.71-.95l.52-.84a2,2,0,0,0-3.4-2.12l-.53.86A2,2,0,0,0,129.77,440.89Z"/><path class="cls-9" d="M123,458.58l.38-.91a2,2,0,0,0-3.68-1.57l-.39.93a2,2,0,0,0,1.07,2.62,1.9,1.9,0,0,0,.77.16A2,2,0,0,0,123,458.58Z"/><path class="cls-9" d="M118.63,538.51a2,2,0,1,0-3.84,1.13l.29,1A2,2,0,0,0,117,542a2,2,0,0,0,.58-.09,2,2,0,0,0,1.33-2.49Z"/><path class="cls-9" d="M116.68,668l-.78-.62a2,2,0,0,0-2.49,3.14l.79.62a2,2,0,0,0,2.81-.33A2,2,0,0,0,116.68,668Z"/><path class="cls-9" d="M112.91,521.5a2,2,0,0,0,1.74-2.23l-.11-1a2,2,0,0,0-4,.46l.12,1a2,2,0,0,0,2,1.75Z"/><path class="cls-9" d="M111.91,500.55a2,2,0,0,0,2-1.9l.06-1a2,2,0,0,0-4-.23l0,1a2,2,0,0,0,1.9,2.1Z"/><path class="cls-9" d="M100.3,654.86l-.77-.63A2,2,0,0,0,97,657.34l.78.63a2,2,0,1,0,2.51-3.11Z"/><path class="cls-9" d="M136.77,575.4a2,2,0,1,0-3.23,2.36l.6.81a2,2,0,0,0,1.61.81,2,2,0,0,0,1.19-.39,2,2,0,0,0,.42-2.8Z"/><path class="cls-9" d="M133.28,680.74l-.8-.6a2,2,0,1,0-2.39,3.21l.8.6a2,2,0,0,0,1.19.39,2,2,0,0,0,1.2-3.6Z"/><path class="cls-9" d="M126.11,557.74a2,2,0,1,0-3.59,1.76l.46.91a2,2,0,0,0,1.79,1.1,1.91,1.91,0,0,0,.89-.21,2,2,0,0,0,.89-2.68Z"/><path class="cls-9" d="M275.16,382.93l1,.25a2.05,2.05,0,0,0,.49.06,2,2,0,0,0,.49-3.94l-1-.25a2,2,0,1,0-1,3.88Z"/><path class="cls-9" d="M164.09,607.28l.85.57a1.94,1.94,0,0,0,1.1.33,2,2,0,0,0,1.11-3.66l-.81-.55a2,2,0,0,0-2.25,3.31Z"/><path class="cls-9" d="M157.57,409a2,2,0,0,0,1.32-.5l.74-.65a2,2,0,0,0-2.62-3l-.77.67a2,2,0,0,0-.17,2.82A2,2,0,0,0,157.57,409Z"/><path class="cls-9" d="M148.27,594.55a2,2,0,0,0,1.38.55,2,2,0,0,0,1.45-.62,2,2,0,0,0-.08-2.83l-.71-.68a2,2,0,1,0-2.78,2.87Z"/><path class="cls-9" d="M174.4,396.51a2,2,0,0,0,1-.29l.85-.52a2,2,0,1,0-2.08-3.42l-.87.53a2,2,0,0,0,1.06,3.7Z"/><path class="cls-9" d="M83.91,641.7l-.78-.62a2,2,0,1,0-2.49,3.13l.78.62a2,2,0,0,0,2.81-.32A2,2,0,0,0,83.91,641.7Z"/><path class="cls-9" d="M114.32,479.73a2.12,2.12,0,0,0,.44,0,2,2,0,0,0,1.95-1.56l.22-1a2,2,0,1,0-3.89-.91l-.23,1A2,2,0,0,0,114.32,479.73Z"/><path class="cls-9" d="M50.28,616.31l-.83-.57A2,2,0,0,0,47.17,619l.81.57a2,2,0,0,0,1.15.36,2,2,0,0,0,1.64-.85A2,2,0,0,0,50.28,616.31Z"/><path class="cls-9" d="M14.23,594.28l-.9-.46a2,2,0,1,0-1.8,3.57l.88.45a2,2,0,0,0,.91.22,2,2,0,0,0,.91-3.78Z"/><path class="cls-9" d="M67.3,628.76l-.8-.61a2,2,0,1,0-2.41,3.19l.79.61a2,2,0,0,0,1.21.4,2,2,0,0,0,1.21-3.59Z"/><path class="cls-9" d="M32.65,604.69l-.86-.53a2,2,0,1,0-2.08,3.41l.84.52a2,2,0,0,0,1.05.3,2,2,0,0,0,1-3.7Z"/><path class="cls-9" d="M296.61,585.59l-.61.76a2,2,0,0,0,1.55,3.26,2,2,0,0,0,1.55-.74l.64-.79a2,2,0,1,0-3.13-2.49Z"/><path class="cls-9" d="M407.85,505.17a2,2,0,0,0,1.9,1.38,2.17,2.17,0,0,0,.62-.1,2,2,0,0,0,1.28-2.53l-.31-1a2,2,0,1,0-3.8,1.27Z"/><path class="cls-9" d="M400.22,485.86a2,2,0,1,0,3.62-1.69l-.43-.92A2,2,0,0,0,399.8,485Z"/><path class="cls-9" d="M407.82,609.4a2.28,2.28,0,0,0,.72.13,2,2,0,0,0,1.87-1.29l.35-1a2,2,0,1,0-3.74-1.4l-.35.92A2,2,0,0,0,407.82,609.4Z"/><path class="cls-9" d="M414.12,589.38a2.1,2.1,0,0,0,.43,0,2,2,0,0,0,1.95-1.57l.22-1a2,2,0,0,0-3.92-.84l-.21,1A2,2,0,0,0,414.12,589.38Z"/><path class="cls-9" d="M413.08,525.24a2,2,0,0,0,2,1.62l.38,0a2,2,0,0,0,1.58-2.35l-.19-1a2,2,0,1,0-3.92.78Z"/><path class="cls-9" d="M398.62,628.24a2,2,0,0,0,1,.26,2,2,0,0,0,1.75-1l.49-.88a2,2,0,1,0-3.49-2l-.49.86A2,2,0,0,0,398.62,628.24Z"/><path class="cls-9" d="M386.89,645.65a2,2,0,0,0,2.8-.43l.59-.81a2,2,0,1,0-3.23-2.36l-.59.8A2,2,0,0,0,386.89,645.65Z"/><path class="cls-9" d="M390.36,467.58a2,2,0,0,0,1.71.95,2,2,0,0,0,1.7-3l-.54-.86a2,2,0,0,0-3.39,2.11Z"/><path class="cls-9" d="M417.79,563.68a2,2,0,0,0-2.13,1.86l-.07,1a2,2,0,0,0,1.85,2.14h.15a2,2,0,0,0,2-1.85l.07-1A2,2,0,0,0,417.79,563.68Z"/><path class="cls-9" d="M415.65,544.82l.06,1a2,2,0,0,0,2,1.88h.12a2,2,0,0,0,1.87-2.12l-.06-1a2,2,0,1,0-4,.27Z"/><path class="cls-9" d="M196.48,543.58a2,2,0,0,0-3.27,2.31l.61.84a2,2,0,0,0,1.61.81,2,2,0,0,0,1.19-.39,2,2,0,0,0,.42-2.79Z"/><path class="cls-9" d="M144.92,419.81a2,2,0,0,0-2.81.26l-.65.77a2,2,0,1,0,3.08,2.55l.63-.76A2,2,0,0,0,144.92,419.81Z"/><path class="cls-9" d="M212,557.59l-.83-.48a2,2,0,0,0-2,3.45l.9.51a2,2,0,0,0,1,.26,2,2,0,0,0,1-3.74Z"/><path class="cls-9" d="M288.74,715.07l-.95.28a2,2,0,0,0,.56,3.92,2.1,2.1,0,0,0,.56-.08l1-.29a2,2,0,1,0-1.15-3.83Z"/><path class="cls-9" d="M378.49,450.55a2,2,0,0,0,1.57.76,2,2,0,0,0,1.57-3.23l-.62-.79a2,2,0,1,0-3.14,2.48Z"/><path class="cls-9" d="M316.12,547.22a2,2,0,0,0-2.32,1.62l-.18,1a2,2,0,0,0,1.59,2.33,1.64,1.64,0,0,0,.38,0,2,2,0,0,0,2-1.63c.06-.33.13-.67.19-1A2,2,0,0,0,316.12,547.22Z"/><path class="cls-9" d="M308.08,712.11a2.05,2.05,0,0,0,.8-.17l.92-.41a2,2,0,1,0-1.61-3.65l-.91.39a2,2,0,0,0,.8,3.84Z"/><path class="cls-9" d="M314.63,528.46c0,.32.06.64.08,1a2,2,0,0,0,2,1.84h.17a2,2,0,0,0,1.83-2.16l-.09-1a2,2,0,1,0-4,.38Z"/><path class="cls-9" d="M308,571.81a2,2,0,0,0,.88.2,2,2,0,0,0,1.8-1.11c.15-.31.3-.61.44-.92a2,2,0,1,0-3.61-1.72l-.42.87A2,2,0,0,0,308,571.81Z"/><path class="cls-9" d="M313.9,397.66l.88.46a2,2,0,0,0,.92.22,2,2,0,0,0,.92-3.77l-.89-.47a2,2,0,1,0-1.83,3.56Z"/><path class="cls-9" d="M374.94,662.4a2,2,0,0,0,1.5-.67l.66-.76a2,2,0,0,0-3-2.63l-.65.74a2,2,0,0,0,1.5,3.32Z"/><path class="cls-9" d="M286.17,475.94l.76.61a2,2,0,0,0,1.26.45,2,2,0,0,0,1.56-.74,2,2,0,0,0-.3-2.82l-.8-.63a2,2,0,1,0-2.48,3.13Z"/><path class="cls-9" d="M300.88,491.43a2,2,0,0,0,3.26-2.31l-.6-.84a2,2,0,0,0-3.23,2.36Z"/><path class="cls-9" d="M293.79,386.59a2,2,0,0,0,1.15,2.59l.93.35a1.81,1.81,0,0,0,.72.14,2,2,0,0,0,.72-3.87l-.94-.36A2,2,0,0,0,293.79,386.59Z"/><path class="cls-9" d="M310.35,509.5a2,2,0,0,0,1.88,1.32,1.87,1.87,0,0,0,.69-.13,2,2,0,0,0,1.19-2.56c-.11-.32-.23-.64-.35-1a2,2,0,1,0-3.74,1.42Z"/><path class="cls-9" d="M348.69,420.3l.76.63a2,2,0,1,0,2.54-3.09l-.78-.65a2,2,0,1,0-2.52,3.11Z"/><path class="cls-9" d="M360.32,677.47a2,2,0,0,0,1.37-.54l.73-.69a2,2,0,1,0-2.74-2.91L359,674a2,2,0,0,0,1.36,3.47Z"/><path class="cls-9" d="M364.78,434.94a2,2,0,1,0,2.86-2.8l-.71-.72a2,2,0,1,0-2.84,2.82Z"/><path class="cls-9" d="M331.89,408.08l.82.54a2,2,0,0,0,1.1.33,2,2,0,0,0,1.1-3.67l-.85-.56a2,2,0,0,0-2.17,3.36Z"/><path class="cls-9" d="M344.25,691a2,2,0,0,0,1.19-.39l.81-.62a2,2,0,1,0-2.42-3.18l-.78.59a2,2,0,0,0,1.2,3.6Z"/><path class="cls-9" d="M326.78,702.59a2.08,2.08,0,0,0,1-.27l.86-.52a2,2,0,1,0-2-3.44l-.85.51a2,2,0,0,0,1,3.72Z"/><path class="cls-9" d="M184.46,715.86l.95.37a2,2,0,0,0,.72.13,2,2,0,0,0,.72-3.86l-.91-.36a2,2,0,0,0-1.48,3.72Z"/><path class="cls-9" d="M165.3,706.69l.89.48a1.94,1.94,0,0,0,1,.25,2,2,0,0,0,1-3.75l-.86-.48a2,2,0,0,0-1.95,3.5Z"/><path class="cls-9" d="M147.28,695.59l.84.56a2.05,2.05,0,0,0,1.11.33,2,2,0,0,0,1.11-3.66l-.83-.56a2,2,0,0,0-2.23,3.33Z"/><path class="cls-9" d="M204.86,722l1,.21a2,2,0,1,0,.84-3.91l-1-.21a2,2,0,0,0-.85,3.91Z"/><path class="cls-9" d="M247,725.9h.07l1,0a2,2,0,0,0-.15-4l-1,0a2,2,0,0,0,.06,4Z"/><path class="cls-9" d="M267.88,723.9l.33,0,1-.16a2,2,0,1,0-.66-4l-1,.16a2,2,0,0,0,.32,4Z"/><path class="cls-9" d="M225.84,725.24l1,.09H227a2,2,0,0,0,.17-4l-1-.09a2,2,0,0,0-.36,4Z"/><path class="cls-9" d="M282.66,604.36a2,2,0,0,0,1.25-.43l.79-.64a2,2,0,0,0-2.52-3.11l-.77.62a2,2,0,0,0-.31,2.81A2,2,0,0,0,282.66,604.36Z"/></svg>