<svg id="Layer_1" data-name="Layer 1" xmlns="http://www.w3.org/2000/svg" viewBox="0 0 604.68 562.77"><defs><style>.cls-1{fill:#fbd0cb;}.cls-2,.cls-3,.cls-5,.cls-6{fill:#e1e775;}.cls-2{opacity:0.76;}.cls-3{opacity:0.44;}.cls-4{fill:#f1f5cf;}.cls-5{opacity:0.88;}</style></defs><title>Artboard 3</title><circle class="cls-1" cx="164.19" cy="313.86" r="3.23" transform="translate(-69.07 47.3) rotate(-13.57)"/><path class="cls-2" d="M122.29,83.39a17.75,17.75,0,0,0-3.81,4c-1.69,2.44-2.92,5.81-1.08,9.48,3.66,7.33,9.77,11,9.77,17.1s14,28.7,19.54,31.76,20.15,6.11,22.6,26.26,11.6,23.82,16.49,26.87,3.05,22.6,6.72,26.87,7.94,14,12.21,16.49a72.45,72.45,0,0,1,10.56,8.38,11.61,11.61,0,0,0,15.52.35c6.12-5.28,14-10.18,18.07-4.83,4.44,5.86,9.21,14.7,12.2,20.57a14.81,14.81,0,0,0,9.16,7.54c3,.86,6.2,2.05,7,3.46,1.72,2.87,8.32,30.42,13.77,33.58s4.3,14.06,7.17,14.92,4-6.31,7.46-3.44,0,56.25,1.43,60.27,12.63,40.18,13.49,49.07a75.35,75.35,0,0,0,6.89,5.45c3.73,2.58,2.3,12.05,5.17,16.64S341,465.9,347.6,459s16.36-70.6,19.8-88.68,43.62-73.47,43.91-85.52,12.05-57.4,12.05-58.83,15.78-9.76,17.79-14.92,4.59-8,8-9.18,8.9-4.88,9.76-10.33,6.31-24.11,21.81-31.85S517.49,106.32,504.58,96s-26.12-14.73-28.41-16.45c-.37-.28-4.38,1-5.89.35-7.81-3.25-28.2,1.07-37.9-1.6C421.08,75.17,122.29,83.39,122.29,83.39Z"/><path class="cls-3" d="M325.6,102.27,122.26,83.44a17.75,17.75,0,0,0-3.81,4c-1.69,2.44-2.92,5.81-1.08,9.48,3.66,7.33,9.77,11,9.77,17.1s14,28.7,19.54,31.76,20.15,6.11,22.6,26.26,11.6,23.82,16.49,26.87,3.05,22.6,6.72,26.87,7.94,14,12.21,16.49a72.45,72.45,0,0,1,10.56,8.38,11.61,11.61,0,0,0,15.52.35s7.34-13.86,13.87-12.85,15.14-15.71,16.42-32.82,20-20.5,21.67-28.62,4.55-19.13,11.39-26,15.82-22.24,15.82-22.24S329.75,117,331,111.92s4.33-7.71,1-9.29C323.8,98.67,325.6,102.27,325.6,102.27Z"/><path class="cls-4" d="M476.17,79.53s-31.42,8.3-37.64,8.3H400.58s-99.88-5.18-70,14.3c7.89,5.15-87.13,1.19-112.51.05A119.75,119.75,0,0,1,206,101l-34.27-5c-1.61-.24-3.22-.42-4.83-.58a58.91,58.91,0,0,1-6.18-1l-17.16-3.63a88.86,88.86,0,0,1-21.27-7.42h0l316.86-8Z"/><path class="cls-5" d="M235.69,272.06s-15.86,0-14.19,17.53,17.53,27.55,21.71,19.2-6.68-17.53-3.34-22.54S235.69,272.06,235.69,272.06Z"/><path class="cls-6" d="M256.49,290.11s-3.49-4.94-6.1,0c0,0-1.74,5.81.58,5.81S257.07,292.15,256.49,290.11Z"/></svg>