<svg id="Layer_1" data-name="Layer 1" xmlns="http://www.w3.org/2000/svg" viewBox="0 0 1443 307.5"><defs><style>.cls-1{fill:#433f71;}.cls-2{fill:#3b4998;}.cls-3{fill:#25225a;}.cls-4,.cls-5{fill:#ced7ee;}.cls-4{opacity:0.9;}.cls-5{opacity:0.75;}</style></defs><title>MiddleBackground</title><path class="cls-1" d="M0,0V72.34C16.27,55.67,36.87,32.39,62.94,0Z"/><path class="cls-2" d="M0,307.5H571.55c77.26-101.88,257-40.14,377.41-67.85,134-30.86,30.67-90.66-8.21-110a128.2,128.2,0,0,0-20.21-8c-23.49-7.08-43.88-16.5-58-29-68.69-60.92,35.13-72.48,35.13-72.48,43.58-3.22,68-10.66,79.88-20.12H62.94C36.87,32.39,16.27,55.67,0,72.34Z"/><path class="cls-3" d="M862.54,92.6c14.12,12.52,34.51,21.94,58,29a128.2,128.2,0,0,1,20.21,8C979.63,149,1083,208.79,949,239.65c-120.38,27.71-300.15-34-377.41,67.85h497.69c.21-27.68,10-52,24.63-66.11a99.47,99.47,0,0,1-.87-13.18,96.15,96.15,0,0,1,2.51-22.05c-6.1-8-9.94-19.74-9.94-32.75,0-15.42,5.39-29,13.55-36.84a53.62,53.62,0,0,1-.48-7.25c0-17.29,8-31.82,18.93-35.9,0-.38,0-.76,0-1.14,0-27.93,11.27-50.58,25.16-50.58V92.17c8.1-14.53,18.78-23.37,30.48-23.37v184h-.52l-.26,54.7H1443V0H977.55c-11.88,9.46-36.3,16.9-79.88,20.12C897.67,20.12,793.85,31.68,862.54,92.6Z"/><path class="cls-3" d="M1127.44,162.89c0-.69,0-1.39,0-2.08,0-27.28,5.91-51.79,15.29-68.64V41.7c-13.89,0-25.16,22.65-25.16,50.58,0,.38,0,.76,0,1.14-10.89,4.08-18.93,18.61-18.93,35.9a53.62,53.62,0,0,0,.48,7.25c-8.16,7.85-13.55,21.42-13.55,36.84,0,13,3.84,24.7,9.94,32.75C1100.5,184.92,1112.5,168.49,1127.44,162.89Z"/><path class="cls-4" d="M1127.44,162.89c0-.69,0-1.39,0-2.08,0-27.28,5.91-51.79,15.29-68.64V41.7c-13.89,0-25.16,22.65-25.16,50.58,0,.38,0,.76,0,1.14-10.89,4.08-18.93,18.61-18.93,35.9a53.62,53.62,0,0,0,.48,7.25c-8.16,7.85-13.55,21.42-13.55,36.84,0,13,3.84,24.7,9.94,32.75C1100.5,184.92,1112.5,168.49,1127.44,162.89Z"/><path class="cls-3" d="M1173.2,252.81V68.8c-11.7,0-22.38,8.84-30.48,23.37v50.68h-.29l-.41,84.88v18.71c-10.21,0-18.89-12.37-22.06-29.6a17.42,17.42,0,0,1-4.52.57c-7.66,0-14.65-4.26-19.93-11.24a96.15,96.15,0,0,0-2.51,22.05,99.47,99.47,0,0,0,.87,13.18c-14.68,14.13-24.42,38.43-24.63,66.11h103.18l.26-54.7Z"/><path class="cls-5" d="M1173.2,252.81V68.8c-11.7,0-22.38,8.84-30.48,23.37v50.68h-.29l-.41,84.88v18.71c-10.21,0-18.89-12.37-22.06-29.6a17.42,17.42,0,0,1-4.52.57c-7.66,0-14.65-4.26-19.93-11.24a96.15,96.15,0,0,0-2.51,22.05,99.47,99.47,0,0,0,.87,13.18c-14.68,14.13-24.42,38.43-24.63,66.11h103.18l.26-54.7Z"/><path class="cls-3" d="M1115.44,217.4a17.42,17.42,0,0,0,4.52-.57c3.17,17.23,11.85,29.6,22.06,29.6V227.72l.41-84.88h.29V92.17c-9.38,16.85-15.29,41.36-15.29,68.64,0,.69,0,1.39,0,2.08-14.94,5.6-26.94,22-31.93,43.27C1100.79,213.14,1107.78,217.4,1115.44,217.4Z"/><path class="cls-4" d="M1115.44,217.4a17.42,17.42,0,0,0,4.52-.57c3.17,17.23,11.85,29.6,22.06,29.6V227.72l.41-84.88h.29V92.17c-9.38,16.85-15.29,41.36-15.29,68.64,0,.69,0,1.39,0,2.08-14.94,5.6-26.94,22-31.93,43.27C1100.79,213.14,1107.78,217.4,1115.44,217.4Z"/><path class="cls-5" d="M1115.44,217.4a17.42,17.42,0,0,0,4.52-.57c3.17,17.23,11.85,29.6,22.06,29.6V227.72l.41-84.88h.29V92.17c-9.38,16.85-15.29,41.36-15.29,68.64,0,.69,0,1.39,0,2.08-14.94,5.6-26.94,22-31.93,43.27C1100.79,213.14,1107.78,217.4,1115.44,217.4Z"/></svg>