<svg id="Layer_1" data-name="Layer 1" xmlns="http://www.w3.org/2000/svg" viewBox="0 0 733.57 594.54"><defs><style>.cls-1{fill:none;stroke:#eb0a8c;stroke-linecap:round;stroke-miterlimit:10;stroke-width:4px;stroke-dasharray:1 20;}</style></defs><title>Artboard 7</title><path class="cls-1" d="M415.44,376a40,40,0,0,0-37.06-42.67A50,50,0,0,0,325,379.7a62.45,62.45,0,0,0,57.91,66.68A78.06,78.06,0,0,0,466.29,374a97.57,97.57,0,0,0-90.48-104.18,122,122,0,0,0-130.23,113.1c-5.91,84,53.15,138.76,137.15,144.67C487.71,535,574,460.27,573,369.73,571.93,277.84,521.93,216,454.79,193.41c-59.44-20-150.26,10.18-226.32.44-70.08-9-116.66-55.39-159.1-126.29"/></svg>