<svg id="Layer_1" data-name="Layer 1" xmlns="http://www.w3.org/2000/svg" viewBox="0 0 592.71 299.35"><defs><style>.cls-1,.cls-2{fill:#e4e873;}.cls-1{opacity:0.83;}.cls-2{opacity:0.6;}</style></defs><title>Artboard 5</title><path class="cls-1" d="M122.77,165.17h1.41c5,13.38,22.88,23.28,44.15,23.28a66.79,66.79,0,0,0,8.91-.59c9.66,10,26.34,16.66,45.3,16.66,29.87,0,54.09-16.45,54.09-36.74a21.47,21.47,0,0,0-.7-5.56c21.18-3.89,36.4-14.57,36.4-27.13h-23l-104.38-.51c0-.12,0-.24,0-.35H60.58C60.58,151.32,88.42,165.17,122.77,165.17Z"/><path class="cls-2" d="M204.86,113.44l2.46,0c8.77,23.4,40,40.71,77.19,40.71a116.76,116.76,0,0,0,15.58-1c16.88,17.54,46,29.13,79.2,29.13,52.23,0,94.56-28.75,94.56-64.22a37.54,37.54,0,0,0-1.22-9.72c37-6.8,63.63-25.47,63.63-47.43H496.05L313.57,60c0-.21,0-.41,0-.62H96.14C96.14,89.22,144.82,113.44,204.86,113.44Z"/></svg>